<svg xmlns="http://www.w3.org/2000/svg" width="24" height="24" viewBox="0 0 24 24" fill="none">
  <path d="M11.9701 3C7.01409 2.998 3 6.99557 3 11.9296C3 15.8314 5.51106 19.148 9.00811 20.3661C9.47906 20.4839 9.40691 20.1504 9.40691 19.9228V18.3753C6.68743 18.6927 6.57721 16.8996 6.39484 16.6001C6.0261 15.9731 5.15434 15.8134 5.41487 15.5139C6.03411 15.1964 6.66539 15.5937 7.39686 16.67C7.92593 17.4507 8.95801 17.319 9.48106 17.1892C9.59529 16.7199 9.83978 16.3006 10.1765 15.9751C7.35878 15.4719 6.18442 13.7587 6.18442 11.722C6.18442 10.7336 6.51108 9.82502 7.15237 9.0922C6.74354 7.88414 7.19044 6.84981 7.25057 6.69605C8.41491 6.59222 9.62535 7.52672 9.71954 7.6006C10.3809 7.42288 11.1364 7.32903 11.9821 7.32903C12.8318 7.32903 13.5893 7.42688 14.2567 7.60659C14.4831 7.43486 15.6054 6.63216 16.6876 6.73C16.7457 6.88375 17.1826 7.89413 16.7978 9.08621C17.4471 9.82102 17.7778 10.7375 17.7778 11.728C17.7778 13.7687 16.5954 15.4839 13.7697 15.9791C14.2407 16.4424 14.5332 17.0853 14.5332 17.7962V20.0426C14.5493 20.2223 14.5332 20.4 14.8338 20.4C18.383 19.2079 20.9381 15.8673 20.9381 11.9316C20.9381 6.99557 16.9221 3 11.9701 3Z" fill="white"/>
</svg>