<svg xmlns="http://www.w3.org/2000/svg" width="24" height="24" viewBox="0 0 24 24" fill="none">
  <path fill-rule="evenodd" clip-rule="evenodd" d="M6.1039 12.5661L8.23593 10.434C8.5303 10.1397 9.00758 10.1397 9.30195 10.434C9.57529 10.7074 9.59482 11.1384 9.36052 11.4343L9.30195 11.5001L7.16991 13.6321C6.2868 14.5152 6.2868 15.947 7.16991 16.8301C8.02149 17.6817 9.38328 17.7121 10.2713 16.9214L10.368 16.8301L12.5 14.6981C12.7944 14.4037 13.2716 14.4037 13.566 14.6981C13.8394 14.9715 13.8589 15.4025 13.6246 15.6984L13.566 15.7641L11.434 17.8962C9.96212 19.368 7.57576 19.368 6.1039 17.8962C4.67077 16.463 4.63305 14.1629 5.99076 12.6841L6.1039 12.5661ZM13.5655 5.1039C15.0373 3.63203 17.4237 3.63203 18.8956 5.1039C20.3674 6.57576 20.3674 8.96212 18.8956 10.434L16.7635 12.566C16.4692 12.8604 15.9919 12.8604 15.6975 12.566C15.4031 12.2716 15.4031 11.7944 15.6975 11.5L17.8295 9.36797C18.7127 8.48485 18.7127 7.05303 17.8295 6.16991C16.9464 5.2868 15.5146 5.2868 14.6315 6.16991L12.4995 8.30195C12.2051 8.59632 11.7278 8.59632 11.4334 8.30195C11.1391 8.00758 11.1391 7.5303 11.4334 7.23593L13.5655 5.1039ZM13.5658 9.36836C13.8602 9.07399 14.3375 9.07399 14.6318 9.36836C14.9262 9.66273 14.9262 10.14 14.6318 10.4344L11.4338 13.6324C11.1394 13.9268 10.6621 13.9268 10.3678 13.6324C10.0734 13.3381 10.0734 12.8608 10.3678 12.5664L13.5658 9.36836Z" fill="white"/>
</svg>