<svg xmlns="http://www.w3.org/2000/svg" width="24" height="24" viewBox="0 0 24 24" fill="none">
  <path fill-rule="evenodd" clip-rule="evenodd" d="M17.8371 7.08387C19.8135 9.8806 20.7895 13.0352 20.4247 16.6669C20.4231 16.6823 20.4148 16.6964 20.4017 16.7057C18.905 17.7634 17.4549 18.4053 16.0252 18.831C16.0023 18.8377 15.9776 18.8296 15.9637 18.811C15.6334 18.3687 15.3333 17.9023 15.0703 17.4126C15.0552 17.3838 15.069 17.3491 15.1001 17.3377C15.5767 17.1648 16.03 16.9577 16.4659 16.7124C16.5003 16.693 16.5025 16.6457 16.4708 16.6229C16.3782 16.5568 16.2866 16.4873 16.1989 16.4179C16.1824 16.405 16.1604 16.4025 16.1418 16.4111C13.3114 17.6691 10.2108 17.6691 7.34693 16.4111C7.32833 16.4031 7.30624 16.4059 7.29027 16.4185C7.20277 16.488 7.1109 16.5568 7.01924 16.6229C6.98752 16.6457 6.99015 16.693 7.02471 16.7124C7.46068 16.953 7.91393 17.1648 8.38993 17.3385C8.42077 17.3499 8.43543 17.3838 8.42011 17.4126C8.16286 17.903 7.86274 18.3693 7.5263 18.8116C7.51165 18.8295 7.48758 18.8377 7.46483 18.831C6.04187 18.4053 4.59178 17.7634 3.09509 16.7057C3.08262 16.6964 3.07365 16.6817 3.07234 16.6663C2.7674 13.5249 3.38887 10.3442 5.65752 7.08324C5.66299 7.07461 5.67131 7.06787 5.68093 7.06387C6.79721 6.5708 7.99311 6.20806 9.24305 6.00089C9.2658 5.99752 9.28855 6.00763 9.30036 6.027C9.4548 6.29016 9.63133 6.62765 9.75077 6.90345C11.0683 6.70976 12.4064 6.70976 13.7515 6.90345C13.8709 6.63354 14.0413 6.29016 14.1951 6.027C14.2063 6.00729 14.2295 5.99676 14.2524 6.00089C15.503 6.20869 16.6989 6.57144 17.8143 7.06387C17.8242 7.06787 17.8323 7.07461 17.8371 7.08387ZM10.4207 13.057C10.4345 12.1283 9.73099 11.3599 8.8479 11.3599C7.97203 11.3599 7.27531 12.1216 7.27531 13.057C7.27531 13.9922 7.98581 14.7539 8.8479 14.7539C9.72399 14.7539 10.4207 13.9922 10.4207 13.057ZM16.2357 13.057C16.2495 12.1283 15.546 11.3599 14.6631 11.3599C13.787 11.3599 13.0903 12.1216 13.0903 13.057C13.0903 13.9922 13.8008 14.7539 14.6631 14.7539C15.546 14.7539 16.2357 13.9922 16.2357 13.057Z" fill="white"/>
</svg>