<svg xmlns="http://www.w3.org/2000/svg" width="24" height="24" viewBox="0 0 24 24" fill="none">
  <path fill-rule="evenodd" clip-rule="evenodd" d="M3.23741 10.8368C8.06923 8.73161 11.2912 7.34377 12.9033 6.67323C17.5063 4.75871 18.4627 4.42614 19.0861 4.41516C19.2232 4.41274 19.5298 4.44672 19.7284 4.60786C19.8961 4.74392 19.9422 4.92772 19.9643 5.05672C19.9864 5.18572 20.0139 5.47959 19.992 5.70921C19.7426 8.33004 18.6633 14.6901 18.1142 17.6255C17.8818 18.8676 17.4244 19.284 16.9815 19.3248C16.0189 19.4133 15.288 18.6887 14.3558 18.0776C12.897 17.1213 12.0729 16.5261 10.6569 15.5929C9.02048 14.5146 10.0813 13.9219 11.0139 12.9532C11.258 12.6997 15.4988 8.84232 15.5809 8.4924C15.5912 8.44863 15.6007 8.2855 15.5038 8.19936C15.4069 8.11322 15.2639 8.14268 15.1606 8.1661C15.0143 8.19931 12.6839 9.73963 8.16938 12.7871C7.5079 13.2413 6.90875 13.4626 6.37193 13.451C5.78013 13.4382 4.64175 13.1164 3.79548 12.8413C2.75749 12.5039 1.93252 12.3255 2.00436 11.7525C2.04178 11.454 2.45279 11.1488 3.23741 10.8368Z" fill="white"/>
</svg>