<svg xmlns="http://www.w3.org/2000/svg" width="13" height="13" viewBox="0 0 13 13" fill="none">
  <path fill-rule="evenodd" clip-rule="evenodd" d="M0.893682 6.26291C4.38334 4.74252 6.71032 3.74019 7.87463 3.25592C11.199 1.87321 11.8897 1.63302 12.34 1.62508C12.439 1.62334 12.6604 1.64788 12.8038 1.76426C12.9249 1.86252 12.9583 1.99527 12.9742 2.08843C12.9902 2.1816 13.01 2.39384 12.9942 2.55967C12.8141 4.4525 12.0346 9.04588 11.638 11.1659C11.4702 12.0629 11.1398 12.3637 10.8199 12.3931C10.1248 12.4571 9.59692 11.9337 8.92364 11.4924C7.87007 10.8018 7.27488 10.3718 6.25221 9.69792C5.07035 8.91909 5.8365 8.49103 6.51004 7.79146C6.68631 7.60838 9.74916 4.82248 9.80845 4.56976C9.81586 4.53815 9.82274 4.42033 9.75275 4.35812C9.68275 4.29591 9.57945 4.31718 9.5049 4.3341C9.39923 4.35808 7.71615 5.47054 4.45566 7.67146C3.97793 7.99951 3.54521 8.15934 3.1575 8.15097C2.7301 8.14173 1.90793 7.90931 1.29673 7.71063C0.547079 7.46695 -0.0487324 7.33811 0.00314937 6.92426C0.0301726 6.7087 0.327017 6.48825 0.893682 6.26291Z" fill="white"/>
</svg>
