<svg xmlns="http://www.w3.org/2000/svg" width="12" height="13" viewBox="0 0 12 13" fill="none">
  <path d="M11 6.5C11 9.26142 8.76142 11.5 6 11.5C3.23858 11.5 1 9.26142 1 6.5C1 3.73858 3.23858 1.5 6 1.5C8.76142 1.5 11 3.73858 11 6.5ZM5.40901 8.30911C5.50372 8.31175 5.59929 8.27693 5.67157 8.20464L8.60101 5.2752C8.6568 5.21941 8.6568 5.12896 8.60101 5.07317L8.1717 4.64385C8.11591 4.58806 8.02546 4.58806 7.96967 4.64385L5.41866 7.19486L4.03037 5.80657C3.97458 5.75078 3.88413 5.75078 3.82834 5.80657L3.39902 6.23589C3.34323 6.29167 3.34323 6.38213 3.39902 6.43792L5.16573 8.20462C5.23311 8.272 5.32072 8.30683 5.40901 8.30911Z" fill="#5D49F6"/>
</svg>