<svg width="152" height="27" viewBox="0 0 152 27" fill="none" xmlns="http://www.w3.org/2000/svg">
<path d="M10.9388 9.98204L11.3602 10.4092L12.4015 9.38204H10.9388V9.98204ZM1 9.98204H0.4V10.582H1V9.98204ZM1 1V0.4H0.4V1H1ZM26 25.4012V26.0012H26.6V25.4012H26ZM17.018 25.4012H16.418V26.0012H17.018V25.4012ZM17.018 15.5579H17.618V14.1283L16.5977 15.1297L17.018 15.5579ZM6.91268 25.4761V26.0761H7.15793L7.33296 25.9043L6.91268 25.4761ZM1.07436 25.4761H0.474359V26.0761H1.07436V25.4761ZM1.07436 19.7126L0.653004 19.2855L0.474359 19.4617V19.7126H1.07436ZM10.9388 9.38204H1V10.582H10.9388V9.38204ZM1.6 9.98204V1H0.4V9.98204H1.6ZM1 1.6H17.6168V0.4H1V1.6ZM17.6168 1.6C21.9153 1.6 25.4 5.08467 25.4 9.38323H26.6C26.6 4.42193 22.5781 0.4 17.6168 0.4V1.6ZM25.4 9.38323V25.4012H26.6V9.38323H25.4ZM26 24.8012H17.018V26.0012H26V24.8012ZM17.618 25.4012V15.5579H16.418V25.4012H17.618ZM16.5977 15.1297L6.4924 25.0479L7.33296 25.9043L17.4382 15.9861L16.5977 15.1297ZM6.91268 24.8761H1.07436V26.0761H6.91268V24.8761ZM1.67436 25.4761V19.7126H0.474359V25.4761H1.67436ZM1.49571 20.1398L11.3602 10.4092L10.5175 9.55488L0.653004 19.2855L1.49571 20.1398Z" fill="#FA9D2B"/>
<path d="M144.418 19.4754C142.824 19.4754 141.459 19.2282 140.322 18.7339C139.197 18.2272 138.332 17.5105 137.727 16.5836C137.133 15.6568 136.837 14.5446 136.837 13.247C136.837 11.937 137.133 10.8186 137.727 9.89177C138.332 8.96492 139.197 8.25434 140.322 7.76002C141.459 7.25334 142.824 7 144.418 7C146.025 7 147.39 7.25334 148.515 7.76002C149.64 8.25434 150.498 8.96492 151.092 9.89177C151.697 10.8186 152 11.937 152 13.247C152 14.5446 151.697 15.6568 151.092 16.5836C150.498 17.5105 149.64 18.2272 148.515 18.7339C147.39 19.2282 146.025 19.4754 144.418 19.4754ZM144.418 17.3436C145.407 17.3436 146.272 17.1953 147.014 16.8988C147.767 16.6022 148.354 16.1511 148.775 15.5456C149.207 14.94 149.423 14.1738 149.423 13.247C149.423 12.3201 149.207 11.5539 148.775 10.9484C148.354 10.3428 147.767 9.89177 147.014 9.59518C146.272 9.28623 145.407 9.13175 144.418 9.13175C143.442 9.13175 142.571 9.28623 141.805 9.59518C141.038 9.89177 140.439 10.3428 140.007 10.9484C139.574 11.5539 139.358 12.3201 139.358 13.247C139.358 14.1738 139.574 14.94 140.007 15.5456C140.439 16.1511 141.038 16.6022 141.805 16.8988C142.571 17.1953 143.442 17.3436 144.418 17.3436Z" fill="#FA9D2B"/>
<path d="M125.124 16.6209V14.5633H133.058V16.6209H125.124ZM122.14 19.2346L127.775 7.24121H130.445L136.135 19.2346H133.447L128.517 8.42758H129.703L124.809 19.2346H122.14Z" fill="#FA9D2B"/>
<path d="M114.416 7.24121C115.763 7.24121 116.888 7.40186 117.79 7.72317C118.692 8.04448 119.409 8.48319 119.94 9.0393C120.484 9.58305 120.867 10.2133 121.089 10.9301C121.324 11.6468 121.441 12.4007 121.441 13.1916C121.441 13.9825 121.312 14.7425 121.052 15.4716C120.805 16.2008 120.403 16.8496 119.847 17.418C119.304 17.9741 118.581 18.419 117.678 18.7527C116.789 19.074 115.701 19.2346 114.416 19.2346H107.557V7.24121H114.416ZM110.023 17.1214H114.36C115.25 17.1214 115.985 17.0164 116.566 16.8063C117.159 16.5839 117.629 16.2873 117.975 15.9165C118.321 15.5458 118.568 15.1256 118.717 14.656C118.865 14.1864 118.939 13.6983 118.939 13.1916C118.939 12.6849 118.865 12.2029 118.717 11.7457C118.568 11.2885 118.321 10.8806 117.975 10.5223C117.629 10.1639 117.159 9.87964 116.566 9.66956C115.985 9.45947 115.25 9.35443 114.36 9.35443H110.023V17.1214Z" fill="#FA9D2B"/>
<path d="M87.4668 19.2346L82.4062 7.24121H85.1311L89.4132 17.8629L88.6161 17.8814L92.6942 7.24121H95.5304L99.6085 17.8814L98.8114 17.8629L103.093 7.24121H105.763L100.758 19.2346H97.7363L93.7323 8.83539H94.5108L90.4883 19.2346H87.4668Z" fill="#FA9D2B"/>
<path d="M68.4377 19.2346V7.24121H76.5754C77.5023 7.24121 78.3055 7.37097 78.9852 7.63049C79.6773 7.87765 80.2149 8.2731 80.598 8.81686C80.9811 9.34825 81.1726 10.0341 81.1726 10.8745C81.1726 11.4429 81.0737 11.9249 80.876 12.3203C80.6783 12.7158 80.4002 13.0371 80.0418 13.2843C79.6958 13.5314 79.2942 13.723 78.8369 13.8589C78.3797 13.9825 77.8916 14.0628 77.3725 14.0999L77.113 13.9516C77.9781 13.964 78.6886 14.0381 79.2448 14.174C79.8009 14.2976 80.2149 14.5324 80.4867 14.8785C80.771 15.2121 80.9131 15.7126 80.9131 16.3799V19.2346H78.4477V16.5468C78.4477 16.0895 78.3673 15.7373 78.2067 15.4902C78.046 15.2307 77.7556 15.0515 77.3354 14.9526C76.9276 14.8537 76.3344 14.8043 75.5559 14.8043H70.9031V19.2346H68.4377ZM70.9031 12.8765H76.5754C77.2675 12.8765 77.7927 12.7096 78.1511 12.376C78.5218 12.0423 78.7072 11.5912 78.7072 11.0228C78.7072 10.479 78.5218 10.065 78.1511 9.78078C77.7927 9.49654 77.2675 9.35443 76.5754 9.35443H70.9031V12.8765Z" fill="#FA9D2B"/>
<path d="M57.3964 18.0112H56.2286L63.1244 7.24121H65.5898V19.2346H63.1244V10.5223L63.7176 10.6891L58.2121 19.2346H55.4501L49.9446 10.7262L50.5378 10.5593V19.2346H48.0723V7.24121H50.5378L57.3964 18.0112Z" fill="#FA9D2B"/>
<path d="M34 7.24121H46.6422V9.29882H34V7.24121ZM39.0977 9.0393H41.5631V19.2346H39.0977V9.0393Z" fill="#FA9D2B"/>
</svg>
