<svg xmlns="http://www.w3.org/2000/svg" width="173" height="123" viewBox="0 0 173 123" fill="none">
  <path d="M74.2985 41.8301H94.2492" stroke="#747474" stroke-width="0.889854" stroke-miterlimit="10" stroke-linecap="round" stroke-linejoin="round"/>
  <path d="M69.2143 58.0351V40.9707H74.9136" fill="#171717"/>
  <path d="M69.2143 58.0351V40.9707H74.9136" stroke="#747474" stroke-width="0.889854" stroke-miterlimit="10" stroke-linecap="round" stroke-linejoin="round"/>
  <path d="M101.974 82.8769H69.2143V56.0195" fill="#171717"/>
  <path d="M101.974 82.8769H69.2143V56.0195" stroke="#747474" stroke-width="0.889854" stroke-miterlimit="10" stroke-linecap="round" stroke-linejoin="round"/>
  <path d="M104.815 78.207V82.8762H84.7861" fill="#171717"/>
  <path d="M104.815 78.207V82.8762H84.7861" stroke="#747474" stroke-width="0.889854" stroke-miterlimit="10" stroke-linecap="round" stroke-linejoin="round"/>
  <path d="M65.7756 61.4745V44.4102H68.9267" stroke="#747474" stroke-width="0.889854" stroke-miterlimit="10" stroke-linecap="round" stroke-linejoin="round"/>
  <path d="M98.535 86.3163H65.7756V59.459" stroke="#747474" stroke-width="0.889854" stroke-miterlimit="10" stroke-linecap="round" stroke-linejoin="round"/>
  <path d="M101.376 82.877L101.376 86.3158H81.3474" stroke="#747474" stroke-width="0.889854" stroke-miterlimit="10" stroke-linecap="round" stroke-linejoin="round"/>
  <path d="M110.192 45.2983V79.862H72.5844V35.5938H100.486L107.012 42.1196L110.192 45.2983Z" fill="#171717" stroke="#747474" stroke-width="0.889854" stroke-miterlimit="10" stroke-linecap="round" stroke-linejoin="round"/>
  <path d="M110.192 45.2983H100.486V35.5938L107.012 42.1196L110.192 45.2983Z" fill="#171717" stroke="#747474" stroke-width="0.889854" stroke-miterlimit="10" stroke-linecap="round" stroke-linejoin="round"/>
  <path d="M79.2429 48.4883H92.8833" stroke="#747474" stroke-width="0.66739" stroke-miterlimit="10" stroke-linecap="round" stroke-linejoin="round"/>
  <path d="M79.2429 52.5254H103.314" stroke="#747474" stroke-width="0.66739" stroke-miterlimit="10" stroke-linecap="round" stroke-linejoin="round"/>
  <path d="M79.2429 57.1602H103.314" stroke="#747474" stroke-width="0.66739" stroke-miterlimit="10" stroke-linecap="round" stroke-linejoin="round"/>
  <path d="M79.2429 61.1953H103.314" stroke="#747474" stroke-width="0.66739" stroke-miterlimit="10" stroke-linecap="round" stroke-linejoin="round"/>
  <path d="M79.2429 65.2324H103.314" stroke="#747474" stroke-width="0.66739" stroke-miterlimit="10" stroke-linecap="round" stroke-linejoin="round"/>
  <path d="M79.2429 69.2695H103.314" stroke="#747474" stroke-width="0.66739" stroke-miterlimit="10" stroke-linecap="round" stroke-linejoin="round"/>
  <path d="M79.2429 73.3047H100.346" stroke="#747474" stroke-width="0.66739" stroke-miterlimit="10" stroke-linecap="round" stroke-linejoin="round"/>
  <rect x="49.1261" y="21.8023" width="77.4173" height="77.4173" stroke="white" stroke-opacity="0.4" stroke-width="0.889854" stroke-dasharray="19.58 19.58"/>
  <path d="M131.883 26.2516C134.586 23.5486 134.586 19.1662 131.883 16.4632C129.18 13.7602 124.797 13.7602 122.094 16.4632C119.391 19.1662 119.391 23.5486 122.094 26.2516C124.797 28.9546 129.18 28.9546 131.883 26.2516Z" fill="#171717" stroke="#747474" stroke-width="0.889854" stroke-miterlimit="10" stroke-linecap="round" stroke-linejoin="round"/>
  <path d="M126.991 17.7891V24.9214" stroke="#747474" stroke-width="0.889854" stroke-miterlimit="10" stroke-linecap="round" stroke-linejoin="round"/>
  <path d="M130.557 21.3555H123.424" stroke="#747474" stroke-width="0.889854" stroke-miterlimit="10" stroke-linecap="round" stroke-linejoin="round"/>
</svg>