<svg xmlns="http://www.w3.org/2000/svg" width="18" height="18" viewBox="0 0 18 18" fill="none">
  <path fill-rule="evenodd" clip-rule="evenodd" d="M8.99991 15.3748C12.5152 15.3748 15.3749 12.5151 15.3749 8.99982C15.3749 5.48457 12.5152 2.62482 8.99991 2.62482C5.48466 2.62482 2.62491 5.48457 2.62491 8.99982C2.62491 12.5151 5.48466 15.3748 8.99991 15.3748M8.99988 1.49976C13.1354 1.49976 16.4999 4.86426 16.4999 8.99976C16.4999 13.1353 13.1354 16.4998 8.99988 16.4998C4.86438 16.4998 1.49988 13.1353 1.49988 8.99975C1.49988 4.86425 4.86438 1.49975 8.99988 1.49976" fill="white"/>
  <path fill-rule="evenodd" clip-rule="evenodd" d="M9.00427 7.96993C9.31477 7.96993 9.56677 8.22193 9.56677 8.53243L9.56677 11.8467C9.56677 12.1572 9.31477 12.4092 9.00427 12.4092C8.69377 12.4092 8.44177 12.1572 8.44177 11.8467L8.44177 8.53243C8.44177 8.22193 8.69377 7.96993 9.00427 7.96993" fill="white"/>
  <path fill-rule="evenodd" clip-rule="evenodd" d="M8.99698 5.40283C9.41173 5.40283 9.75073 5.73808 9.75073 6.15283C9.75073 6.56758 9.41848 6.90283 9.00448 6.90283L8.99698 6.90283C8.58223 6.90283 8.24698 6.56758 8.24698 6.15283C8.24698 5.73808 8.58223 5.40283 8.99698 5.40283" fill="white"/>
</svg>