<svg width="36" height="36" viewBox="0 0 36 36" fill="none" xmlns="http://www.w3.org/2000/svg">
<rect width="36" height="36" fill="#FA9D2B"/>
<path fill-rule="evenodd" clip-rule="evenodd" d="M12.2115 18.1457H8.81167C8.54775 18.1457 8.34593 17.9611 8.34593 17.7196V7.87484H5.11686C4.85294 7.87484 4.65112 7.69016 4.65112 7.44866V4.96262C4.65112 4.72112 4.85294 4.53644 5.11686 4.53644H15.9063C16.1702 4.53644 16.3721 4.72112 16.3721 4.96262V7.44866C16.3721 7.69016 16.1702 7.87484 15.9063 7.87484H12.6772V17.7196C12.6772 17.9469 12.4599 18.1457 12.2115 18.1457ZM30.9694 18.1457H28.1095C27.8875 18.1457 27.7178 17.9613 27.7178 17.72V12.4267L25.8503 17.8619C25.7981 18.0322 25.6414 18.1315 25.4847 18.1315H23.1733C23.0166 18.1315 22.8598 18.018 22.8076 17.8619L20.9271 12.3983V17.7058C20.9271 17.9471 20.7574 18.1315 20.5354 18.1315H17.6755C17.4535 18.1315 17.2837 17.9471 17.2837 17.7058V4.96217C17.2837 4.72092 17.4535 4.53644 17.6755 4.53644H21.0447C21.2014 4.53644 21.345 4.63578 21.4103 4.80607L24.3355 12.6538L27.2346 4.80607C27.2999 4.64997 27.4435 4.53644 27.6002 4.53644H30.9564C31.1784 4.53644 31.3481 4.72092 31.3481 4.96217V17.7058C31.3612 17.9471 31.1784 18.1457 30.9694 18.1457ZM13.0494 31.451H16.6333C16.7929 31.451 16.938 31.3755 17.0105 31.2749C17.0831 31.1618 17.0831 31.0109 17.0105 30.8977L14.2682 26.8235C15.0662 26.5343 15.6901 26.1193 16.1399 25.5786C16.6768 24.9248 16.9525 24.1828 16.9525 23.3529C16.9525 22.6236 16.7493 21.9446 16.3576 21.3536C15.9513 20.75 15.3419 20.2596 14.5439 19.92C13.7604 19.5931 12.8172 19.4171 11.729 19.4171H6.404C6.15733 19.4171 5.96871 19.5805 5.96871 19.7943V31.0863C5.96871 31.3001 6.15733 31.4636 6.404 31.4636H9.5816C9.82826 31.4636 10.0169 31.3001 10.0169 31.0863V27.2008H10.0894L12.6721 31.2624C12.7447 31.3755 12.8898 31.451 13.0494 31.451ZM9.28658 25.2188H11.4201C12.1787 25.2188 12.7792 25.0602 13.1901 24.7551C13.601 24.4379 13.8065 24.0109 13.8065 23.4741C13.8065 22.9617 13.601 22.5347 13.1901 22.2297C12.7792 21.9247 12.1945 21.7661 11.4359 21.7661H9.28658C9.01791 21.7661 8.81246 21.9247 8.81246 22.1321V24.8527C8.81246 25.0602 9.01791 25.2188 9.28658 25.2188ZM28.6076 31.3985H25.8285C25.6816 31.3985 25.5558 31.286 25.5243 31.1111L24.3183 25.2016L23.0703 31.1111C23.0388 31.2735 22.913 31.3985 22.7661 31.3985H19.987C19.8402 31.3985 19.7143 31.286 19.6828 31.1111L17.2917 19.8918C17.2707 19.7794 17.2917 19.6669 17.3442 19.567C17.4071 19.4795 17.491 19.4171 17.5959 19.4171H20.0499C20.1967 19.4171 20.3331 19.542 20.354 19.7169L21.4342 26.2261L22.7766 19.7044C22.8081 19.542 22.9339 19.4171 23.0808 19.4171H25.5977C25.7446 19.4171 25.8704 19.542 25.9019 19.7044L27.1813 26.1886L28.2615 19.7169C28.293 19.542 28.4188 19.4171 28.5657 19.4171H31.0302C31.1246 19.4171 31.219 19.467 31.2819 19.567C31.3448 19.6544 31.3658 19.7794 31.3343 19.8918L28.9118 31.1111C28.8698 31.286 28.744 31.3985 28.6076 31.3985Z" fill="white"/>
</svg>
