<svg xmlns="http://www.w3.org/2000/svg" width="65" height="64" viewBox="0 0 65 64" fill="none">
  <path d="M60.5 32C60.5 47.464 47.964 60 32.5 60C17.036 60 4.5 47.464 4.5 32C4.5 16.536 17.036 4 32.5 4C47.964 4 60.5 16.536 60.5 32ZM29.1905 42.131C29.7208 42.1458 30.256 41.9508 30.6608 41.546L47.0657 25.1411C47.3781 24.8287 47.3781 24.3222 47.0657 24.0097L44.6615 21.6056C44.3491 21.2932 43.8426 21.2932 43.5301 21.6056L29.2445 35.8912L21.4701 28.1168C21.1576 27.8044 20.6511 27.8044 20.3387 28.1168L17.9345 30.521C17.6221 30.8334 17.6221 31.3399 17.9345 31.6523L27.8281 41.5459C28.2054 41.9232 28.696 42.1183 29.1905 42.131Z" fill="#5D49F6"/>
</svg>