<svg xmlns="http://www.w3.org/2000/svg" width="146" height="118" viewBox="0 0 146 118" fill="none">
  <g clip-path="url(#clip0_1755_16709)">
    <path d="M0.19043 104.025C0.768813 99.3478 3.65117 94.739 8.08669 93.2168C6.33744 98.0313 6.33782 103.313 8.08776 108.127C8.76933 109.982 9.71936 111.972 9.07825 113.841C8.67937 115.004 7.70354 115.894 6.61276 116.45C5.52192 117.006 4.31131 117.271 3.11585 117.531L2.88058 117.727C0.982806 113.417 -0.387953 108.703 0.19043 104.025Z" fill="#EDEDED"/>
    <path d="M8.13071 93.3048C5.54767 96.2157 3.94224 99.8711 3.54244 103.752C3.44163 104.586 3.47214 105.43 3.63285 106.255C3.81521 107.053 4.20669 107.787 4.76662 108.381C5.27763 108.946 5.86536 109.464 6.231 110.144C6.41302 110.495 6.51926 110.88 6.54276 111.275C6.56627 111.67 6.50649 112.065 6.36736 112.436C6.04454 113.367 5.40829 114.126 4.76043 114.846C4.04112 115.646 3.28137 116.466 2.97561 117.526C2.93856 117.655 2.74247 117.59 2.77946 117.461C3.31144 115.616 5.09243 114.568 5.94178 112.906C6.3381 112.13 6.50445 111.23 6.13291 110.411C5.808 109.696 5.20239 109.161 4.68006 108.594C4.12538 108.022 3.71833 107.322 3.49446 106.556C3.29253 105.742 3.22972 104.9 3.3087 104.066C3.45672 102.184 3.89803 100.337 4.61646 98.5929C5.42542 96.5978 6.56776 94.7567 7.99403 93.149C8.08235 93.0496 8.21845 93.206 8.13071 93.3048Z" fill="white"/>
    <path d="M3.59801 102.495C2.95973 102.339 2.39732 101.96 2.01121 101.426C1.6251 100.891 1.44044 100.236 1.4902 99.5774C1.50073 99.4441 1.7071 99.4543 1.69656 99.5878C1.64909 100.201 1.82116 100.811 2.18172 101.308C2.54228 101.805 3.06756 102.156 3.66277 102.297C3.79209 102.328 3.72658 102.526 3.59801 102.495Z" fill="white"/>
    <path d="M4.47002 108.129C5.62283 107.437 6.47385 106.333 6.85338 105.037C6.89087 104.909 7.08697 104.974 7.04952 105.103C6.65207 106.45 5.76414 107.597 4.56292 108.314C4.44838 108.383 4.3561 108.197 4.47002 108.129Z" fill="white"/>
    <path d="M5.61706 96.7944C5.85153 96.9064 6.11 96.9581 6.36927 96.9449C6.62853 96.9317 6.88047 96.8539 7.10245 96.7185C7.21607 96.6488 7.30823 96.8348 7.19535 96.9041C6.9494 97.0525 6.67106 97.138 6.38465 97.1533C6.09823 97.1686 5.81246 97.1131 5.55229 96.9916C5.52682 96.9822 5.50585 96.9635 5.49364 96.9391C5.48144 96.9147 5.47892 96.8866 5.4866 96.8604C5.49531 96.8343 5.51389 96.8128 5.53832 96.8004C5.56275 96.788 5.59104 96.7859 5.61706 96.7944Z" fill="white"/>
    <path d="M21.6068 101.572C21.5371 101.617 21.4674 101.663 21.3976 101.71C20.4634 102.328 19.5807 103.021 18.7582 103.783C18.6937 103.84 18.6292 103.9 18.5664 103.96C16.6042 105.816 15.0017 108.022 13.8403 110.466C13.379 111.439 12.9921 112.446 12.6827 113.479C12.2556 114.904 11.9052 116.484 11.0597 117.65C10.9728 117.772 10.8785 117.889 10.7772 118H3.13622C3.11885 117.992 3.1014 117.985 3.08395 117.976L2.77887 117.99C2.79113 117.936 2.805 117.879 2.81726 117.825C2.82423 117.794 2.83292 117.762 2.8399 117.73C2.84509 117.709 2.85037 117.688 2.85386 117.669C2.85556 117.662 2.85735 117.655 2.85906 117.65C2.86254 117.63 2.86783 117.613 2.87131 117.595C2.94801 117.282 3.02703 116.968 3.10838 116.654C3.10838 116.652 3.10838 116.652 3.11008 116.65C3.736 114.261 4.56578 111.902 5.72507 109.746C5.75997 109.681 5.79479 109.614 5.83318 109.549C6.3611 108.58 6.96689 107.656 7.64452 106.786C8.01709 106.311 8.41333 105.855 8.83173 105.42C9.91497 104.299 11.1669 103.356 12.5415 102.625C15.282 101.17 18.4548 100.612 21.3837 101.501C21.4586 101.524 21.5319 101.547 21.6068 101.572Z" fill="#EDEDED"/>
    <path d="M21.5896 101.668C17.7846 102.428 14.3145 104.375 11.6722 107.231C11.0925 107.836 10.6112 108.529 10.2461 109.285C9.91399 110.032 9.78701 110.855 9.87832 111.669C9.94831 112.429 10.1074 113.199 9.99244 113.963C9.9278 114.353 9.78186 114.725 9.5642 115.055C9.34653 115.385 9.06206 115.664 8.72942 115.875C7.91422 116.423 6.95183 116.644 6.00323 116.827C4.95 117.03 3.85282 117.225 2.9738 117.886C2.86729 117.967 2.74983 117.796 2.85618 117.716C4.38554 116.564 6.43499 116.806 8.10805 115.993C8.88873 115.614 9.56052 114.996 9.75391 114.117C9.92302 113.349 9.7596 112.555 9.68213 111.786C9.58149 110.994 9.67528 110.189 9.95532 109.441C10.2811 108.669 10.735 107.959 11.2977 107.34C12.5425 105.927 14.0004 104.72 15.6181 103.763C17.4583 102.66 19.4725 101.881 21.5737 101.461C21.7038 101.435 21.7188 101.643 21.5896 101.668Z" fill="white"/>
    <path d="M12.4692 106.261C12.0529 105.75 11.8307 105.107 11.8423 104.447C11.8539 103.786 12.0986 103.151 12.5326 102.656C12.6208 102.556 12.7795 102.689 12.6912 102.789C12.2862 103.25 12.0583 103.841 12.0487 104.456C12.0392 105.071 12.2485 105.67 12.639 106.143C12.7237 106.246 12.5534 106.364 12.4692 106.261Z" fill="white"/>
    <path d="M9.79237 111.288C11.1273 111.433 12.4675 111.067 13.546 110.263C13.6528 110.183 13.7703 110.354 13.6636 110.434C12.5398 111.269 11.1442 111.647 9.75547 111.492C9.62311 111.478 9.66073 111.273 9.79237 111.288Z" fill="white"/>
    <path d="M17.4935 102.933C17.6136 103.165 17.789 103.362 18.0039 103.509C18.2189 103.655 18.4666 103.746 18.7249 103.772C18.8574 103.785 18.8196 103.99 18.688 103.976C18.4028 103.946 18.1293 103.846 17.8915 103.685C17.6536 103.523 17.4587 103.306 17.3237 103.051C17.309 103.029 17.3035 103.001 17.3083 102.974C17.3131 102.947 17.328 102.923 17.3498 102.907C17.3723 102.891 17.4001 102.885 17.427 102.89C17.4539 102.895 17.4778 102.911 17.4935 102.933Z" fill="white"/>
    <path d="M129.712 11.0841C123.401 4.34512 114.713 0.365292 105.516 0V35.4194L129.712 11.0841Z" fill="#1A1A1A"/>
    <path d="M129.712 15.4941L105.516 39.8295H139.331C139.343 30.7779 135.9 22.067 129.712 15.4941Z" fill="#EDEDED"/>
    <path d="M139.367 42.375C139.368 44.5826 139.165 46.7856 138.76 48.9553C138.729 49.1271 138.695 49.2972 138.661 49.4673C137.897 53.2521 136.519 56.8846 134.581 60.2188C134.478 60.3976 134.372 60.5765 134.266 60.7518V60.7535C132.356 63.9137 129.968 66.755 127.188 69.1749C127.05 69.2958 126.912 69.4151 126.773 69.5325C120.798 74.5882 113.317 77.4955 105.515 77.7943V42.375H139.367Z" fill="#EDEDED"/>
    <path d="M102.095 77.8251C102.563 77.8251 103.028 77.8131 103.492 77.7949V42.374L77.8795 68.1335C84.4168 74.3676 93.0859 77.8372 102.095 77.8251Z" fill="#EDEDED"/>
    <path d="M102.143 4.37891C82.6753 4.37891 66.894 20.2509 66.894 39.83H103.576V4.41051C103.1 4.39136 102.623 4.37891 102.143 4.37891Z" fill="#5D49F6"/>
    <path d="M93.7334 42.375L86.3225 49.8285L86.0802 50.0722L86.0749 50.0774L79.6124 56.5753L79.3667 56.8225L72.3846 63.8447L72.1388 64.0919V64.0937L68.1204 68.1334C64.6313 64.8241 61.8524 60.8317 59.9549 56.4019C58.0574 51.972 57.0814 47.1984 57.0869 42.375H93.7334Z" fill="#5D49F6"/>
    <path d="M36.2388 74.6396C36.5084 74.475 36.739 74.253 36.9141 73.9892C37.0892 73.7253 37.2047 73.4261 37.2524 73.1125C37.3001 72.7989 37.2788 72.4787 37.1901 72.1742C37.1014 71.8698 36.9475 71.5886 36.739 71.3505L37.0299 55.4062L33.5555 55.699L33.5637 71.2432C33.1892 71.6218 32.9658 72.1255 32.9359 72.6587C32.9059 73.192 33.0715 73.7177 33.4013 74.1364C33.731 74.555 34.202 74.8375 34.725 74.9302C35.2479 75.023 35.7866 74.9196 36.2388 74.6396Z" fill="#FFB6B6"/>
    <path d="M37.5777 59.3084L33.0338 58.8726C32.9045 58.8602 32.7794 58.8199 32.667 58.7545C32.5546 58.6891 32.4575 58.6001 32.3824 58.4935C32.3072 58.387 32.2558 58.2654 32.2316 58.1371C32.2074 58.0087 32.211 57.8767 32.2422 57.7499L33.3333 53.3066C33.4002 52.6417 33.7264 52.0306 34.2406 51.6072C34.7547 51.1839 35.4148 50.9829 36.0761 51.0483C36.7374 51.1136 37.3459 51.4401 37.7682 51.956C38.1906 52.4719 38.3922 53.1353 38.3291 53.8005L38.566 58.3563C38.5727 58.4867 38.5514 58.6171 38.5036 58.7385C38.4557 58.86 38.3824 58.9696 38.2886 59.0599C38.1948 59.1503 38.0827 59.2192 37.9601 59.2621C37.8374 59.305 37.7069 59.3208 37.5777 59.3084Z" fill="#E4E4E4"/>
    <path d="M30.0202 116.123H31.7833L32.622 109.283L30.0199 109.283L30.0202 116.123Z" fill="#FFB6B6"/>
    <path d="M29.5704 115.544L33.0426 115.544C33.6294 115.544 34.1924 115.778 34.6073 116.196C35.0223 116.613 35.2554 117.179 35.2555 117.769V117.842L29.5705 117.842L29.5704 115.544Z" fill="#2F2E41"/>
    <path d="M46.2706 116.123H48.0338L48.8725 109.283L46.2704 109.283L46.2706 116.123Z" fill="#FFB6B6"/>
    <path d="M45.821 115.544L49.2931 115.544C49.88 115.544 50.4429 115.778 50.8579 116.196C51.2728 116.613 51.506 117.179 51.506 117.769V117.842L45.8211 117.842L45.821 115.544Z" fill="#2F2E41"/>
    <path d="M44.142 61.1758L45.2925 68.5523L34.3629 68.6969L35.8009 61.6097L44.142 61.1758Z" fill="#FFB6B6"/>
    <path d="M44.9752 66.751C48.4433 72.8266 48.7393 93.428 48.8877 114.706H45.9396L38.8929 83.6666L32.4215 113.896H29.5453L31.5586 79.906C31.5586 79.906 30.9649 73.084 34.0034 69.0583L34.743 66.9093L44.9752 66.751Z" fill="#2F2E41"/>
    <path d="M36.1759 65.2492C36.1121 65.2492 36.0485 65.2428 35.9859 65.2303C35.7755 65.188 35.5846 65.0775 35.4424 64.9158C35.3003 64.7541 35.2147 64.5501 35.1986 64.3348C35.0905 62.8461 34.5549 60.2548 33.6065 56.6327C33.2864 55.4016 33.3573 54.1007 33.8093 52.9122C34.2613 51.7237 35.0718 50.7073 36.1271 50.0054C37.1824 49.3035 38.4296 48.9514 39.694 48.9983C40.9583 49.0452 42.1763 49.4889 43.1773 50.2671C43.8182 50.7609 44.3532 51.38 44.7499 52.0872C45.1466 52.7944 45.3969 53.5751 45.4857 54.3821C45.957 58.5568 45.0684 62.7482 44.6645 64.3565C44.6114 64.5664 44.4914 64.7531 44.3228 64.8878C44.1541 65.0226 43.9462 65.0981 43.7309 65.1027L36.1969 65.249C36.1899 65.2491 36.1829 65.2492 36.1759 65.2492Z" fill="#E4E4E4"/>
    <path d="M57.2246 51.8573C57.1794 51.9593 57.1422 52.0649 57.1134 52.1728L47.683 55.3958L45.8607 53.7947L43.0988 56.2448L46.0509 59.3945C46.2893 59.6489 46.6035 59.8187 46.9461 59.8783C47.2886 59.9379 47.6412 59.8842 47.9508 59.7251L58.042 54.5409C58.4069 54.7661 58.8314 54.8741 59.2588 54.8507C59.6863 54.8274 60.0966 54.6736 60.4351 54.41C60.7736 54.1464 61.0242 53.7854 61.1537 53.375C61.2832 52.9646 61.2854 52.5242 61.1601 52.1126C61.0347 51.7009 60.7876 51.3373 60.4518 51.0703C60.116 50.8033 59.7072 50.6454 59.28 50.6177C58.8528 50.59 58.4273 50.6937 58.0602 50.9152C57.693 51.1366 57.4016 51.4652 57.2246 51.8573Z" fill="#FFB6B6"/>
    <path d="M47.3542 55.5718L43.9164 58.5917C43.8186 58.6777 43.7035 58.7414 43.579 58.7785C43.4545 58.8157 43.3235 58.8254 43.1949 58.8071C43.0663 58.7887 42.9431 58.7427 42.8338 58.6722C42.7245 58.6016 42.6316 58.5082 42.5614 58.3983L40.1025 54.5472C39.6682 54.0414 39.451 53.383 39.4986 52.7164C39.5463 52.0499 39.8548 51.4295 40.3566 50.9913C40.8583 50.5531 41.5123 50.333 42.1753 50.3791C42.8382 50.4252 43.4559 50.7338 43.8929 51.2372L47.3459 54.1955C47.4447 54.2802 47.5243 54.3854 47.5791 54.5038C47.6338 54.6222 47.6626 54.7511 47.6634 54.8817C47.6642 55.0123 47.637 55.1416 47.5836 55.2607C47.5302 55.3798 47.452 55.4859 47.3542 55.5718Z" fill="#E4E4E4"/>
    <path d="M42.7366 45.6402C43.9608 43.3879 43.1377 40.5639 40.8983 39.3327C38.6588 38.1015 35.851 38.9292 34.6268 41.1816C33.4026 43.4339 34.2256 46.2579 36.4651 47.4891C38.7045 48.7203 41.5124 47.8926 42.7366 45.6402Z" fill="#FFB6B6"/>
    <path d="M39.9539 36.9784H39.0167C38.567 36.8368 38.0983 36.7651 37.627 36.7656C37.5494 36.7656 37.4722 36.7675 37.3954 36.7713C36.5193 36.8268 35.6815 37.153 34.9966 37.7052C34.3117 38.2575 33.813 39.0089 33.5686 39.8569C32.5208 43.3745 32.9734 47.2667 32.9734 47.2667C34.5027 47.9624 36.8402 48.4772 40.2923 48.0539L40.8 45.9137L40.7576 47.9901C41.2442 47.922 41.7519 47.834 42.2807 47.7263V43.148H44.396C44.396 39.7398 43.3426 36.9784 39.9539 36.9784Z" fill="#2F2E41"/>
    <path d="M135.714 86.9662C137.255 86.9662 138.504 85.7102 138.504 84.1608C138.504 82.6115 137.255 81.3555 135.714 81.3555C134.174 81.3555 132.925 82.6115 132.925 84.1608C132.925 85.7102 134.174 86.9662 135.714 86.9662Z" fill="#F6F6F6"/>
    <path d="M67.8991 7.89C69.4396 7.89 70.6884 6.634 70.6884 5.08465C70.6884 3.53529 69.4396 2.2793 67.8991 2.2793C66.3586 2.2793 65.1097 3.53529 65.1097 5.08465C65.1097 6.634 66.3586 7.89 67.8991 7.89Z" fill="#F6F6F6"/>
    <path d="M66.7694 117.825C66.7694 117.848 66.765 117.871 66.7562 117.892C66.7475 117.913 66.7347 117.933 66.7185 117.949C66.7023 117.965 66.683 117.978 66.6618 117.987C66.6406 117.996 66.6179 118 66.595 118H0.174333C0.128097 118 0.0837544 117.982 0.0510607 117.949C0.018367 117.916 0 117.871 0 117.825C0 117.778 0.018367 117.734 0.0510607 117.701C0.0837544 117.668 0.128097 117.649 0.174333 117.649H66.595C66.6179 117.649 66.6406 117.654 66.6618 117.663C66.683 117.671 66.7023 117.684 66.7185 117.701C66.7347 117.717 66.7475 117.736 66.7562 117.758C66.765 117.779 66.7694 117.802 66.7694 117.825Z" fill="#CACACA"/>
    <path d="M72.1388 64.0932C66.3553 58.3325 62.9759 50.569 62.6902 42.3875L63.3872 42.3623C63.6666 50.3659 66.9727 57.9605 72.6304 63.5958L72.1388 64.0932Z" fill="#1A1A1A"/>
    <path d="M79.6197 56.5823L79.1141 57.0628C75.2614 52.9711 72.5421 47.9354 71.2273 42.4574L71.5656 42.375H71.9246C73.2177 47.6996 75.8674 52.5937 79.6127 56.5753L79.6197 56.5823Z" fill="#1A1A1A"/>
    <path d="M86.3416 49.853L86.0801 50.0722L86.0749 50.0774L85.8065 50.3019C83.8503 47.9487 82.2383 45.3267 81.0192 42.5153L81.3383 42.375H81.7201C82.9009 45.0633 84.45 47.5722 86.3225 49.8285C86.3283 49.8371 86.3347 49.8453 86.3416 49.853Z" fill="#1A1A1A"/>
  </g>
  <defs>
    <clipPath id="clip0_1755_16709">
      <rect width="146" height="118" fill="white"/>
    </clipPath>
  </defs>
</svg>