<svg xmlns="http://www.w3.org/2000/svg" width="65" height="64" viewBox="0 0 65 64" fill="none">
  <path d="M60.5 32C60.5 47.464 47.964 60 32.5 60C17.036 60 4.5 47.464 4.5 32C4.5 16.536 17.036 4 32.5 4C47.964 4 60.5 16.536 60.5 32ZM34.2 36C34.6418 36 35 35.6418 35 35.2V18.8C35 18.3582 34.6418 18 34.2 18H30.8C30.3582 18 30 18.3582 30 18.8V35.2C30 35.6418 30.3582 36 30.8 36H34.2ZM32.4999 46C34.4881 46 36.0999 44.3883 36.0999 42.4C36.0999 40.4118 34.4881 38.8 32.4999 38.8C30.5117 38.8 28.8999 40.4118 28.8999 42.4C28.8999 44.3883 30.5117 46 32.4999 46Z" fill="#FF485D"/>
</svg>