<svg width="65" height="64" viewBox="0 0 65 64" fill="none" xmlns="http://www.w3.org/2000/svg">
<path d="M29.0723 7.93847C30.6267 5.35384 34.3736 5.35384 35.928 7.93847L61.3307 50.1772C62.934 52.8433 61.0139 56.2388 57.9028 56.2388H7.0975C3.98647 56.2388 2.06629 52.8433 3.66966 50.1772L29.0723 7.93847ZM34.1995 40.5398C34.6413 40.5398 34.9995 40.1816 34.9995 39.7398V23.3398C34.9995 22.898 34.6413 22.5398 34.1995 22.5398H30.7995C30.3577 22.5398 29.9995 22.898 29.9995 23.3398V39.7398C29.9995 40.1816 30.3577 40.5398 30.7995 40.5398H34.1995ZM32.4999 50.5398C34.4881 50.5398 36.0999 48.9281 36.0999 46.9398C36.0999 44.9516 34.4881 43.3398 32.4999 43.3398C30.5117 43.3398 28.8999 44.9516 28.8999 46.9398C28.8999 48.9281 30.5117 50.5398 32.4999 50.5398Z" fill="white"/>
</svg>
