<?xml version="1.0" standalone="no"?>
<!DOCTYPE svg PUBLIC "-//W3C//DTD SVG 1.1//EN" "http://www.w3.org/Graphics/SVG/1.1/DTD/svg11.dtd" >
<svg xmlns="http://www.w3.org/2000/svg">
<defs>
  <font id="tmrwdao-icon" horiz-adv-x="240">
    <font-face font-family="tmrwdao-icon"
      units-per-em="240" ascent="240"
      descent="0" />
    <missing-glyph horiz-adv-x="0" />
    <glyph glyph-name="arrow"
      unicode="&#xEA01;"
      horiz-adv-x="240" d="M97.15 198.18C93.95 197.19 91.2 193.41 91.2 190C91.2 186.56 90.12 187.74 127.23 150.6C146.57 131.24 162.4 115.22 162.4 115C162.4 114.78 146.57 98.76 127.23 79.4C90.12 42.26 91.2 43.44 91.2 40C91.2 35.51 95.52 31.21 100.03 31.2C103.48 31.19 102.29 30.09 145.91 73.71L187.2 115.01L145.7 156.45C106.33 195.77 104.1 197.92 102.32 198.35C100 198.91 99.47 198.89 97.15 198.18" />
    <glyph glyph-name="calendar"
      unicode="&#xEA02;"
      horiz-adv-x="240" d="M80.2 219.25C76.98 217.77 76.04 215.65 76.02 209.76L76 205.71L72.96 205.44C68.15 205 61.22 203.06 56.63 200.87C51.28 198.32 48.13 196.16 44.31 192.47C37.47 185.85 33.28 177.46 30.93 165.7C30.29 162.51 30.22 158.07 30.1 116.05C29.96 65.94 29.99 65.13 32.17 56.76C36.47 40.28 47.46 28.83 63.4 24.21C72.04 21.7 69.8 21.8 120 21.8C170.2 21.8 167.96 21.7 176.6 24.21C193.43 29.09 204.84 41.8 208.56 59.8C209.97 66.61 210.05 69.94 209.91 116.4C209.78 158.06 209.71 162.52 209.07 165.7C207.45 173.82 204.78 180.71 201.18 186.05C198.8 189.58 194.04 194.4 190.53 196.82C184.09 201.28 174.62 204.75 167.04 205.44L164 205.71L164 209.56C164 211.67 163.81 214.07 163.58 214.89C162.29 219.53 156.55 221.46 152.85 218.5C150.48 216.61 150 215.22 150 210.3L150 206L120 206L90 206L90 210.17C90 215.86 89.25 217.53 85.92 219.24C84.06 220.19 82.26 220.19 80.2 219.25M150.06 187.67C150.19 183.17 150.26 182.86 151.36 181.42C153.69 178.36 157.62 177.65 160.77 179.73C163.02 181.22 163.73 183.07 163.93 187.9L164.09 191.99L165.75 191.76C184.57 189.08 194.6 177.99 195.86 158.5L196.12 154.4L120.06 154.4L44 154.4L44 156.7C44.01 164.97 47.16 174.82 51.54 180.25C56.42 186.31 64.68 190.52 74.06 191.73L75.93 191.97L76.07 187.89C76.23 183.08 76.95 181.24 79.23 179.73C82.38 177.65 86.31 178.36 88.64 181.42C89.74 182.86 89.81 183.17 89.94 187.67L90.08 192.4L120 192.4L149.92 192.4L150.06 187.67M196 105.09C196 83.17 195.84 68.12 195.59 66.12C194.08 54.05 188.94 45.47 180.19 40.41C177.53 38.87 171.86 37 167.18 36.11C163.7 35.46 159.99 35.4 120 35.4C71.94 35.4 73.53 35.32 65.42 38.04C53.34 42.08 46.46 51.18 44.43 65.79C44.15 67.78 44 81.51 44 104.83L44 140.8L120 140.8L196 140.8L196 105.09" />
    <glyph glyph-name="chat-bubble"
      unicode="&#xEA03;"
      horiz-adv-x="240" d="M111.6 203.55C91.93 201.55 74 192.94 60.38 178.94C53.05 171.41 48.64 165.15 44.37 156.2C39.12 145.21 36.61 135.02 36.13 122.8C35.61 109.38 38.67 96.08 45.6 81.63C47.78 77.08 48.4 75.39 48.4 74C48.4 72.91 47.12 67.86 45.16 61.27C41.59 49.23 41.52 48.54 43.63 46.43C45.73 44.33 46.46 44.4 58.01 47.81C69.82 51.3 70.75 51.38 74.8 49.27C88.56 42.09 93.63 40.07 102.58 38.19C115.9 35.38 130.13 35.89 143.09 39.61C168.12 46.81 188.47 64.79 197.76 87.9C212.84 125.42 199.79 167.73 166.22 190.17C150.6 200.62 130.71 205.49 111.6 203.55M85.8 129.5C89.59 127.63 91.67 124.27 91.67 120.02C91.67 116.77 90.99 115.02 88.79 112.64C83.9 107.33 75.33 108.43 71.8 114.82C70.76 116.7 70.6 117.41 70.61 120C70.62 123.36 71.41 125.35 73.63 127.57C76.77 130.71 81.76 131.5 85.8 129.5M124.45 129.57C128.35 127.59 130.41 124.29 130.39 120.02C130.35 108.97 116.13 105.12 110.55 114.65C109.32 116.74 108.87 120.52 109.55 123.04C110.48 126.47 113.99 129.71 117.56 130.44C119.56 130.84 122.72 130.45 124.45 129.57M163.53 129.33C170.17 126.15 171.15 116.45 165.31 111.63C158.35 105.89 148.02 110.89 148.02 120C148.02 128.19 155.95 132.97 163.53 129.33" />
    <glyph glyph-name="circle-add"
      unicode="&#xEA04;"
      horiz-adv-x="240" d="M113.1 227.17C77.2 225.02 44.67 204.63 26.49 172.9C20.08 161.72 15.65 148.77 13.55 135.14C12.28 126.92 12.28 113.08 13.55 104.86C15.75 90.53 20.6 76.84 27.57 65.3C33.2 55.98 37.72 50.29 45.55 42.7C61.79 26.97 81.91 17.08 104.86 13.55C113.08 12.28 126.92 12.28 135.14 13.55C153.54 16.38 169.95 23.23 184.7 34.25C190.87 38.85 201.15 49.13 205.75 55.3C216.77 70.05 223.62 86.46 226.45 104.86C227.18 109.56 227.3400000000001 112.3 227.3400000000001 120C227.3400000000001 127.7 227.18 130.44 226.45 135.14C223.62 153.55 216.76 169.97 205.75 184.7C201.7 190.12 191.47 200.57 186.4 204.48C171.37 216.05 154.5 223.39 136.57 226.17C133.03 226.72 120.42 227.69 118.8 227.54C118.47 227.51 115.9 227.34 113.1 227.17M130.58 211.8C151.68 209.33 170.13 200.36 185.23 185.24C197.31 173.15 205.35 159.24 209.4 143.43C211.65 134.67 212.18 130.15 212.18 120C212.18 109.85 211.65 105.33 209.4 96.57C203.09 71.97 185.81 50.19 163.07 38.2C139.05 25.53 110.43 24.08 85.4 34.26C63.44 43.2 45.48 60.49 35.7 82.11C23.44 109.24 25.21 141.44 40.38 166.9C48.23 180.08 59.92 191.77 73.1 199.62C90.08 209.74 110.75 214.11 130.58 211.8M117.85 167.12C115.87 166.58 113.38 164.1 112.83 162.13C112.56 161.17 112.4 154.49 112.4 144.12L112.4 127.63L95.3 127.52C78.85 127.4 78.14 127.37 76.6 126.56C71.39 123.84 71.21 116.7 76.27 113.55L77.8 112.6L95.08 112.48L112.37 112.37L112.48 95.08L112.6 77.8L113.55 76.27C116.61 71.34 123.39 71.34 126.45 76.27L127.4 77.8L127.52 95.08L127.63 112.37L144.92 112.48L162.2 112.6L163.73 113.55C167.47 115.88 168.59 120.65 166.19 124.04C165.54 124.97 164.28 126.1 163.4 126.56C161.86 127.37 161.15 127.4 144.72 127.52L127.63 127.63L127.52 144.98L127.4 162.33L126.2 164.03C124.27 166.77 121 167.98 117.85 167.12" />
    <glyph glyph-name="circle-minus"
      unicode="&#xEA05;"
      horiz-adv-x="240" d="M112.3 227.17C90.45 225.86 69.78 217.83 51.81 203.68C47.14 200 37.23 189.75 33.45 184.7C22.45 169.98 15.58 153.55 12.75 135.14C11.48 126.92 11.48 113.08 12.75 104.86C15.58 86.46 22.43 70.05 33.45 55.3C38.01 49.18 48.31 38.89 54.5 34.26C69.19 23.26 85.65 16.38 104.06 13.55C112.28 12.28 126.12 12.28 134.34 13.55C152.74 16.38 169.15 23.23 183.9 34.25C190.07 38.85 200.35 49.13 204.95 55.3C215.97 70.05 222.82 86.46 225.65 104.86C226.38 109.56 226.54 112.3 226.54 120C226.54 127.7 226.38 130.44 225.65 135.14C222.82 153.56 215.93 170.04 204.94 184.7C201.15 189.76 191.2 200.05 186.59 203.68C171.38 215.65 154 223.35 135.77 226.17C132.23 226.72 119.62 227.69 118 227.54C117.67 227.51 115.1 227.34 112.3 227.17M133 211.43C152.93 208.31 170.1 199.57 184.43 185.23C198.82 170.85 207.51 153.73 210.66 133.59C211.67 127.17 211.67 112.83 210.66 106.41C207.1 83.64 195.73 63.52 178.05 48.76C152.22 27.19 115.86 21.54 84.6 34.26C56.58 45.66 35.61 70.33 29.05 99.63C24.67 119.14 26.76 139.87 34.9 157.89C39.55 168.16 45.67 176.96 53.96 185.24C68.9 200.18 87.15 209.13 108.1 211.8C113.77 212.52 127.32 212.32 133 211.43M77.05 127.11C74.98 126.56 72.56 124.1 71.99 121.96C71.13 118.78 72.54 115.37 75.47 113.55L77 112.6L118.33 112.49C147.77 112.42 160.14 112.51 161.32 112.83C164.72 113.75 167.19 117.69 166.59 121.23C166.25 123.29 164.45 125.69 162.55 126.63C161.05 127.37 159.55 127.4 119.8 127.46C92.45 127.5 78.08 127.39 77.05 127.11" />
    <glyph glyph-name="cross"
      unicode="&#xEA06;"
      horiz-adv-x="240" d="M55.34 184.69C50.88 180.26 50 179.19 50 178.2C50 177.16 53.56 173.45 78.5 148.51L106.99 120L78.5 91.49C53.68 66.67 50 62.83 50 61.81C50 60.83 50.9 59.73 55.32 55.32C59.73 50.9 60.83 50 61.81 50C62.83 50 66.67 53.68 91.49 78.5L120 106.99L148.51 78.5C173.33 53.68 177.17 50 178.19 50C179.17 50 180.27 50.9 184.68 55.32C189.1 59.73 190 60.83 190 61.81C190 62.83 186.32 66.67 161.5 91.49L133.01 120L161.5 148.51C186.44 173.45 190 177.16 190 178.2C190 179.19 189.12 180.26 184.66 184.69C180.29 189.04 179.11 190 178.16 190C177.17 190 173.04 186.03 148.51 161.5L120 133.01L91.49 161.5C66.96 186.03 62.83 190 61.84 190C60.89 190 59.71 189.04 55.34 184.69" />
    <glyph glyph-name="custom"
      unicode="&#xEA07;"
      horiz-adv-x="240" d="M44.9 205.42C39.65 203.76 35.44 199.06 34.2 193.45C33.65 190.99 33.58 187.18 33.68 165.4C33.8 140.51 33.81 140.17 34.69 137.86C36.44 133.2 39.78 129.91 44.76 127.91C46.98 127.02 47.2 127.01 71 126.88C86.59 126.8 96.12 126.9 98.19 127.18C106.17 128.25 111.66 133.6 112.78 141.4C113.28 144.85 113.32 187.9 112.83 191.7C112.11 197.26 108.89 201.89 103.93 204.48L101.4 205.8L74 205.88C52.04 205.94 46.26 205.85 44.9 205.42M137.93 205.23C136.89 204.83 135.42 204.11 134.65 203.63C132.39 202.24 129.34 198.59 128.33 196.1L127.4 193.8L127.29 167.44C127.17 138.39 127.15 138.67 129.65 134.73C132.32 130.54 136.38 127.95 141.41 127.22C145.05 126.69 188.5 126.69 192.13 127.21C199.09 128.22 204.55 133.25 205.99 140C206.32 141.59 206.42 149.35 206.33 168L206.2 193.8L204.93 196.49C203.23 200.07 200.53 202.89 197.25 204.5L194.62 205.8L167.21 205.89C141.41 205.97 139.69 205.93 137.93 205.23M99.36 192.37L100.4 191.14L100.4 166.54L100.4 141.94L99.23 140.77L98.06 139.6L73.6 139.6C48.49 139.6 48.1 139.62 46.91 141.17C46.54 141.65 46.42 147.76 46.41 166.72L46.4 191.64L47.38 192.62L48.36 193.6L73.35 193.6L98.33 193.6L99.36 192.37M192.06 193.17C193.96 192.15 194 191.58 194 166.6C194 141.62 193.96 141.05 192.06 140.03C191.51 139.74 183.53 139.6 166.72 139.6C139.95 139.6 141.03 139.51 140.05 141.89C139.71 142.71 139.61 149.56 139.69 167.34L139.8 191.67L140.92 192.63L142.04 193.6L166.65 193.6C183.51 193.6 191.51 193.46 192.06 193.17M161.07 117.44C159.78 116.9 158.07 116 157.27 115.44C156.46 114.88 148.67 107.27 139.96 98.51C122.74 81.22 122.49 80.91 121.64 75.66C121.13 72.48 121.62 69.45 123.21 66.05C124.33 63.64 125.89 61.95 140.72 47.12C155.82 32.02 157.2 30.74 159.8 29.52C162.41 28.29 162.88 28.2 166.81 28.2C170.77 28.2 171.18 28.28 173.81 29.55C176.36 30.79 177.98 32.29 192.85 47.15C207.71 62.02 209.21 63.64 210.45 66.19C211.72 68.82 211.8 69.23 211.8 73.19C211.8 77.12 211.71 77.58 210.48 80.2C209.25 82.8 207.97 84.19 192.88 99.28C177.73 114.42 176.41 115.65 173.8 116.87C171.36 118 170.51 118.19 167.2 118.3C163.89 118.41 163.1 118.3 161.07 117.44M45.67 112.18C41.59 111.07 37.54 107.79 35.64 104.07C33.64 100.17 33.6 99.5 33.6 73.57C33.6 59.01 33.76 48.45 34 47.15C35.19 40.77 40.24 35.45 46.48 34.02C47.52 33.78 58.21 33.62 73.4 33.61C93.49 33.61 99.02 33.72 100.66 34.16C107.2 35.9 111.81 41.12 112.79 47.87C113.31 51.46 113.31 94.93 112.79 98.6C111.98 104.31 108.63 108.8 103.29 111.33L100.6 112.6L74.2 112.68C52.22 112.75 47.44 112.66 45.67 112.18M183.89 90.29C198.51 75.68 199.6 74.49 199.6 73.21C199.6 71.92 198.52 70.74 184.1 56.3C175.58 47.76 168.2 40.67 167.7 40.54C167.21 40.42 166.31 40.43 165.7 40.58C164.48 40.88 135.57 69.39 134.57 71.28C134.26 71.87 134 72.95 134 73.67C134 74.86 135.42 76.39 149.51 90.49C164.7 105.68 165.05 106 166.61 106C168.16 106 168.51 105.68 183.89 90.29M98.41 99.8C99.05 99.46 99.76 98.85 99.99 98.42C100.26 97.92 100.4 89.18 100.4 73.12C100.4 46.35 100.49 47.43 98.11 46.45C97.29 46.11 90.44 46.01 72.66 46.09L48.33 46.2L47.37 47.32L46.4 48.44L46.4 73.13C46.4 99.9 46.34 99.11 48.54 100C49.01 100.19 60.16 100.36 73.32 100.37C93.91 100.4 97.4 100.32 98.41 99.8" />
    <glyph glyph-name="default-arrow"
      unicode="&#xEA08;"
      horiz-adv-x="240" d="M40 176.8L40 163.6L98.38 163.5L156.75 163.4L98.6 103.6C66.61 70.71 40.43 43.67 40.42 43.5C40.41 43.33 48.73 43.21 58.9 43.21L77.4 43.23L127.4 94.69L177.4 146.16L177.5 94.67L177.6 43.19L190.3 43.29L203 43.4L203.1 116.7L203.2 190L121.6 190L40 190L40 176.8" />
    <glyph glyph-name="delete"
      unicode="&#xEA09;"
      horiz-adv-x="240" d="M101.02 209.57C95.23 208.69 90.92 206.29 88.45 202.55C86.68 199.87 85.64 196.36 84.25 188.24L83 181L79 180.72C68.78 180.01 44.6 177.77 42.67 177.36C40.96 177 38.87 174.95 38.39 173.16C37.53 169.98 39.5 166.51 42.65 165.64C43.58 165.38 45.81 165.43 49.51 165.8C52.52 166.1 55.07 166.27 55.17 166.16C55.27 166.06 56.56 143.62 58.03 116.29C59.5 88.96 60.91 64.16 61.15 61.17C61.93 51.72 63.85 46.23 67.78 42.31C71.8 38.29 77.88 35.96 86.28 35.22C92.24 34.7 142.19 34.68 148.4 35.2C164.08 36.5 171.32 42.6 173.39 56.27C173.7 58.28 175.24 83.84 176.82 113.07C178.41 142.29 179.73 166.24 179.76 166.28C179.8 166.33 182.3 166.12 185.32 165.82C191.32 165.22 193.09 165.43 194.74 166.94C197.84 169.79 197.35 174.68 193.76 176.66C192.42 177.4 190.54 177.67 180.4 178.55C173.91 179.11 165.04 179.8 160.69 180.07C156.33 180.34 152.6 180.67 152.39 180.8C152.18 180.93 151.46 184.24 150.79 188.15C150.11 192.06 149.23 196.32 148.83 197.61C146.94 203.67 143.23 207.12 136.49 209.08C134.56 209.64 131.77 209.76 118.8 209.84C110.33 209.89 102.33 209.77 101.02 209.57M135.35 196.67C136.87 195.67 137.42 194.17 138.39 188.36C138.84 185.63 139.31 182.95 139.42 182.4L139.62 181.4L117.71 181.54C105.66 181.61 95.76 181.72 95.71 181.76C95.55 181.92 97.59 192.94 98.02 194.25C98.51 195.75 99.51 196.72 101.06 197.2C101.69 197.39 109.41 197.52 118.22 197.47C132.99 197.41 134.32 197.34 135.35 196.67M132.2 169.2C145.96 168.76 166.43 167.61 167.02 167.25C167.31 167.08 166.54 150.53 164.58 114.4C163 85.47 161.58 60.55 161.42 59.03C160.62 51.59 158.34 48.97 151.63 47.77C147.22 46.98 87.97 46.98 83.57 47.77C76.2 49.08 74.17 51.85 73.4 61.6C73.04 66.14 67.59 167.33 67.7 167.44C67.91 167.64 78.62 168.4 86.8 168.8C102.75 169.59 116.74 169.71 132.2 169.2M94.1 113.6C90.09 111.16 90.27 105.19 94.41 103.1C95.7 102.44 97.47 102.4 118 102.5C139.48 102.6 140.24 102.63 141.29 103.4C143.93 105.33 144.67 109.37 142.85 111.93C141.06 114.44 141.49 114.4 117.34 114.4C96.15 114.4 95.36 114.37 94.1 113.6M101.08 91.17C98.8 89.95 97.92 88.29 98.1 85.5C98.23 83.52 98.44 82.99 99.61 81.79C100.36 81.02 101.66 80.2 102.5 79.97C103.45 79.72 109.4 79.61 118.31 79.68C134.14 79.81 134.16 79.82 136.07 82.49C136.76 83.46 137 84.34 137 85.87C137 88.11 136.27 89.47 134.25 90.98C133.18 91.77 132.6 91.8 117.87 91.89C103.22 91.98 102.54 91.95 101.08 91.17" />
    <glyph glyph-name="discord"
      unicode="&#xEA0A;"
      horiz-adv-x="240" d="M86.2 178.78C79.22 177.32 71.2 174.98 64.52 172.45C56.21 169.31 56.77 169.73 52.77 163.44C40.75 144.51 33.9 126.05 30.95 104.6C30.41 100.65 30.23 96.66 30.22 88C30.21 81.73 30.34 75.79 30.51 74.8C30.82 73.05 30.94 72.92 35.17 70.11C45.18 63.43 57.53 57.41 69.37 53.41L74.95 51.53L75.69 52.47C77.22 54.4 81.58 61.1 83 63.7L84.47 66.39L83.53 66.76C79.58 68.29 77.68 69.12 74.1 70.89C71.85 72 70 73.05 70 73.22C70 73.39 70.71 74.09 71.57 74.78L73.14 76.02L76.47 74.65C84.18 71.47 94.19 68.78 103.6 67.35C109.37 66.47 124.35 66.35 130 67.14C139.81 68.51 148.61 70.79 157.16 74.16L161.72 75.97L163.25 74.88C164.09 74.29 164.79 73.59 164.79 73.34C164.8 72.79 159.15 69.85 154.45 67.95C152.61 67.21 151.02 66.39 150.92 66.13C150.82 65.87 151.23 64.79 151.83 63.73C153.76 60.35 159.65 51.6 160 51.6C160.74 51.6 172.45 55.81 176.36 57.48C184.6 61 192.86 65.48 200.26 70.44L204.31 73.16L204.62 77.28C205.11 83.87 204.9 96.71 204.19 102.9C201.67 124.98 194.55 144.4 181.74 164.1C178.56 168.99 178.34 169.24 176.11 170.22C172.35 171.89 164.21 174.75 159.03 176.24C153.51 177.81 142.86 180.11 142.21 179.86C141.97 179.77 140.79 177.69 139.59 175.25C138.02 172.06 137.23 170.86 136.8 170.99C132.68 172.22 110.3 172.57 102.08 171.54L97.56 170.97L95.98 174.18C93.86 178.5 92.91 180 92.31 179.98C92.03 179.96 89.28 179.43 86.2 178.78M94.1 125.22C97.44 123.95 100.44 121.04 102.3 117.28C103.78 114.28 103.8 114.19 103.8 109.42C103.8 104.82 103.74 104.47 102.52 101.89C97.63 91.57 85.26 89.33 77.64 97.4C75.38 99.79 74.24 101.85 73.4 105.07C71.02 114.18 76.41 123.8 85.1 125.99C87.36 126.56 91.52 126.2 94.1 125.22M152.92 124.9C162.95 120.2 165.48 105.85 157.73 97.57C153.56 93.11 148.14 91.47 142.77 93.04C131.06 96.46 127.04 112.22 135.56 121.33C140.24 126.34 146.91 127.71 152.92 124.9" />
    <glyph glyph-name="document"
      unicode="&#xEA0B;"
      horiz-adv-x="240" d="M74.27 219.56C50.35 217.19 35.38 203.47 30.88 179.8C30.26 176.52 30.2 171.47 30.2 122.4C30.2 62.38 30.09 65.07 33 56.17C38.48 39.44 49.82 29.62 68.4 25.53L72.6 24.6L118.6 24.6C161.53 24.6 164.84 24.65 168.19 25.33C177.02 27.13 184.67 30.49 190.41 35.1C197.95 41.16 202.61 48.69 205.4 59.34C207.43 67.09 207.4 66.22 207.4 122.6C207.4 180.54 207.5 177.94 204.99 186.6C200.44 202.3 189.49 213.22 173.98 217.54C165.86 219.81 167.76 219.73 121 219.82C97.24 219.87 76.21 219.75 74.27 219.56M161.4 205.99C167.58 205.42 171.96 204.26 176.63 201.97C185.18 197.79 190.37 190.68 192.67 179.99C193.36 176.8 193.4 173.37 193.4 121.6L193.4 66.6L192.31 62.6C191.71 60.4 190.38 56.9 189.36 54.83C187.85 51.78 186.87 50.43 184.25 47.79C180.5 44.01 177.23 42.04 171.91 40.33C164.72 38.02 164.46 38 118.93 38C91.64 38 76.18 38.15 74.13 38.43C66.6 39.45 59.54 42.17 55.33 45.68C48.83 51.08 45.05 59.31 44.01 70.33C43.45 76.19 43.46 168.53 44.02 174.06C45.99 193.64 56.06 203.94 75.21 205.94C80.08 206.45 155.98 206.49 161.4 205.99M138.56 196.44C137.66 196.03 136.49 195.09 135.96 194.35C135 193.01 135 192.95 134.88 180.87C134.77 169.58 134.82 168.53 135.61 165.67C137.77 157.77 143.52 151.56 151.4 148.63L154.6 147.44L166.6 147.29C174.62 147.18 179.09 147.28 180.08 147.58C180.96 147.84 182.12 148.67 182.95 149.65C185.93 153.13 185.06 157.32 180.7 160.47C180.64 160.51 175.2 160.65 168.6 160.77L156.6 161L154.47 162.18C152.14 163.47 150.83 164.82 149.48 167.35C148.65 168.92 148.59 169.61 148.4 180.8C148.19 193.27 148.18 193.34 146.13 195.27C143.98 197.32 141.38 197.72 138.56 196.44M80.85 119.61C75.9 118.41 73.94 112.38 77.26 108.6C79.45 106.1 80.32 106 100.25 106C111.5 106 118.7 106.16 119.99 106.43C126.22 107.77 127.49 115.75 122 118.98C120.64 119.77 119.98 119.8 101.4 119.87C90.84 119.91 81.59 119.79 80.85 119.61M80.85 83.21C79.26 82.82 77.77 81.78 76.62 80.25C75.99 79.4 75.8 78.54 75.8 76.6C75.8 74.66 75.99 73.8 76.62 72.95C77.82 71.36 79.24 70.4 81.03 69.98C83.44 69.42 154.42 69.49 156.65 70.05C162.66 71.57 163.76 79.43 158.4 82.58C157.02 83.39 156.55 83.4 119.6 83.47C99.03 83.5 81.59 83.38 80.85 83.21" />
    <glyph glyph-name="down-arrow"
      unicode="&#xEA0C;"
      horiz-adv-x="240" d="M47.15 168.18C44.81 167.45 42.23 164.75 41.58 162.34C41.06 160.38 41.31 157.72 42.17 156.09C42.49 155.49 60.13 137.63 81.37 116.4L120 77.8L158.79 116.59C199.79 157.59 198.8 156.51 198.8 160C198.8 162.18 197.56 164.77 195.75 166.36C193.42 168.41 190.85 169.08 187.9 168.4C185.82 167.92 185.47 167.58 152.9 135.06L120 102.21L87.1 135.05C55.99 166.11 54.1 167.92 52.32 168.35C50 168.91 49.47 168.89 47.15 168.18" />
    <glyph glyph-name="duplicate"
      unicode="&#xEA0D;"
      horiz-adv-x="240" d="M105 207.24C101.82 206.44 100.04 204.73 99.23 201.7C98.37 198.52 100.07 194.85 103.08 193.36C104.53 192.63 106.4 192.59 144.8 192.4L185 192.2L187.65 191.14C194.27 188.48 198.48 184.28 201.11 177.71L202.2 175L202.4 134.8C202.59 96.4 202.63 94.53 203.36 93.08C204.81 90.14 208.53 88.37 211.54 89.18C213.78 89.79 215.61 91.18 216.57 93C217.39 94.59 217.4 94.96 217.52 133C217.59 158.97 217.49 172.5 217.19 174.8C216.62 179.33 214.55 185.27 212.15 189.28C210.05 192.79 204.65 198.63 201.58 200.7C198.26 202.94 193.22 205.24 189.28 206.32L185.4 207.38L145.8 207.46C124.02 207.5 105.66 207.4 105 207.24M66.79 169.58C55.75 168.37 46.46 160.3 43.33 149.2C42.64 146.75 42.6 143.99 42.6 101.2C42.6 58.55 42.64 55.64 43.33 53.2C46.03 43.53 53.21 36.29 63 33.35C65.24 32.67 68.41 32.62 109.8 32.5C149.28 32.39 154.55 32.45 157.38 33.02C168.41 35.24 176.27 42.84 179.27 54.2C179.69 55.8 179.8 65.15 179.8 101.2C179.8 151.77 180.01 148.08 176.74 154.8C174.42 159.57 169.61 164.37 164.78 166.74C158.15 169.98 161.87 169.76 113.2 169.84C89.33 169.88 68.45 169.77 66.79 169.58M157.8 153.53C160.2 152.26 162.37 150.05 163.66 147.6L164.6 145.8L164.6 101.2L164.6 56.6L163.54 54.6C162.2 52.07 160 49.87 157.64 48.71L155.8 47.8L111.73 47.69C67.98 47.59 67.64 47.6 65.44 48.42C62.76 49.42 60.13 51.86 58.78 54.61L57.8 56.6L57.69 100.4C57.6 132.89 57.69 144.64 58.04 145.9C58.64 148.09 60.65 150.91 62.64 152.37C66.1 154.9 63.45 154.78 111.8 154.68L155.8 154.6L157.8 153.53" />
    <glyph glyph-name="edit"
      unicode="&#xEA0E;"
      horiz-adv-x="240" d="M161 209.41C157.78 208.7 154.82 207.49 152.07 205.76C150.53 204.79 131.49 186.05 93.06 147.66C49.06 103.73 35.87 90.34 34.36 88.05C33.28 86.43 31.91 83.64 31.3 81.85L30.2 78.6L30.08 57.07L29.97 35.54L51.08 35.7C74.65 35.88 73.76 35.79 80 38.83L83.4 40.49L140.72 97.75C181.49 138.46 198.54 155.75 199.76 157.6C202.83 162.26 204.11 166.5 204.1 172C204.1 176.49 203.33 179.79 201.3 184C199.99 186.72 199.01 187.85 190.63 196.23C181.89 204.98 181.22 205.55 178 207.11C172.46 209.79 166.43 210.6 161 209.41M172.2 196C174.15 195.06 175.99 193.43 182.03 187.32C190.96 178.28 191.38 177.58 191.39 172C191.4 168.46 191.31 168.04 190.09 165.78C189.16 164.07 186.95 161.54 182.49 157.09L176.19 150.8L160.6 166.41L145 182.02L151.6 188.56C155.23 192.15 158.83 195.42 159.6 195.82C163.42 197.82 168.27 197.89 172.2 196M121.6 96.25C84.7 59.4 75.41 50.32 73.8 49.55C71.82 48.61 71.65 48.6 57.1 48.48L42.4 48.36L42.4 61.13C42.4 74.35 42.63 76.92 44.06 79.99C44.71 81.37 55.7 92.61 90.55 127.5L136.2 173.2L151.8 157.6L167.4 142L121.6 96.25" />
    <glyph glyph-name="facebook"
      unicode="&#xEA0F;"
      horiz-adv-x="240" d="M110.4 202.75C72.74 198.42 42.79 169.03 37.4 131.12C36.64 125.77 36.64 114.23 37.4 108.88C42.36 74 67.81 46.34 102.04 38.64C104.54 38.08 106.72 37.76 106.89 37.93C107.07 38.11 107.16 51.2 107.1 67.02L107 95.8L96.5 95.91L86 96.01L86 108.01L86 120L96.6 120L107.2 120L107.21 131.9C107.21 142.12 107.32 144.34 107.99 147.6C109.77 156.26 115.19 163.61 122.4 167.14C126.61 169.2 130.99 170.33 135.98 170.65C139.83 170.9 148.79 170.35 154.26 169.54L157.21 169.1L157.11 158.85L157 148.6L149.2 148.4C141.69 148.2 141.32 148.15 139.34 147.11C138.21 146.52 136.64 145.27 135.84 144.33C133.44 141.54 133.11 139.82 132.9 129.3L132.72 120L144.36 120C150.76 120 156 119.86 156 119.69C156 119.23 152.83 98.37 152.57 97.11L152.34 96.01L142.67 95.91L133 95.8L132.9 67.02C132.84 51.2 132.93 38.11 133.11 37.93C133.57 37.47 141.82 39.43 147.13 41.26C171.33 49.61 190.49 68.75 198.72 92.8C201.87 102.02 203.2 109.97 203.2 119.66C203.2 129.88 202.05 137.11 198.96 146.4C188.71 177.21 161.47 199.16 129 202.79C124.77 203.26 114.67 203.24 110.4 202.75" />
    <glyph glyph-name="github"
      unicode="&#xEA10;"
      horiz-adv-x="240" d="M112.8 209.75C108.23 209.33 101.79 208.25 97.5 207.19C72.77 201.02 51.04 183.62 39.61 160.8C22.19 126.04 28.86 85 56.38 57.6C65.31 48.72 74.85 42.39 86.26 37.79C90.81 35.95 92.22 35.72 93.22 36.61C93.95 37.28 94 37.9 94 46.62L94 55.91L87.5 56.1C81.82 56.26 80.63 56.42 78.02 57.33C74.34 58.62 71.15 60.78 69.11 63.37C67.23 65.74 66.44 67.26 65.04 71.16C63.69 74.92 62.23 76.74 58.44 79.4C54.42 82.22 53.29 83.42 53.85 84.31C54.09 84.68 55.07 85.22 56.04 85.51C60.95 86.98 66.4 83.52 72.88 74.82C75.98 70.65 78.02 69.06 81.68 67.95C84.09 67.21 85.11 67.12 88.75 67.32C94.58 67.64 94.56 67.63 95.6 70.54C96.6 73.3 98.26 76.2 100.25 78.63L101.59 80.27L98.35 80.96C79.63 84.98 67.12 95.96 63.1 111.89C62.35 114.86 62.22 116.5 62.21 122.6C62.21 128.96 62.32 130.2 63.16 133.2C64.4 137.67 67.1 143.3 69.56 146.54L71.53 149.16L70.93 151.08C70.11 153.67 69.78 161.99 70.36 165.33C70.61 166.79 71.19 169.18 71.64 170.64L72.46 173.3L75.64 173.02C81.67 172.49 88.62 169.87 94.5 165.89L97.21 164.06L100.86 164.81C107.13 166.1 111.94 166.53 119.8 166.54C127.71 166.54 132.41 166.1 138.74 164.79L142.48 164.01L146.25 166.37C152.68 170.4 158.6 172.47 163.98 172.55L166.95 172.6L167.85 169.76C169.71 163.85 169.98 157.07 168.57 151.53L167.99 149.26L170.21 146.17C172.96 142.34 174.83 138.48 176.22 133.8C177.64 129.02 178.02 120.1 177.05 114.54C175.31 104.57 170.15 96.09 162.07 89.96C157.09 86.18 149.14 82.73 141.4 80.97C139.64 80.58 138.12 80.19 138.03 80.12C137.94 80.05 138.31 79.5 138.87 78.9C141.54 76 144.06 70.94 144.77 67.03C145.02 65.65 145.2 59.25 145.2 51.79C145.2 38.05 145.37 36.57 147.02 36.16C148.82 35.71 157.79 39.39 164.61 43.38C173.52 48.59 183.26 56.9 189.48 64.6C200.03 77.66 206.75 93.65 208.82 110.6C209.54 116.53 209.36 127.02 208.43 133.42C202.7 172.57 172.28 202.96 132.8 208.98C128.7 209.61 116.39 210.08 112.8 209.75" />
    <glyph glyph-name="information-filled"
      unicode="&#xEA11;"
      horiz-adv-x="240" d="M111.2 219.61C93.16 217.8 77.07 211.93 62.8 201.94C27.38 177.14 11.78 132.41 24.22 91.35C29.18 75.01 37.28 61.5 49.39 49.39C59.28 39.5 70.38 32.12 82.72 27.22C116.34 13.9 153.13 19.2 182 41.55C186.37 44.93 195.07 53.63 198.45 58C212.55 76.21 220 97.66 220 120C220 165.68 188.42 206.13 144.3 216.97C134.46 219.38 120.28 220.52 111.2 219.61M126.13 168.29C135.24 163.3 134.9 150.52 125.52 145.52C124.07 144.75 123.19 144.6 120 144.6C116.81 144.6 115.93 144.75 114.48 145.52C110.24 147.78 107.67 151.57 107.31 156.13C106.91 161.08 109.34 165.77 113.53 168.12C116.35 169.7 117.67 170 120.93 169.81C123.08 169.68 124.18 169.36 126.13 168.29M127.96 133.44C128.8 132.68 128.8 132.66 128.8 102.14C128.8 72.13 128.79 71.59 128 70.8C127.26 70.06 126.67 70 120 70C113.33 70 112.74 70.06 112 70.8C111.21 71.59 111.2 72.13 111.2 102.14C111.2 130.72 111.24 132.72 111.9 133.29C113.07 134.31 113.57 134.37 120.46 134.28C126.38 134.21 127.21 134.12 127.96 133.44" />
    <glyph glyph-name="information"
      unicode="&#xEA12;"
      horiz-adv-x="240" d="M111.2 219.61C80.2 216.51 53.61 200.61 36.59 175C10.48 135.72 15.68 83.33 49 49.78C58.78 39.93 69.84 32.5 82.2 27.46C119.58 12.21 162.03 20.8 190.62 49.38C234.45 93.22 228.34 165.58 177.78 201.47C164.79 210.7 150.94 216.3 134.93 218.81C129.09 219.73 116.6 220.15 111.2 219.61M131.08 204.18C162.91 200.04 189.85 178.01 200.32 147.58C206.41 129.86 206.37 109.7 200.2 92.03C192.84 70.97 177.42 53.59 157.4 43.78C145.2 37.8 133.64 35.13 120 35.13C109.63 35.13 102.06 36.38 92.4 39.68C65.04 49.02 43.82 72.48 37.27 100.6C34.52 112.43 34.52 127.57 37.27 139.4C44.51 170.49 69.72 195.64 100.8 202.77C109.69 204.81 121.92 205.38 131.08 204.18M116.89 167.44C108.33 164.65 107.63 152.74 115.8 148.94C119.45 147.24 124.03 147.97 126.94 150.72C130.5 154.1 130.91 160.15 127.85 164.17C125.64 167.07 120.49 168.61 116.89 167.44M116.99 133.04C115.31 132.31 113.32 129.91 112.8 128.02C112.52 126.94 112.41 118.86 112.49 103.31L112.6 80.2L113.72 78.3C115.52 75.24 118.74 73.98 122.2 74.98C124.64 75.69 126.51 77.53 127.2 79.89C127.51 80.94 127.61 88.67 127.52 105.03L127.4 128.66L126.33 130.28C124.44 133.14 120.13 134.41 116.99 133.04" />
    <glyph glyph-name="log-out"
      unicode="&#xEA13;"
      horiz-adv-x="240" d="M84.2 201.94C81.56 201.75 77.15 201.22 74.4 200.76C54.29 197.44 49.3 189.36 48.01 158C47.5 145.9 47.5 102.65 48.01 90.2C49.3 57.91 53.76 51.32 76.19 48.5C84.38 47.48 115.25 47.48 123.4 48.51C135.53 50.04 142.88 52.83 146.55 57.31C150.45 62.07 152.38 70.27 152.41 82.14C152.42 85.21 152.6 86.59 153.15 87.82C154.1 89.9 156.01 91.49 158.23 92.05L160 92.49L160 124.96L160 157.43L158.22 157.91C157.24 158.17 155.82 158.94 155.05 159.61C152.78 161.61 152.47 163.08 152.26 173.2C152.04 183.38 151.51 186.76 149.52 190.49C148.83 191.79 147.52 193.49 146.63 194.26C141.84 198.36 131.74 200.91 116.07 201.98C108.94 202.47 91.15 202.44 84.2 201.94M187.6 124L187.6 107.8L195.7 115.9L203.8 124L195.7 132.1L187.6 140.2L187.6 124" />
    <glyph glyph-name="logout"
      unicode="&#xEA14;"
      horiz-adv-x="240" d="M87.86 217.2C67.49 216.19 55.47 212.54 47.13 204.84C42.48 200.55 39.59 195.89 37.25 188.9C33.18 176.73 32.16 160.98 32.53 115.6C32.74 89.32 32.99 82.27 34.03 73.8C36.87 50.75 45.72 39.71 64.97 35.19C72.52 33.42 85.13 32.42 99.8 32.41C124.74 32.41 139.91 34.98 150.2 40.97C154.04 43.21 159.34 48.58 161.48 52.4C163.49 55.98 165.34 61.35 166.18 66.01C166.98 70.47 167.81 83.3 167.45 85.67C166.54 91.63 159.7 94.32 155.16 90.51C153.04 88.72 152.42 86.8 152.41 81.97C152.4 76.4 151.71 69.76 150.76 66.01C147.98 55.13 141.49 50.93 123.71 48.52C116.13 47.49 82.87 47.49 75.6 48.51C68.75 49.48 64.78 50.53 60.94 52.41C53.07 56.25 50.13 62.98 48.37 81.2C47.71 87.98 47.41 147.06 47.97 158.51C48.98 178.89 51.25 187.7 56.97 193.44C63.14 199.62 73.02 201.88 95.8 202.28C128.7 202.87 145.44 199.15 149.78 190.28C151.56 186.65 152.04 183.36 152.26 173.4C152.37 168.34 152.64 163.61 152.86 162.89C153.75 160.02 157 157.62 160 157.62C163.19 157.62 166.36 160.12 167.24 163.32C167.85 165.52 167.44 180.4 166.63 185.6C165.37 193.71 162.66 199.43 157.8 204.25C150.52 211.45 139.12 215.25 120.2 216.77C113.05 217.35 95.53 217.58 87.86 217.2M183.55 156.85C180.63 155 179.36 151.39 180.54 148.3C181.03 147.03 183.08 144.71 188.6 139.2C192.67 135.14 196 131.67 196 131.5C196 131.34 178.4 131.2 156.88 131.2L117.76 131.2L115.95 130.05C110.96 126.89 111.54 119.62 116.98 117.15C118.52 116.46 120.62 116.42 157.38 116.41L196.16 116.4L188.52 108.7C180.69 100.8 179.99 99.82 180.01 96.8C180.02 95.43 181.29 92.79 182.45 91.72C183.7 90.57 186.06 89.6 187.6 89.6C190.35 89.6 191.64 90.67 205.78 104.72C213.47 112.35 220.18 119.18 220.69 119.89C221.2 120.6 221.72 121.97 221.85 122.94C222.34 126.51 222.17 126.73 207.25 141.75C199.63 149.42 192.6 156.21 191.62 156.85C189.12 158.47 186.1 158.47 183.55 156.85" />
    <glyph glyph-name="minus"
      unicode="&#xEA15;"
      horiz-adv-x="240" d="M51.75 129.53C50.24 128.8 50 127.5 50 120.16C50 113.26 50.01 113.15 50.98 112.18L51.96 111.2L117.51 111.2L183.06 111.2L184.03 112.23C184.98 113.25 185 113.38 185 120.67L185 128.07L183.88 129.03L182.76 130L117.68 129.97C73.73 129.95 52.32 129.81 51.75 129.53" />
    <glyph glyph-name="percentage"
      unicode="&#xEA16;"
      horiz-adv-x="240" d="M73.76 179.63C66.03 178.39 58.23 172.86 54.68 166.09C51.6 160.23 50.41 155.34 50.12 147.4C49.67 134.78 52.94 125.35 60.14 118.51C65.05 113.85 71 111.59 78.36 111.61C85.92 111.62 91.59 113.71 96.42 118.28C103.43 124.89 106.78 133.56 106.83 145.2C106.84 148.18 106.65 151.87 106.4 153.4C103.92 169.13 93.71 179.28 79.86 179.8C77.62 179.89 74.88 179.81 73.76 179.63M111.88 116.1L68.79 53L74.05 52.89C76.94 52.83 79.35 52.83 79.4 52.89C80.32 54.06 164.9 178.19 165.06 178.6C165.25 179.11 164.53 179.2 160.13 179.2L154.97 179.2L111.88 116.1M84.19 170.93C90.1 169.13 94.97 163.18 96.79 155.54C99.03 146.16 97.79 134.97 93.78 128.37C86.21 115.91 68.43 116.88 62.2 130.09C60.06 134.62 59.53 137.14 59.31 143.8C59.08 150.52 59.52 154.29 61.01 158.58C62.16 161.89 65.07 166.31 67.21 168.01C71.74 171.59 78.32 172.73 84.19 170.93M148.89 119.62C144.09 118.32 140.63 116.26 136.75 112.42C133.84 109.53 133.02 108.41 131.47 105.2C129.16 100.42 128.12 96.61 127.54 90.9C127.04 85.95 127.48 79.4 128.61 74.99C132.28 60.7 142.5 52.04 155.72 52.01C171.51 51.97 182.22 63.17 184.08 81.67C184.96 90.33 183.41 98.95 179.69 106.18C176.54 112.29 170.8 117.2 164.4 119.26C160.53 120.5 152.8 120.68 148.89 119.62M159.68 111.96C166.56 110.52 172.3 104.13 174.27 95.7C175.27 91.46 175.26 80.66 174.26 76.61C171.44 65.2 162.72 58.6 152.81 60.37C145.23 61.73 139.93 67.11 137.52 75.88C136.8 78.53 136.67 80.08 136.67 86.2C136.67 92.32 136.8 93.87 137.52 96.52C140.67 108.01 149.41 114.1 159.68 111.96" />
    <glyph glyph-name="plus"
      unicode="&#xEA17;"
      horiz-adv-x="240" d="M111.78 199.02L110.8 198.04L110.8 163.62L110.8 129.2L76.38 129.2L41.96 129.2L40.98 128.22C40.01 127.25 40 127.15 40 120C40 112.85 40.01 112.75 40.98 111.78L41.96 110.8L76.38 110.8L110.8 110.8L110.8 76.38L110.8 41.96L111.78 40.98C112.75 40.01 112.85 40 120 40C127.15 40 127.25 40.01 128.22 40.98L129.2 41.96L129.2 76.38L129.2 110.8L163.62 110.8L198.04 110.8L199.02 111.78C199.99 112.75 200 112.85 200 120C200 127.15 199.99 127.25 199.02 128.22L198.04 129.2L163.62 129.2L129.2 129.2L129.2 163.62L129.2 198.04L128.22 199.02C127.25 199.99 127.15 200 120 200C112.85 200 112.75 199.99 111.78 199.02" />
    <glyph glyph-name="profile"
      unicode="&#xEA18;"
      horiz-adv-x="240" d="M111.2 219.61C106.15 219.1 100.31 218.1 95.8 216.97C58.41 207.57 29.56 177.36 22.01 139.68C16.37 111.56 22.95 82.9 40.34 59.8C42.74 56.61 44.14 55.03 49.17 49.79C72.3 25.66 107.83 14.99 140.8 22.25C160.75 26.65 177.81 36.17 191.6 50.61C204.64 64.25 212.64 78.6 216.99 96.12C218.88 103.77 219.56 108.55 219.86 116.4C221.66 163.39 190.03 205.41 144.17 216.98C134.72 219.36 120.26 220.51 111.2 219.61M131.08 204.18C169.12 199.23 199.23 169.12 204.18 131.08C204.97 125.03 204.97 114.96 204.18 108.92C201.95 91.84 194.4 75.67 182.47 62.47L180.54 60.33L177.77 63.21C167.91 73.45 152.26 80.45 133.4 83.07C126.77 83.99 113.08 83.98 106.6 83.05C87.97 80.38 73.18 73.92 63.21 64.1L59.43 60.37L57.52 62.48C45.61 75.66 38.04 91.85 35.82 108.92C35.03 114.96 35.03 125.03 35.82 131.08C40.75 168.96 70.75 199.08 108.6 204.18C114.19 204.93 125.33 204.93 131.08 204.18M115.55 170.41C109.82 169.69 103.39 167.25 98.42 163.9C95.35 161.83 89.95 155.99 87.85 152.48C79.16 137.93 81.28 119.37 93 107.39C99.59 100.66 107.04 97.08 116.73 96C123.18 95.28 129.38 96.4 135.95 99.45C148.43 105.26 156.24 116.73 157.43 131.01C157.99 137.71 155.9 146.2 152.15 152.48C150.05 155.99 144.65 161.83 141.58 163.9C134.08 168.96 124.06 171.46 115.55 170.41" />
    <glyph glyph-name="reddit"
      unicode="&#xEA19;"
      horiz-adv-x="240" d="M178.2 199.47C175.34 198.51 173.42 197.31 171.56 195.33C170.56 194.27 169.55 193.04 169.31 192.61C168.89 191.86 168.33 191.95 151.4 195.55C136 198.83 133.79 199.21 132.75 198.78C132.1 198.51 131.36 197.91 131.11 197.45C130.86 196.98 128.29 185.53 125.4 172L120.16 147.41L114.55 146.94C107.79 146.39 104.47 145.9 98.4 144.55C86.93 142.01 75.34 137.2 66.63 131.36L64.67 130.04L63.23 131.17C55.11 137.56 43.36 136.9 36.1 129.64C28.04 121.57 28 108.86 36.03 100.83C37.28 99.58 39.09 98.15 40.05 97.64L41.8 96.71L41.83 90.45C41.86 85.03 42 83.68 42.91 80.29C45.03 72.38 49.09 65.46 55.6 58.66C82.47 30.6 138.12 24.92 175.59 46.41C188.92 54.06 198.7 64.87 202.9 76.6C204.64 81.43 205.26 85.49 205.16 91.21L205.07 96.4L207.44 97.94C218.64 105.22 220.28 120.21 210.91 129.56C205.7 134.76 198.88 136.69 191.69 135C188.73 134.3 186.82 133.38 184.24 131.41L182.35 129.97L179.28 132.01C175.42 134.56 166.23 139.1 161.1 140.98C153.1 143.92 143.21 146.02 133.44 146.86C128.52 147.29 127.63 147.47 127.78 147.98C127.88 148.32 129.98 158.14 132.44 169.8C134.91 181.46 136.94 191.03 136.97 191.07C137.04 191.19 166.88 184.8 167.2 184.6C167.36 184.5 167.59 183.71 167.7 182.84C168.27 178.6 171.62 174.23 175.91 172.12C177.93 171.13 178.64 171 182 171C185.35 171 186.07 171.14 188.09 172.12C199.31 177.62 199.32 193.22 188.12 198.49C185.15 199.88 180.75 200.32 178.2 199.47M96.87 114.08C101.36 112.05 104.3 108.55 105.46 103.84C107.07 97.34 103.83 90.54 97.69 87.51C95.27 86.32 94.68 86.2 91.41 86.2C88.29 86.2 87.47 86.35 85.4 87.32C82.36 88.74 79.88 91.14 78.28 94.2C77.14 96.39 77.03 96.94 77.02 100.4C77 103.69 77.14 104.5 78.05 106.45C79.96 110.51 83.41 113.5 87.57 114.68C90.02 115.37 94.67 115.08 96.87 114.08M159.63 114.56C164.04 113.27 167.02 110.63 169.05 106.21C169.9 104.35 170.09 103.33 170.1 100.57C170.11 97.47 169.99 96.94 168.65 94.22C166.98 90.85 164.97 88.86 161.6 87.25C159.7 86.34 158.88 86.2 155.6 86.2C152.28 86.2 151.52 86.34 149.58 87.29C146.76 88.68 143.88 91.56 142.49 94.39C141.52 96.35 141.4 97.06 141.4 100.6C141.4 105.38 142.1 107.26 145.06 110.43C148.93 114.56 154.37 116.1 159.63 114.56M94.66 66.78C97.21 64.65 102.14 62.26 106.56 61C121.29 56.82 142.14 59.01 150.75 65.65C154.96 68.89 156.12 69.14 158.03 67.23C158.91 66.35 159.2 65.69 159.2 64.55C159.2 63.22 158.91 62.76 156.94 60.89C154.27 58.37 148.33 55.33 143.2 53.86C129.94 50.07 113.44 50.44 101 54.8C94.93 56.93 89.5 60.46 88.19 63.12C86.98 65.59 88.78 68.34 91.66 68.38C92.32 68.39 93.43 67.8 94.66 66.78" />
    <glyph glyph-name="refresh"
      unicode="&#xEA1A;"
      horiz-adv-x="240" d="M112 209.75C89.63 207.71 70.66 198.85 55.31 183.3C30.67 158.33 23.27 120.6 36.62 87.89C47.15 62.07 69.75 42.41 96.73 35.58C104.85 33.53 109.3 33.02 118.8 33.04C128.25 33.06 132.35 33.54 140.44 35.59C168.62 42.74 191.58 63.46 201.79 90.96C203.52 95.61 203.66 97.06 202.49 98.01C201.77 98.59 198.52 99.6 190.68 101.67C187.63 102.48 187 101.9 184.96 96.53C177.04 75.58 160.27 59.93 138.8 53.47C131.31 51.21 127.24 50.65 118.6 50.66C109.85 50.68 104.84 51.41 97.2 53.81C91.35 55.64 82.49 60.03 77.64 63.5C52.23 81.69 41.62 113.88 51.24 143.6C52.92 148.81 57.46 157.82 60.7 162.4C64.15 167.29 72.71 175.85 77.6 179.3C82.18 182.54 91.19 187.08 96.4 188.76C122.51 197.21 150.78 190.16 169.64 170.51C173.08 166.92 177.6 161.2 177.6 160.43C177.6 160.14 175.18 160 170.1 159.99C165.98 159.99 162.4 159.86 162.16 159.69C161.04 158.95 160.8 157.45 160.8 151.2L160.8 144.74L161.99 143.55L163.17 142.37L184.09 142.48L205 142.6L206.61 143.52C207.49 144.03 208.66 145.09 209.21 145.89L210.2 147.34L210.31 168.68L210.42 190.02L209.43 191.01C208.45 191.99 208.36 192 201.52 191.99C195.98 191.98 194.44 191.85 193.8 191.37C193.05 190.8 192.99 190.17 192.8 180.51L192.6 170.24L190.4 173.28C178.35 189.9 160.41 202.13 140.7 207.16C138.22 207.8 134.13 208.61 131.6 208.98C127.13 209.63 115.64 210.09 112 209.75" />
    <glyph glyph-name="right-arrow"
      unicode="&#xEA1B;"
      horiz-adv-x="240" d="M97.15 198.18C93.95 197.19 91.2 193.41 91.2 190C91.2 186.56 90.12 187.74 127.23 150.6C146.57 131.24 162.4 115.22 162.4 115C162.4 114.78 146.57 98.76 127.23 79.4C90.12 42.26 91.2 43.44 91.2 40C91.2 35.51 95.52 31.21 100.03 31.2C103.48 31.19 102.29 30.09 145.91 73.71L187.2 115.01L145.7 156.45C106.33 195.77 104.1 197.92 102.32 198.35C100 198.91 99.47 198.89 97.15 198.18" />
    <glyph glyph-name="search"
      unicode="&#xEA1C;"
      horiz-adv-x="240" d="M102.84 209.54C80.64 207.22 59.79 194.8 46.2 175.8C30.01 153.15 25.65 123.36 34.62 96.53C44.75 66.2 70.09 44.52 100.45 40.2C105.92 39.43 116.17 39.43 121.55 40.22C137.51 42.55 152.03 49.41 163.95 60.24L166.51 62.57L167.75 61.12C168.44 60.33 175 53.37 182.34 45.67C190.68 36.91 196.22 31.4 197.12 30.97C202.94 28.21 209.28 32.08 209.89 38.75C210.28 43.02 209.88 43.54 193.11 61.18L178.11 76.97L179.72 79.58C187.23 91.78 192 109.15 192 124.31C192 175.03 150.67 214.54 102.84 209.54M123 189.8C134.99 187.34 145.05 181.8 154.23 172.63C160.09 166.77 163.7 161.76 167.08 154.79C175.67 137.12 176.18 115.56 168.46 97.63C162.2 83.13 151.34 71.5 137.8 64.83C128.44 60.21 121.57 58.63 111 58.63C103.04 58.63 99.5 59.14 92.81 61.28C76.19 66.59 62.37 78.91 54.56 95.4C45.84 113.77 45.94 136.08 54.82 154.64C58.07 161.43 61.9 166.76 67.77 172.63C76.95 181.8 86.98 187.32 99 189.81C105.64 191.18 116.31 191.18 123 189.8" />
    <glyph glyph-name="tab"
      unicode="&#xEA1D;"
      horiz-adv-x="240" d="M44.67 189.35C41.01 188.23 38 184.01 38 180C38 177.58 39.19 174.79 40.99 172.99C44.23 169.75 37.65 170 119 170C200.35 170 193.77 169.75 197.01 172.99C200.92 176.9 200.92 183.1 197.01 187.01C193.77 190.25 200.36 190 119.03 189.97C56.19 189.95 46.34 189.87 44.67 189.35M44.67 129.35C41.01 128.23 38 124.01 38 120C38 117.58 39.19 114.79 40.99 112.99C44.23 109.75 37.65 110 119 110C200.35 110 193.77 109.75 197.01 112.99C200.92 116.9 200.92 123.1 197.01 127.01C193.77 130.25 200.36 130 119.03 129.97C56.19 129.95 46.34 129.87 44.67 129.35M107.6 69.63C102.96 68.22 99.41 63.07 100.19 58.9C100.92 55 103.84 51.46 107.11 50.48C108.29 50.12 119.26 50 150.08 50C196.62 50 193.84 49.82 197.01 52.99C200.92 56.9 200.92 63.1 197.01 67.01C193.84 70.18 196.64 70 150.03 69.97C127.24 69.95 108.15 69.79 107.6 69.63" />
    <glyph glyph-name="telegram"
      unicode="&#xEA1E;"
      horiz-adv-x="240" d="M188.26 195.53C182.4 194.74 173.94 191.69 146.6 180.5C118.83 169.14 34.61 132.96 27.32 129.25C20.84 125.96 18.71 122.72 20.78 119.32C21.96 117.4 25.02 115.87 33 113.22C48.41 108.1 58.56 105.6 63.92 105.6C70.72 105.6 74.48 107.35 89.93 117.72C115.77 135.05 142.6 152.87 146.95 155.59C151.06 158.15 151.72 158.44 153.27 158.32C154.72 158.22 155.08 158.02 155.54 157.05C155.94 156.22 155.98 155.67 155.67 155C154.54 152.52 145.78 143.84 119 118.72C106.09 106.6 101.18 101.7 99.71 99.46C97.12 95.51 97.66 91.96 101.4 88.22C102.68 86.93 111.99 80.4 125.25 71.48C137.21 63.43 148.98 55.46 151.4 53.79C158.91 48.58 163.17 46.8 168.15 46.8C173.97 46.8 177.1 49.9 179.74 58.27C182.09 65.75 193.76 135.06 198.25 168.2C200.12 182.06 200.29 188.8 198.84 191.75C198.04 193.37 197.54 193.85 195.84 194.61C193.37 195.71 191.36 195.95 188.26 195.53" />
    <glyph glyph-name="tick-filled"
      unicode="&#xEA1F;"
      horiz-adv-x="240" d="M111.2 219.61C93.16 217.8 77.07 211.93 62.8 201.94C27.38 177.14 11.78 132.41 24.22 91.35C29.18 75.01 37.28 61.5 49.39 49.39C59.28 39.5 70.38 32.12 82.72 27.22C116.34 13.9 153.13 19.2 182 41.55C186.37 44.93 195.07 53.63 198.45 58C212.55 76.21 220 97.66 220 120C220 165.68 188.42 206.13 144.3 216.97C134.46 219.38 120.28 220.52 111.2 219.61M167.68 152.88C171.92 148.65 172.8 147.56 172.8 146.59C172.8 145.56 168.92 141.53 142.7 115.28C126.15 98.71 112.09 84.88 111.48 84.55C110.11 83.83 106.84 83.75 105.54 84.4C105.03 84.67 96.18 93.28 85.9 103.54C69.78 119.63 67.2 122.36 67.2 123.36C67.2 124.32 68.08 125.42 72.05 129.43C74.72 132.13 77.33 134.45 77.86 134.58C78.38 134.71 79.22 134.62 79.71 134.37C80.2 134.12 86.85 127.68 94.5 120.06L108.4 106.21L134.31 132.1C156.83 154.62 160.37 158 161.39 158C162.36 158 163.45 157.12 167.68 152.88" />
    <glyph glyph-name="tick"
      unicode="&#xEA20;"
      horiz-adv-x="240" d="M87.98 208.69C87.55 207.98 83.67 201.46 79.36 194.2L71.53 180.99L55.36 177.41L39.2 173.84L39.2 172.42C39.2 171.64 39.83 164.46 40.6 156.48C41.37 148.49 42 141.55 42 141.07C42 140.48 38.3 135.95 31.01 127.62C21.82 117.1 20.11 114.95 20.51 114.45C20.78 114.12 25.72 108.44 31.5 101.84C38.48 93.86 42 89.53 42 88.94C42 88.45 41.37 81.51 40.6 73.52C39.83 65.54 39.2 58.35 39.2 57.57L39.2 56.13L55.1 52.62C65.5 50.32 71.22 48.88 71.65 48.45C72 48.09 75.85 41.77 80.19 34.4C84.54 27.03 88.3 20.79 88.55 20.53C88.89 20.18 92.04 21.36 101.6 25.46C108.53 28.43 115.39 31.36 116.85 31.99L119.49 33.12L134.83 26.57C143.26 22.97 150.25 20.12 150.36 20.23C150.47 20.33 154.37 26.84 159.02 34.69L167.49 48.96L183.65 52.53C192.53 54.5 199.86 56.16 199.94 56.23C200.02 56.3 199.43 63.25 198.63 71.68C197.84 80.1 197.14 87.63 197.09 88.4C197.01 89.71 197.73 90.63 207.8 102.13C213.74 108.91 218.6 114.7 218.6 115C218.6 115.3 213.74 121.09 207.8 127.87C197.73 139.37 197.01 140.29 197.09 141.6C197.14 142.37 197.84 149.9 198.63 158.32C199.43 166.75 200.02 173.7 199.94 173.77C199.86 173.84 192.53 175.5 183.65 177.47L167.49 181.04L158.95 195.42C154.09 203.61 150.19 209.76 149.9 209.7C149.62 209.65 142.68 206.74 134.47 203.24L119.55 196.87L107.07 202.18C100.21 205.1 93.29 208.05 91.69 208.73L88.77 209.98L87.98 208.69M154.74 140.63C158.07 137.23 160.8 134.3 160.8 134.12C160.8 133.94 149.37 122.37 135.4 108.4L110 83L94 99L78 115.01L84.3 121.3L90.6 127.59L100.33 118.13L110.07 108.67L129.13 127.73C139.62 138.22 148.31 146.8 148.44 146.8C148.57 146.8 151.4 144.02 154.74 140.63" />
    <glyph glyph-name="time-clock"
      unicode="&#xEA21;"
      horiz-adv-x="240" d="M115.2 209.59C93.62 207.34 74.77 198.79 59.36 184.25C30.84 157.35 22.15 115.43 37.61 79.33C49.5 51.57 74.61 30.91 104.14 24.62C111.47 23.05 115.79 22.62 124 22.63C138.9 22.65 151.65 25.62 165 32.2C190.02 44.53 208.08 66.96 214.75 94.02C216.74 102.1 217.36 107.27 217.37 116C217.37 120.29 217.14 125.51 216.85 127.6C213.94 148.81 204.65 167.79 190.02 182.42C175.73 196.72 157.24 206.02 137.2 209C132.13 209.75 119.9 210.08 115.2 209.59M132.32 196.38C150.86 194.36 167.88 186.15 180.89 172.95C187.78 165.95 192.05 159.95 196.23 151.4C211.55 120 204.84 82.53 179.53 58.19C169.11 48.17 157.59 41.73 143.71 38.17C119.27 31.9 93.89 37.29 73.8 53C70.12 55.89 63.28 62.69 60.55 66.2C48.55 81.63 42.7 99.46 43.32 118.8C43.56 126.51 44.23 130.97 46.21 138.2C50.31 153.16 59.68 167.73 71.56 177.65C84.43 188.39 99.8 194.92 116 196.53C119.28 196.86 128.73 196.77 132.32 196.38M118.64 161.6C117.13 161.13 115.24 159.33 114.55 157.71C114.11 156.68 114 152.62 114 137.08C114 119.26 114.06 117.49 114.77 114.71C116.17 109.26 119.7 103.59 123.48 100.72C124.55 99.91 131.81 95.43 139.62 90.77C155.24 81.44 155.76 81.22 158.87 82.75C163.01 84.76 163.94 90.01 160.71 93.06C159.99 93.74 153.18 97.99 145.57 102.51C131.47 110.89 130.13 111.89 128.3 115.31C127.41 116.98 127.4 117.19 127.2 137.2C127.01 156.5 126.96 157.46 126.2 158.73C124.74 161.15 121.32 162.45 118.64 161.6" />
    <glyph glyph-name="twitter"
      unicode="&#xEA22;"
      horiz-adv-x="240" d="M42.09 196.9C54.71 178.79 100.83 111.11 100.73 110.85C100.66 110.66 94.74 103.69 87.57 95.36C80.41 87.02 66.77 71.16 57.27 60.1L39.98 40L46.89 40.01L53.8 40.01L80.4 70.99C100.66 94.58 107.11 101.85 107.45 101.48C107.7 101.22 117.3 87.27 128.78 70.5L149.66 40L172.83 40C185.57 40 196 40.09 196 40.2C196 40.3 181.86 61.02 164.58 86.23C147.29 111.43 133.21 132.2 133.28 132.38C133.37 132.62 169.03 174.21 188.94 197.29L191.27 200L184.34 199.98L177.4 199.97L153 171.55C139.58 155.92 128.23 142.68 127.78 142.12L126.96 141.1L106.78 170.55L86.6 199.99L63.27 200L39.93 200L42.09 196.9M99.5 161.04C116.78 135.85 119.15 132.21 118.68 131.64C111.9 123.63 108.63 120.02 108.41 120.28C108.07 120.67 61.46 188.8 61.04 189.51C60.8 189.91 62.66 189.99 70.26 189.91L79.78 189.8L99.5 161.04M150.4 86.8C163.88 67.11 175.09 50.78 175.3 50.5C175.62 50.1 173.73 50 166.14 50L156.58 50L136.39 79.45C125.29 95.65 115.89 109.38 115.52 109.96L114.83 111.03L120.07 117.14C122.95 120.5 125.44 123.11 125.6 122.93C125.77 122.75 136.93 106.49 150.4 86.8" />
    <glyph glyph-name="upload-document"
      unicode="&#xEA23;"
      horiz-adv-x="240" d="M85.8 209.73C54.6 207.77 38.01 195.2 32.26 169.17C30.24 160.02 30.2 159.05 30.2 121.2C30.2 83.35 30.24 82.38 32.26 73.23C37.11 51.29 49.83 38.95 72.25 34.44C81.03 32.68 82.96 32.6 119 32.6C150.18 32.6 153.91 32.67 158.8 33.34C188.2 37.34 202.36 51.39 206.64 80.8C207.19 84.61 207.34 89.89 207.49 111.55C207.59 125.94 207.55 138.36 207.41 139.15C207.18 140.41 202.79 144.96 173.07 174.74C153.23 194.62 138.46 209.11 137.71 209.44C136.65 209.9 132.18 209.99 112.11 209.93C98.74 209.89 86.9 209.8 85.8 209.73M129.2 180.63C129.2 170.84 129.38 162.33 129.63 160.53C131.71 145.22 138.47 136.86 151.59 133.35C156.89 131.94 161.89 131.62 178.74 131.61L195.29 131.6L195.09 108.9C194.88 85.04 194.68 82.03 192.83 74.21C189.41 59.84 180.99 51.2 166.69 47.39C158.22 45.14 157.21 45.08 122.6 44.9C100.71 44.79 88.77 44.88 84.8 45.19C58.36 47.28 47.08 57.08 43.32 81.2C42.67 85.37 42.6 89.14 42.6 121.2C42.6 159.82 42.64 160.62 45 169.6C46.23 174.27 49.3 180.6 51.88 183.79C58.09 191.46 68.36 195.83 83.24 197.16C85.31 197.34 96.5 197.51 108.1 197.54L129.2 197.6L129.2 180.63M184.51 144.07C183.68 143.99 177.42 144.01 170.6 144.1C159.58 144.25 157.86 144.37 155.13 145.11C151.13 146.21 149.11 147.27 146.99 149.39C144.87 151.51 143.81 153.53 142.71 157.53C141.94 160.32 141.85 161.89 141.71 174.6L141.55 188.6L163.78 166.4L186.01 144.2L184.51 144.07M91.4 135.06C90.74 134.76 89.87 134.14 89.46 133.68C87.73 131.74 87.64 130.67 87.62 112.41L87.6 95.02L84.3 98.26C82.48 100.05 80.58 101.73 80.06 101.99C78.73 102.67 75.91 102.58 74.43 101.81C72.01 100.56 70.67 97.06 71.65 94.59C71.99 93.74 75.77 89.63 81.55 83.81C89.18 76.14 91.19 74.33 92.45 73.99C95.62 73.13 96.23 73.56 106.43 83.79C117.25 94.65 117.7 95.37 116.04 99.04C115.07 101.17 113.1 102.4 110.63 102.4C108.14 102.4 107.14 101.81 103.6 98.22L100.6 95.18L100.4 113.09C100.21 130.08 100.16 131.07 99.4 132.36C98.96 133.11 98.12 134.08 97.53 134.51C96.18 135.52 93.01 135.8 91.4 135.06" />
    <glyph glyph-name="upload"
      unicode="&#xEA24;"
      horiz-adv-x="240" d="M119.2 199.48C115.33 198.36 114.2 197.45 103.7 187.05C91.14 174.61 90.53 173.67 92.42 169.76C93.32 167.89 94.65 166.84 96.7 166.38C99.54 165.74 100.51 166.39 108.7 174.52L116.4 182.17L116.4 164.89L116.4 147.6L93.65 147.6C75 147.6 70.27 147.49 67.38 146.99C53.85 144.63 43.16 134.07 40.57 120.49C39.73 116.14 39.74 71.4 40.57 67.14C43.27 53.32 53.32 43.27 67.14 40.57C69.59 40.09 78.63 40 122.85 40C169.39 40 176 40.07 178.72 40.63C185.2 41.96 191.15 45.13 195.72 49.71C199.9 53.88 202.33 58.02 204.3 64.28L205.4 67.8L205.4 93.8L205.4 119.8L204.3 123.32C201.22 133.14 195.17 140.24 186.36 144.37C179.89 147.4 180.69 147.33 153.5 147.49L129.2 147.65L129.2 164.72L129.2 181.79L136.1 174.98C144.38 166.8 144.36 166.81 146.19 166.4C148.89 165.79 151.72 167.14 153.04 169.68C153.76 171.07 153.76 173.74 153.03 175.12C152.72 175.71 147.63 181.01 141.73 186.88C132.79 195.78 130.62 197.73 128.72 198.6C125.96 199.86 121.84 200.24 119.2 199.48M128.8 117.7C128.8 88.57 128.78 87.77 128 86.5C126.7 84.37 124.99 83.53 122.28 83.7C120.25 83.84 119.78 84.03 118.53 85.28C117.57 86.24 117 87.27 116.77 88.45C116.59 89.41 116.43 103.12 116.42 118.9L116.4 147.6L122.6 147.6L128.8 147.6L128.8 117.7" />
    <glyph glyph-name="wallet"
      unicode="&#xEA25;"
      horiz-adv-x="240" d="M122.8 220.05C118.57 218.9 44.88 190.87 41.56 189.15C33.57 185.01 27.73 177.7 25.12 168.6L24.2 165.4L24.2 110.4C24.2 55.47 24.2 55.4 25.06 52.2C27.26 43.95 30.73 37.78 36.25 32.26C42.15 26.37 49.38 22.48 57.47 20.83C61.46 20.01 62.46 20 120 20C177.54 20 178.54 20.01 182.53 20.83C190.89 22.53 198.07 26.49 204.02 32.67C207.97 36.77 209.34 38.65 211.52 43.02C214.61 49.24 216 55.46 216 63.15L216 67.8L217.82 68.77C220.38 70.13 223.74 73.9 224.87 76.69C225.78 78.95 225.8 79.29 225.8 92.4L225.8 105.8L224.57 108.4C223.16 111.36 220.54 114.19 217.9 115.59L216.09 116.55L215.9 124.17C215.74 130.21 215.53 132.45 214.86 134.93C210.7 150.39 199.75 161.47 184.47 165.7C181.67 166.47 180.15 166.56 167.34 166.7L153.27 166.86L153.09 183.73C152.89 202.43 152.86 202.72 150.12 208.17C147.35 213.69 140.89 218.74 134.76 220.19C131.35 220.99 126.04 220.93 122.8 220.05M134.25 207.69C136.89 206.32 138.27 204.93 139.58 202.32L140.8 199.87L140.8 183.35L140.8 166.83L99.7 166.71C58.88 166.59 58.58 166.58 55.53 165.72C48.93 163.85 43.07 160.74 38.04 156.45L35.88 154.6L36.09 159.6C36.25 163.46 36.51 165.15 37.21 167C39.22 172.31 42.66 176.24 47.37 178.62C48.92 179.41 67.3 186.52 88.2 194.43L126.2 208.81L129.4 208.67C131.67 208.58 133.08 208.29 134.25 207.69M183.4 153.48C188.15 151.81 191.78 149.5 195.41 145.84C197.97 143.25 199 141.84 200.51 138.8C203.1 133.59 203.62 131.31 203.89 123.9L204.11 117.6L196.16 117.59C187.28 117.59 184.19 117.13 180.24 115.27C166.79 108.92 161.55 92.92 168.7 80.02C170.48 76.81 174.6 72.68 178.01 70.69C179.43 69.86 182.04 68.7 183.8 68.12C186.77 67.14 187.63 67.05 195.56 66.89L204.12 66.72L203.88 61.66C203.52 54.13 202.06 49.64 198.2 44.2C194.01 38.29 187.56 34.14 180.2 32.6C175.93 31.71 63.45 31.72 59.6 32.61C48.5 35.19 40.61 42.56 37.14 53.61L36.2 56.6L36.2 93.2C36.2 122.45 36.31 130.24 36.74 132C37.03 133.21 38.14 136.01 39.2 138.21C43.14 146.41 50.49 152.23 59.4 154.21C61.35 154.64 72.94 154.73 121 154.67L180.2 154.6L183.4 153.48M71.31 126.42C66.55 125.27 65.1 119.79 68.64 116.36L70.04 115L105.32 114.9C139.97 114.8 140.62 114.81 141.9 115.59C145.67 117.9 145.75 123.4 142.06 125.69L140.6 126.6L106.6 126.66C87.9 126.7 72.02 126.59 71.31 126.42M212.85 104.41L214.04 103.23L213.92 92.02C213.8 80.98 213.79 80.81 212.89 79.91C212 79.02 211.79 79 201.49 78.87C190.48 78.73 188.02 78.98 185.04 80.48C182.46 81.8 179.8 84.59 178.6 87.26C177.62 89.45 177.52 90.06 177.68 92.96C177.94 97.56 180.12 101.32 183.87 103.64C186.69 105.39 188.02 105.55 200.13 105.57L211.66 105.6L212.85 104.41" />
  </font>
</defs>
</svg>
