<svg xmlns="http://www.w3.org/2000/svg" xmlns:xlink="http://www.w3.org/1999/xlink" width="0" height="0" style="display:none;"><symbol viewBox="0 0 24 24" id="tmrwdao-icon-arrow"><path d="M9.715 4.182 C 9.395 4.281,9.120 4.659,9.120 5.000 C 9.120 5.344,9.012 5.226,12.723 8.940 C 14.657 10.876,16.240 12.478,16.240 12.500 C 16.240 12.522,14.657 14.124,12.723 16.060 C 9.012 19.774,9.120 19.656,9.120 20.000 C 9.120 20.449,9.552 20.879,10.003 20.880 C 10.348 20.881,10.229 20.991,14.591 16.629 L 18.720 12.499 14.570 8.355 C 10.633 4.423,10.410 4.208,10.232 4.165 C 10.000 4.109,9.947 4.111,9.715 4.182 " fill="currentColor" stroke="none" fill-rule="evenodd"></path></symbol><symbol viewBox="0 0 24 24" id="tmrwdao-icon-calendar"><path d="M8.020 2.075 C 7.698 2.223,7.604 2.435,7.602 3.024 L 7.600 3.429 7.296 3.456 C 6.815 3.500,6.122 3.694,5.663 3.913 C 5.128 4.168,4.813 4.384,4.431 4.753 C 3.747 5.415,3.328 6.254,3.093 7.430 C 3.029 7.749,3.022 8.193,3.010 12.395 C 2.996 17.406,2.999 17.487,3.217 18.324 C 3.647 19.972,4.746 21.117,6.340 21.579 C 7.204 21.830,6.980 21.820,12.000 21.820 C 17.020 21.820,16.796 21.830,17.660 21.579 C 19.343 21.091,20.484 19.820,20.856 18.020 C 20.997 17.339,21.005 17.006,20.991 12.360 C 20.978 8.194,20.971 7.748,20.907 7.430 C 20.745 6.618,20.478 5.929,20.118 5.395 C 19.880 5.042,19.404 4.560,19.053 4.318 C 18.409 3.872,17.462 3.525,16.704 3.456 L 16.400 3.429 16.400 3.044 C 16.400 2.833,16.381 2.593,16.358 2.511 C 16.229 2.047,15.655 1.854,15.285 2.150 C 15.048 2.339,15.000 2.478,15.000 2.970 L 15.000 3.400 12.000 3.400 L 9.000 3.400 9.000 2.983 C 9.000 2.414,8.925 2.247,8.592 2.076 C 8.406 1.981,8.226 1.981,8.020 2.075 M15.006 5.233 C 15.019 5.683,15.026 5.714,15.136 5.858 C 15.369 6.164,15.762 6.235,16.077 6.027 C 16.302 5.878,16.373 5.693,16.393 5.210 L 16.409 4.801 16.575 4.824 C 18.457 5.092,19.460 6.201,19.586 8.150 L 19.612 8.560 12.006 8.560 L 4.400 8.560 4.400 8.330 C 4.401 7.503,4.716 6.518,5.154 5.975 C 5.642 5.369,6.468 4.948,7.406 4.827 L 7.593 4.803 7.607 5.211 C 7.623 5.692,7.695 5.876,7.923 6.027 C 8.238 6.235,8.631 6.164,8.864 5.858 C 8.974 5.714,8.981 5.683,8.994 5.233 L 9.008 4.760 12.000 4.760 L 14.992 4.760 15.006 5.233 M19.600 13.491 C 19.600 15.683,19.584 17.188,19.559 17.388 C 19.408 18.595,18.894 19.453,18.019 19.959 C 17.753 20.113,17.186 20.300,16.718 20.389 C 16.370 20.454,15.999 20.460,12.000 20.460 C 7.194 20.460,7.353 20.468,6.542 20.196 C 5.334 19.792,4.646 18.882,4.443 17.421 C 4.415 17.222,4.400 15.849,4.400 13.517 L 4.400 9.920 12.000 9.920 L 19.600 9.920 19.600 13.491 " fill="currentColor" stroke="none" fill-rule="evenodd"></path></symbol><symbol viewBox="0 0 24 24" id="tmrwdao-icon-chat-bubble"><path d="M11.160 3.645 C 9.193 3.845,7.400 4.706,6.038 6.106 C 5.305 6.859,4.864 7.485,4.437 8.380 C 3.912 9.479,3.661 10.498,3.613 11.720 C 3.561 13.062,3.867 14.392,4.560 15.837 C 4.778 16.292,4.840 16.461,4.840 16.600 C 4.840 16.709,4.712 17.214,4.516 17.873 C 4.159 19.077,4.152 19.146,4.363 19.357 C 4.573 19.567,4.646 19.560,5.801 19.219 C 6.982 18.870,7.075 18.862,7.480 19.073 C 8.856 19.791,9.363 19.993,10.258 20.181 C 11.590 20.462,13.013 20.411,14.309 20.039 C 16.812 19.319,18.847 17.521,19.776 15.210 C 21.284 11.458,19.979 7.227,16.622 4.983 C 15.060 3.938,13.071 3.451,11.160 3.645 M8.580 11.050 C 8.959 11.237,9.167 11.573,9.167 11.998 C 9.167 12.323,9.099 12.498,8.879 12.736 C 8.390 13.267,7.533 13.157,7.180 12.518 C 7.076 12.330,7.060 12.259,7.061 12.000 C 7.062 11.664,7.141 11.465,7.363 11.243 C 7.677 10.929,8.176 10.850,8.580 11.050 M12.445 11.043 C 12.835 11.241,13.041 11.571,13.039 11.998 C 13.035 13.103,11.613 13.488,11.055 12.535 C 10.932 12.326,10.887 11.948,10.955 11.696 C 11.048 11.353,11.399 11.029,11.756 10.956 C 11.956 10.916,12.272 10.955,12.445 11.043 M16.353 11.067 C 17.017 11.385,17.115 12.355,16.531 12.837 C 15.835 13.411,14.802 12.911,14.802 12.000 C 14.802 11.181,15.595 10.703,16.353 11.067 " fill="currentColor" stroke="none" fill-rule="evenodd"></path></symbol><symbol viewBox="0 0 24 24" id="tmrwdao-icon-circle-add"><path d="M11.310 1.283 C 7.720 1.498,4.467 3.537,2.649 6.710 C 2.008 7.828,1.565 9.123,1.355 10.486 C 1.228 11.308,1.228 12.692,1.355 13.514 C 1.575 14.947,2.060 16.316,2.757 17.470 C 3.320 18.402,3.772 18.971,4.555 19.730 C 6.179 21.303,8.191 22.292,10.486 22.645 C 11.308 22.772,12.692 22.772,13.514 22.645 C 15.354 22.362,16.995 21.677,18.470 20.575 C 19.087 20.115,20.115 19.087,20.575 18.470 C 21.677 16.995,22.362 15.354,22.645 13.514 C 22.718 13.044,22.734 12.770,22.734 12.000 C 22.734 11.230,22.718 10.956,22.645 10.486 C 22.362 8.645,21.676 7.003,20.575 5.530 C 20.170 4.988,19.147 3.943,18.640 3.552 C 17.137 2.395,15.450 1.661,13.657 1.383 C 13.303 1.328,12.042 1.231,11.880 1.246 C 11.847 1.249,11.590 1.266,11.310 1.283 M13.058 2.820 C 15.168 3.067,17.013 3.964,18.523 5.476 C 19.731 6.685,20.535 8.076,20.940 9.657 C 21.165 10.533,21.218 10.985,21.218 12.000 C 21.218 13.015,21.165 13.467,20.940 14.343 C 20.309 16.803,18.581 18.981,16.307 20.180 C 13.905 21.447,11.043 21.592,8.540 20.574 C 6.344 19.680,4.548 17.951,3.570 15.789 C 2.344 13.076,2.521 9.856,4.038 7.310 C 4.823 5.992,5.992 4.823,7.310 4.038 C 9.008 3.026,11.075 2.589,13.058 2.820 M11.785 7.288 C 11.587 7.342,11.338 7.590,11.283 7.787 C 11.256 7.883,11.240 8.551,11.240 9.588 L 11.240 11.237 9.530 11.248 C 7.885 11.260,7.814 11.263,7.660 11.344 C 7.139 11.616,7.121 12.330,7.627 12.645 L 7.780 12.740 9.508 12.752 L 11.237 12.763 11.248 14.492 L 11.260 16.220 11.355 16.373 C 11.661 16.866,12.339 16.866,12.645 16.373 L 12.740 16.220 12.752 14.492 L 12.763 12.763 14.492 12.752 L 16.220 12.740 16.373 12.645 C 16.747 12.412,16.859 11.935,16.619 11.596 C 16.554 11.503,16.428 11.390,16.340 11.344 C 16.186 11.263,16.115 11.260,14.472 11.248 L 12.763 11.237 12.752 9.502 L 12.740 7.767 12.620 7.597 C 12.427 7.323,12.100 7.202,11.785 7.288 " fill="currentColor" stroke="none" fill-rule="evenodd"></path></symbol><symbol viewBox="0 0 24 24" id="tmrwdao-icon-circle-minus"><path d="M11.230 1.283 C 9.045 1.414,6.978 2.217,5.181 3.632 C 4.714 4.000,3.723 5.025,3.345 5.530 C 2.245 7.002,1.558 8.645,1.275 10.486 C 1.148 11.308,1.148 12.692,1.275 13.514 C 1.558 15.354,2.243 16.995,3.345 18.470 C 3.801 19.082,4.831 20.111,5.450 20.574 C 6.919 21.674,8.565 22.362,10.406 22.645 C 11.228 22.772,12.612 22.772,13.434 22.645 C 15.274 22.362,16.915 21.677,18.390 20.575 C 19.007 20.115,20.035 19.087,20.495 18.470 C 21.597 16.995,22.282 15.354,22.565 13.514 C 22.638 13.044,22.654 12.770,22.654 12.000 C 22.654 11.230,22.638 10.956,22.565 10.486 C 22.282 8.644,21.593 6.996,20.494 5.530 C 20.115 5.024,19.120 3.995,18.659 3.632 C 17.138 2.435,15.400 1.665,13.577 1.383 C 13.223 1.328,11.962 1.231,11.800 1.246 C 11.767 1.249,11.510 1.266,11.230 1.283 M13.300 2.857 C 15.293 3.169,17.010 4.043,18.443 5.477 C 19.882 6.915,20.751 8.627,21.066 10.641 C 21.167 11.283,21.167 12.717,21.066 13.359 C 20.710 15.636,19.573 17.648,17.805 19.124 C 15.222 21.281,11.586 21.846,8.460 20.574 C 5.658 19.434,3.561 16.967,2.905 14.037 C 2.467 12.086,2.676 10.013,3.490 8.211 C 3.955 7.184,4.567 6.304,5.396 5.476 C 6.890 3.982,8.715 3.087,10.810 2.820 C 11.377 2.748,12.732 2.768,13.300 2.857 M7.705 11.289 C 7.498 11.344,7.256 11.590,7.199 11.804 C 7.113 12.122,7.254 12.463,7.547 12.645 L 7.700 12.740 11.833 12.751 C 14.777 12.758,16.014 12.749,16.132 12.717 C 16.472 12.625,16.719 12.231,16.659 11.877 C 16.625 11.671,16.445 11.431,16.255 11.337 C 16.105 11.263,15.955 11.260,11.980 11.254 C 9.245 11.250,7.808 11.261,7.705 11.289 " fill="currentColor" stroke="none" fill-rule="evenodd"></path></symbol><symbol viewBox="0 0 24 24" id="tmrwdao-icon-cross"><path d="M5.534 5.531 C 5.088 5.974,5.000 6.081,5.000 6.180 C 5.000 6.284,5.356 6.655,7.850 9.149 L 10.699 12.000 7.850 14.851 C 5.368 17.333,5.000 17.717,5.000 17.819 C 5.000 17.917,5.090 18.027,5.532 18.468 C 5.973 18.910,6.083 19.000,6.181 19.000 C 6.283 19.000,6.667 18.632,9.149 16.150 L 12.000 13.301 14.851 16.150 C 17.333 18.632,17.717 19.000,17.819 19.000 C 17.917 19.000,18.027 18.910,18.468 18.468 C 18.910 18.027,19.000 17.917,19.000 17.819 C 19.000 17.717,18.632 17.333,16.150 14.851 L 13.301 12.000 16.150 9.149 C 18.644 6.655,19.000 6.284,19.000 6.180 C 19.000 6.081,18.912 5.974,18.466 5.531 C 18.029 5.096,17.911 5.000,17.816 5.000 C 17.717 5.000,17.304 5.397,14.851 7.850 L 12.000 10.699 9.149 7.850 C 6.696 5.397,6.283 5.000,6.184 5.000 C 6.089 5.000,5.971 5.096,5.534 5.531 " fill="currentColor" stroke="none" fill-rule="evenodd"></path></symbol><symbol viewBox="0 0 24 24" id="tmrwdao-icon-default-arrow"><path d="M4.000 6.320 L 4.000 7.640 9.838 7.650 L 15.675 7.660 9.860 13.640 C 6.661 16.929,4.043 19.633,4.042 19.650 C 4.041 19.667,4.873 19.679,5.890 19.679 L 7.740 19.677 12.740 14.531 L 17.740 9.384 17.750 14.533 L 17.760 19.681 19.030 19.671 L 20.300 19.660 20.310 12.330 L 20.320 5.000 12.160 5.000 L 4.000 5.000 4.000 6.320 " fill="currentColor" stroke="none" fill-rule="evenodd"></path></symbol><symbol viewBox="0 0 24 24" id="tmrwdao-icon-delete"><path d="M10.102 3.043 C 9.523 3.131,9.092 3.371,8.845 3.745 C 8.668 4.013,8.564 4.364,8.425 5.176 L 8.300 5.900 7.900 5.928 C 6.878 5.999,4.460 6.223,4.267 6.264 C 4.096 6.300,3.887 6.505,3.839 6.684 C 3.753 7.002,3.950 7.349,4.265 7.436 C 4.358 7.462,4.581 7.457,4.951 7.420 C 5.252 7.390,5.507 7.373,5.517 7.384 C 5.527 7.394,5.656 9.638,5.803 12.371 C 5.950 15.104,6.091 17.584,6.115 17.883 C 6.193 18.828,6.385 19.377,6.778 19.769 C 7.180 20.171,7.788 20.404,8.628 20.478 C 9.224 20.530,14.219 20.532,14.840 20.480 C 16.408 20.350,17.132 19.740,17.339 18.373 C 17.370 18.172,17.524 15.616,17.682 12.693 C 17.841 9.771,17.973 7.376,17.976 7.372 C 17.980 7.367,18.230 7.388,18.532 7.418 C 19.132 7.478,19.309 7.457,19.474 7.306 C 19.784 7.021,19.735 6.532,19.376 6.334 C 19.242 6.260,19.054 6.233,18.040 6.145 C 17.391 6.089,16.504 6.020,16.069 5.993 C 15.633 5.966,15.260 5.933,15.239 5.920 C 15.218 5.907,15.146 5.576,15.079 5.185 C 15.011 4.794,14.923 4.368,14.883 4.239 C 14.694 3.633,14.323 3.288,13.649 3.092 C 13.456 3.036,13.177 3.024,11.880 3.016 C 11.033 3.011,10.233 3.023,10.102 3.043 M13.535 4.333 C 13.687 4.433,13.742 4.583,13.839 5.164 C 13.884 5.437,13.931 5.705,13.942 5.760 L 13.962 5.860 11.771 5.846 C 10.566 5.839,9.576 5.828,9.571 5.824 C 9.555 5.808,9.759 4.706,9.802 4.575 C 9.851 4.425,9.951 4.328,10.106 4.280 C 10.169 4.261,10.941 4.248,11.822 4.253 C 13.299 4.259,13.432 4.266,13.535 4.333 M13.220 7.080 C 14.596 7.124,16.643 7.239,16.702 7.275 C 16.731 7.292,16.654 8.947,16.458 12.560 C 16.300 15.453,16.158 17.945,16.142 18.097 C 16.062 18.841,15.834 19.103,15.163 19.223 C 14.722 19.302,8.797 19.302,8.357 19.223 C 7.620 19.092,7.417 18.815,7.340 17.840 C 7.304 17.386,6.759 7.267,6.770 7.256 C 6.791 7.236,7.862 7.160,8.680 7.120 C 10.275 7.041,11.674 7.029,13.220 7.080 M9.410 12.640 C 9.009 12.884,9.027 13.481,9.441 13.690 C 9.570 13.756,9.747 13.760,11.800 13.750 C 13.948 13.740,14.024 13.737,14.129 13.660 C 14.393 13.467,14.467 13.063,14.285 12.807 C 14.106 12.556,14.149 12.560,11.734 12.560 C 9.615 12.560,9.536 12.563,9.410 12.640 M10.108 14.883 C 9.880 15.005,9.792 15.171,9.810 15.450 C 9.823 15.648,9.844 15.701,9.961 15.821 C 10.036 15.898,10.166 15.980,10.250 16.003 C 10.345 16.028,10.940 16.039,11.831 16.032 C 13.414 16.019,13.416 16.018,13.607 15.751 C 13.676 15.654,13.700 15.566,13.700 15.413 C 13.700 15.189,13.627 15.053,13.425 14.902 C 13.318 14.823,13.260 14.820,11.787 14.811 C 10.322 14.802,10.254 14.805,10.108 14.883 " fill="currentColor" stroke="none" fill-rule="evenodd"></path></symbol><symbol viewBox="0 0 24 24" id="tmrwdao-icon-document"><path d="M7.427 2.044 C 5.035 2.281,3.538 3.653,3.088 6.020 C 3.026 6.348,3.020 6.853,3.020 11.760 C 3.020 17.762,3.009 17.493,3.300 18.383 C 3.848 20.056,4.982 21.038,6.840 21.447 L 7.260 21.540 11.860 21.540 C 16.153 21.540,16.484 21.535,16.819 21.467 C 17.702 21.287,18.467 20.951,19.041 20.490 C 19.795 19.884,20.261 19.131,20.540 18.066 C 20.743 17.291,20.740 17.378,20.740 11.740 C 20.740 5.946,20.750 6.206,20.499 5.340 C 20.044 3.770,18.949 2.678,17.398 2.246 C 16.586 2.019,16.776 2.027,12.100 2.018 C 9.724 2.013,7.621 2.025,7.427 2.044 M16.140 3.401 C 16.758 3.458,17.196 3.574,17.663 3.803 C 18.518 4.221,19.037 4.932,19.267 6.001 C 19.336 6.320,19.340 6.663,19.340 11.840 L 19.340 17.340 19.231 17.740 C 19.171 17.960,19.038 18.310,18.936 18.517 C 18.785 18.822,18.687 18.957,18.425 19.221 C 18.050 19.599,17.723 19.796,17.191 19.967 C 16.472 20.198,16.446 20.200,11.893 20.200 C 9.164 20.200,7.618 20.185,7.413 20.157 C 6.660 20.055,5.954 19.783,5.533 19.432 C 4.883 18.892,4.505 18.069,4.401 16.967 C 4.345 16.381,4.346 7.147,4.402 6.594 C 4.599 4.636,5.606 3.606,7.521 3.406 C 8.008 3.355,15.598 3.351,16.140 3.401 M13.856 4.356 C 13.766 4.397,13.649 4.491,13.596 4.565 C 13.500 4.699,13.500 4.705,13.488 5.913 C 13.477 7.042,13.482 7.147,13.561 7.433 C 13.777 8.223,14.352 8.844,15.140 9.137 L 15.460 9.256 16.660 9.271 C 17.462 9.282,17.909 9.272,18.008 9.242 C 18.096 9.216,18.212 9.133,18.295 9.035 C 18.593 8.687,18.506 8.268,18.070 7.953 C 18.064 7.949,17.520 7.935,16.860 7.923 L 15.660 7.900 15.447 7.782 C 15.214 7.653,15.083 7.518,14.948 7.265 C 14.865 7.108,14.859 7.039,14.840 5.920 C 14.819 4.673,14.818 4.666,14.613 4.473 C 14.398 4.268,14.138 4.228,13.856 4.356 M8.085 12.039 C 7.590 12.159,7.394 12.762,7.726 13.140 C 7.945 13.390,8.032 13.400,10.025 13.400 C 11.150 13.400,11.870 13.384,11.999 13.357 C 12.622 13.223,12.749 12.425,12.200 12.102 C 12.064 12.023,11.998 12.020,10.140 12.013 C 9.084 12.009,8.159 12.021,8.085 12.039 M8.085 15.679 C 7.926 15.718,7.777 15.822,7.662 15.975 C 7.599 16.060,7.580 16.146,7.580 16.340 C 7.580 16.534,7.599 16.620,7.662 16.705 C 7.782 16.864,7.924 16.960,8.103 17.002 C 8.344 17.058,15.442 17.051,15.665 16.995 C 16.266 16.843,16.376 16.057,15.840 15.742 C 15.702 15.661,15.655 15.660,11.960 15.653 C 9.903 15.650,8.159 15.662,8.085 15.679 " fill="currentColor" stroke="none" fill-rule="evenodd"></path></symbol><symbol viewBox="0 0 24 24" id="tmrwdao-icon-down-arrow"><path d="M4.715 7.182 C 4.481 7.255,4.223 7.525,4.158 7.766 C 4.106 7.962,4.131 8.228,4.217 8.391 C 4.249 8.451,6.013 10.237,8.137 12.360 L 12.000 16.220 15.879 12.341 C 19.979 8.241,19.880 8.349,19.880 8.000 C 19.880 7.782,19.756 7.523,19.575 7.364 C 19.342 7.159,19.085 7.092,18.790 7.160 C 18.582 7.208,18.547 7.242,15.290 10.494 L 12.000 13.779 8.710 10.495 C 5.599 7.389,5.410 7.208,5.232 7.165 C 5.000 7.109,4.947 7.111,4.715 7.182 " fill="currentColor" stroke="none" fill-rule="evenodd"></path></symbol><symbol viewBox="0 0 24 24" id="tmrwdao-icon-percentage"><path d="M7.376 6.037 C 6.603 6.161,5.823 6.714,5.468 7.391 C 5.160 7.977,5.041 8.466,5.012 9.260 C 4.967 10.522,5.294 11.465,6.014 12.149 C 6.505 12.615,7.100 12.841,7.836 12.839 C 8.592 12.838,9.159 12.629,9.642 12.172 C 10.343 11.511,10.678 10.644,10.683 9.480 C 10.684 9.182,10.665 8.813,10.640 8.660 C 10.392 7.087,9.371 6.072,7.986 6.020 C 7.762 6.011,7.488 6.019,7.376 6.037 M11.188 12.390 L 6.879 18.700 7.405 18.711 C 7.694 18.717,7.935 18.717,7.940 18.711 C 8.032 18.594,16.490 6.181,16.506 6.140 C 16.525 6.089,16.453 6.080,16.013 6.080 L 15.497 6.080 11.188 12.390 M8.419 6.907 C 9.010 7.087,9.497 7.682,9.679 8.446 C 9.903 9.384,9.779 10.503,9.378 11.163 C 8.621 12.409,6.843 12.312,6.220 10.991 C 6.006 10.538,5.953 10.286,5.931 9.620 C 5.908 8.948,5.952 8.571,6.101 8.142 C 6.216 7.811,6.507 7.369,6.721 7.199 C 7.174 6.841,7.832 6.727,8.419 6.907 M14.889 12.038 C 14.409 12.168,14.063 12.374,13.675 12.758 C 13.384 13.047,13.302 13.159,13.147 13.480 C 12.916 13.958,12.812 14.339,12.754 14.910 C 12.704 15.405,12.748 16.060,12.861 16.501 C 13.228 17.930,14.250 18.796,15.572 18.799 C 17.151 18.803,18.222 17.683,18.408 15.833 C 18.496 14.967,18.341 14.105,17.969 13.382 C 17.654 12.771,17.080 12.280,16.440 12.074 C 16.053 11.950,15.280 11.932,14.889 12.038 M15.968 12.804 C 16.656 12.948,17.230 13.587,17.427 14.430 C 17.527 14.854,17.526 15.934,17.426 16.339 C 17.144 17.480,16.272 18.140,15.281 17.963 C 14.523 17.827,13.993 17.289,13.752 16.412 C 13.680 16.147,13.667 15.992,13.667 15.380 C 13.667 14.768,13.680 14.613,13.752 14.348 C 14.067 13.199,14.941 12.590,15.968 12.804 " fill="currentColor" stroke="none" fill-rule="evenodd"></path></symbol><symbol viewBox="0 0 24 24" id="tmrwdao-icon-profile"><path d="M11.120 2.039 C 10.615 2.090,10.031 2.190,9.580 2.303 C 5.841 3.243,2.956 6.264,2.201 10.032 C 1.637 12.844,2.295 15.710,4.034 18.020 C 4.274 18.339,4.414 18.497,4.917 19.021 C 7.230 21.434,10.783 22.501,14.080 21.775 C 16.075 21.335,17.781 20.383,19.160 18.939 C 20.464 17.575,21.264 16.140,21.699 14.388 C 21.888 13.623,21.956 13.145,21.986 12.360 C 22.166 7.661,19.003 3.459,14.417 2.302 C 13.472 2.064,12.026 1.949,11.120 2.039 M13.108 3.582 C 16.912 4.077,19.923 7.088,20.418 10.892 C 20.497 11.497,20.497 12.504,20.418 13.108 C 20.195 14.816,19.440 16.433,18.247 17.753 L 18.054 17.967 17.777 17.679 C 16.791 16.655,15.226 15.955,13.340 15.693 C 12.677 15.601,11.308 15.602,10.660 15.695 C 8.797 15.962,7.318 16.608,6.321 17.590 L 5.943 17.963 5.752 17.752 C 4.561 16.434,3.804 14.815,3.582 13.108 C 3.503 12.504,3.503 11.497,3.582 10.892 C 4.075 7.104,7.075 4.092,10.860 3.582 C 11.419 3.507,12.533 3.507,13.108 3.582 M11.555 6.959 C 10.982 7.031,10.339 7.275,9.842 7.610 C 9.535 7.817,8.995 8.401,8.785 8.752 C 7.916 10.207,8.128 12.063,9.300 13.261 C 9.959 13.934,10.704 14.292,11.673 14.400 C 12.318 14.472,12.938 14.360,13.595 14.055 C 14.843 13.474,15.624 12.327,15.743 10.899 C 15.799 10.229,15.590 9.380,15.215 8.752 C 15.005 8.401,14.465 7.817,14.158 7.610 C 13.408 7.104,12.406 6.854,11.555 6.959 " fill="currentColor" stroke="none" fill-rule="evenodd"></path></symbol><symbol viewBox="0 0 24 24" id="tmrwdao-icon-right-arrow"><path d="M9.715 4.182 C 9.395 4.281,9.120 4.659,9.120 5.000 C 9.120 5.344,9.012 5.226,12.723 8.940 C 14.657 10.876,16.240 12.478,16.240 12.500 C 16.240 12.522,14.657 14.124,12.723 16.060 C 9.012 19.774,9.120 19.656,9.120 20.000 C 9.120 20.449,9.552 20.879,10.003 20.880 C 10.348 20.881,10.229 20.991,14.591 16.629 L 18.720 12.499 14.570 8.355 C 10.633 4.423,10.410 4.208,10.232 4.165 C 10.000 4.109,9.947 4.111,9.715 4.182 " fill="currentColor" stroke="none" fill-rule="evenodd"></path></symbol><symbol viewBox="0 0 24 24" id="tmrwdao-icon-search-icon"><path d="M10.340 2.024 C 9.026 2.160,8.091 2.415,7.060 2.918 C 4.287 4.272,2.420 6.913,2.059 9.992 C 1.620 13.745,3.632 17.403,7.060 19.083 C 9.180 20.122,11.583 20.282,13.840 19.534 C 14.884 19.188,16.011 18.557,16.789 17.885 C 16.970 17.728,17.132 17.600,17.148 17.600 C 17.164 17.600,17.916 18.336,18.819 19.235 C 20.287 20.697,20.481 20.876,20.657 20.935 C 21.046 21.064,21.423 20.979,21.701 20.701 C 21.979 20.423,22.064 20.046,21.935 19.657 C 21.876 19.481,21.693 19.283,20.175 17.759 C 19.243 16.823,18.480 16.045,18.480 16.030 C 18.480 16.015,18.562 15.876,18.662 15.721 C 18.951 15.274,19.341 14.434,19.538 13.833 C 20.281 11.567,20.121 9.176,19.083 7.060 C 18.190 5.237,16.762 3.810,14.944 2.923 C 14.066 2.494,13.269 2.244,12.320 2.101 C 11.911 2.039,10.662 1.991,10.340 2.024 M11.686 4.042 C 13.238 4.199,14.639 4.834,15.793 5.902 C 16.782 6.817,17.558 8.192,17.841 9.529 C 18.093 10.723,18.019 12.072,17.639 13.211 C 17.054 14.963,15.783 16.427,14.125 17.258 C 10.887 18.881,6.938 17.752,5.039 14.660 C 3.538 12.217,3.688 9.083,5.416 6.787 C 6.877 4.846,9.272 3.797,11.686 4.042 " fill="currentColor" stroke="none" fill-rule="evenodd"></path></symbol><symbol viewBox="0 0 24 24" id="tmrwdao-icon-search"><path d="M10.284 3.046 C 8.064 3.278,5.979 4.520,4.620 6.420 C 3.001 8.685,2.565 11.664,3.462 14.347 C 4.475 17.380,7.009 19.548,10.045 19.980 C 10.592 20.057,11.617 20.057,12.155 19.978 C 13.751 19.745,15.203 19.059,16.395 17.976 L 16.651 17.743 16.775 17.888 C 16.844 17.967,17.500 18.663,18.234 19.433 C 19.068 20.309,19.622 20.860,19.712 20.903 C 20.294 21.179,20.928 20.792,20.989 20.125 C 21.028 19.698,20.988 19.646,19.311 17.882 L 17.811 16.303 17.972 16.042 C 18.723 14.822,19.200 13.085,19.200 11.569 C 19.200 6.497,15.067 2.546,10.284 3.046 M12.300 5.020 C 13.499 5.266,14.505 5.820,15.423 6.737 C 16.009 7.323,16.370 7.824,16.708 8.521 C 17.567 10.288,17.618 12.444,16.846 14.237 C 16.220 15.687,15.134 16.850,13.780 17.517 C 12.844 17.979,12.157 18.137,11.100 18.137 C 10.304 18.137,9.950 18.086,9.281 17.872 C 7.619 17.341,6.237 16.109,5.456 14.460 C 4.584 12.623,4.594 10.392,5.482 8.536 C 5.807 7.857,6.190 7.324,6.777 6.737 C 7.695 5.820,8.698 5.268,9.900 5.019 C 10.564 4.882,11.631 4.882,12.300 5.020 " fill="currentColor" stroke="none" fill-rule="evenodd"></path></symbol><symbol viewBox="0 0 24 24" id="tmrwdao-icon-tick"><path d="M8.798 3.131 C 8.755 3.202,8.367 3.854,7.936 4.580 L 7.153 5.901 5.536 6.259 L 3.920 6.616 3.920 6.758 C 3.920 6.836,3.983 7.554,4.060 8.352 C 4.137 9.151,4.200 9.845,4.200 9.893 C 4.200 9.952,3.830 10.405,3.101 11.238 C 2.182 12.290,2.011 12.505,2.051 12.555 C 2.078 12.588,2.572 13.156,3.150 13.816 C 3.848 14.614,4.200 15.047,4.200 15.106 C 4.200 15.155,4.137 15.849,4.060 16.648 C 3.983 17.446,3.920 18.165,3.920 18.243 L 3.920 18.387 5.510 18.738 C 6.550 18.968,7.122 19.112,7.165 19.155 C 7.200 19.191,7.585 19.823,8.019 20.560 C 8.454 21.297,8.830 21.921,8.855 21.947 C 8.889 21.982,9.204 21.864,10.160 21.454 C 10.853 21.157,11.539 20.864,11.685 20.801 L 11.949 20.688 13.483 21.343 C 14.326 21.703,15.025 21.988,15.036 21.977 C 15.047 21.967,15.437 21.316,15.902 20.531 L 16.749 19.104 18.365 18.747 C 19.253 18.550,19.986 18.384,19.994 18.377 C 20.002 18.370,19.943 17.675,19.863 16.832 C 19.784 15.990,19.714 15.237,19.709 15.160 C 19.701 15.029,19.773 14.937,20.780 13.787 C 21.374 13.109,21.860 12.530,21.860 12.500 C 21.860 12.470,21.374 11.891,20.780 11.213 C 19.773 10.063,19.701 9.971,19.709 9.840 C 19.714 9.763,19.784 9.010,19.863 8.168 C 19.943 7.325,20.002 6.630,19.994 6.623 C 19.986 6.616,19.253 6.450,18.365 6.253 L 16.749 5.896 15.895 4.458 C 15.409 3.639,15.019 3.024,14.990 3.030 C 14.962 3.035,14.268 3.326,13.447 3.676 L 11.955 4.313 10.707 3.782 C 10.021 3.490,9.329 3.195,9.169 3.127 L 8.877 3.002 8.798 3.131 M15.474 9.937 C 15.807 10.277,16.080 10.570,16.080 10.588 C 16.080 10.606,14.937 11.763,13.540 13.160 L 11.000 15.700 9.400 14.100 L 7.800 12.499 8.430 11.870 L 9.060 11.241 10.033 12.187 L 11.007 13.133 12.913 11.227 C 13.962 10.178,14.831 9.320,14.844 9.320 C 14.857 9.320,15.140 9.598,15.474 9.937 " fill="currentColor" stroke="none" fill-rule="evenodd"></path></symbol><symbol viewBox="0 0 24 24" id="tmrwdao-icon-time-clock"><path d="M11.520 3.041 C 9.362 3.266,7.477 4.121,5.936 5.575 C 3.084 8.265,2.215 12.457,3.761 16.067 C 4.950 18.843,7.461 20.909,10.414 21.538 C 11.147 21.695,11.579 21.738,12.400 21.737 C 13.890 21.735,15.165 21.438,16.500 20.780 C 19.002 19.547,20.808 17.304,21.475 14.598 C 21.674 13.790,21.736 13.273,21.737 12.400 C 21.737 11.971,21.714 11.449,21.685 11.240 C 21.394 9.119,20.465 7.221,19.002 5.758 C 17.573 4.328,15.724 3.398,13.720 3.100 C 13.213 3.025,11.990 2.992,11.520 3.041 M13.232 4.362 C 15.086 4.564,16.788 5.385,18.089 6.705 C 18.778 7.405,19.205 8.005,19.623 8.860 C 21.155 12.000,20.484 15.747,17.953 18.181 C 16.911 19.183,15.759 19.827,14.371 20.183 C 11.927 20.810,9.389 20.271,7.380 18.700 C 7.012 18.411,6.328 17.731,6.055 17.380 C 4.855 15.837,4.270 14.054,4.332 12.120 C 4.356 11.349,4.423 10.903,4.621 10.180 C 5.031 8.684,5.968 7.227,7.156 6.235 C 8.443 5.161,9.980 4.508,11.600 4.347 C 11.928 4.314,12.873 4.323,13.232 4.362 M11.864 7.840 C 11.713 7.887,11.524 8.067,11.455 8.229 C 11.411 8.332,11.400 8.738,11.400 10.292 C 11.400 12.074,11.406 12.251,11.477 12.529 C 11.617 13.074,11.970 13.641,12.348 13.928 C 12.455 14.009,13.181 14.457,13.962 14.923 C 15.524 15.856,15.576 15.878,15.887 15.725 C 16.301 15.524,16.394 14.999,16.071 14.694 C 15.999 14.626,15.318 14.201,14.557 13.749 C 13.147 12.911,13.013 12.811,12.830 12.469 C 12.741 12.302,12.740 12.281,12.720 10.280 C 12.701 8.350,12.696 8.254,12.620 8.127 C 12.474 7.885,12.132 7.755,11.864 7.840 " fill="currentColor" stroke="none" fill-rule="evenodd"></path></symbol><symbol viewBox="0 0 24 24" id="tmrwdao-icon-upload-document"><path d="M8.580 3.027 C 5.460 3.223,3.801 4.480,3.226 7.083 C 3.024 7.998,3.020 8.095,3.020 11.880 C 3.020 15.665,3.024 15.762,3.226 16.677 C 3.711 18.871,4.983 20.105,7.225 20.556 C 8.103 20.732,8.296 20.740,11.900 20.740 C 15.018 20.740,15.391 20.733,15.880 20.666 C 18.820 20.266,20.236 18.861,20.664 15.920 C 20.719 15.539,20.734 15.011,20.749 12.845 C 20.759 11.406,20.755 10.164,20.741 10.085 C 20.718 9.959,20.279 9.504,17.307 6.526 C 15.323 4.538,13.846 3.089,13.771 3.056 C 13.665 3.010,13.218 3.001,11.211 3.007 C 9.874 3.011,8.690 3.020,8.580 3.027 M12.920 5.937 C 12.920 6.916,12.938 7.767,12.963 7.947 C 13.171 9.478,13.847 10.314,15.159 10.665 C 15.689 10.806,16.189 10.838,17.874 10.839 L 19.529 10.840 19.509 13.110 C 19.488 15.496,19.468 15.797,19.283 16.579 C 18.941 18.016,18.099 18.880,16.669 19.261 C 15.822 19.486,15.721 19.492,12.260 19.510 C 10.071 19.521,8.877 19.512,8.480 19.481 C 5.836 19.272,4.708 18.292,4.332 15.880 C 4.267 15.463,4.260 15.086,4.260 11.880 C 4.260 8.018,4.264 7.938,4.500 7.040 C 4.623 6.573,4.930 5.940,5.188 5.621 C 5.809 4.854,6.836 4.417,8.324 4.284 C 8.531 4.266,9.650 4.249,10.810 4.246 L 12.920 4.240 12.920 5.937 M18.451 9.593 C 18.368 9.601,17.742 9.599,17.060 9.590 C 15.958 9.575,15.786 9.563,15.513 9.489 C 15.113 9.379,14.911 9.273,14.699 9.061 C 14.487 8.849,14.381 8.647,14.271 8.247 C 14.194 7.968,14.185 7.811,14.171 6.540 L 14.155 5.140 16.378 7.360 L 18.601 9.580 18.451 9.593 M9.140 10.494 C 9.074 10.524,8.987 10.586,8.946 10.632 C 8.773 10.826,8.764 10.933,8.762 12.759 L 8.760 14.498 8.430 14.174 C 8.248 13.995,8.058 13.827,8.006 13.801 C 7.873 13.733,7.591 13.742,7.443 13.819 C 7.201 13.944,7.067 14.294,7.165 14.541 C 7.199 14.626,7.577 15.037,8.155 15.619 C 8.918 16.386,9.119 16.567,9.245 16.601 C 9.562 16.687,9.623 16.644,10.643 15.621 C 11.725 14.535,11.770 14.463,11.604 14.096 C 11.507 13.883,11.310 13.760,11.063 13.760 C 10.814 13.760,10.714 13.819,10.360 14.178 L 10.060 14.482 10.040 12.691 C 10.021 10.992,10.016 10.893,9.940 10.764 C 9.896 10.689,9.812 10.592,9.753 10.549 C 9.618 10.448,9.301 10.420,9.140 10.494 " fill="currentColor" stroke="none" fill-rule="evenodd"></path></symbol><symbol viewBox="0 0 24 24" id="tmrwdao-icon-upload"><path d="M11.920 4.052 C 11.533 4.164,11.420 4.255,10.370 5.295 C 9.114 6.539,9.053 6.633,9.242 7.024 C 9.332 7.211,9.465 7.316,9.670 7.362 C 9.954 7.426,10.051 7.361,10.870 6.548 L 11.640 5.783 11.640 7.511 L 11.640 9.240 9.365 9.240 C 7.500 9.240,7.027 9.251,6.738 9.301 C 5.385 9.537,4.316 10.593,4.057 11.951 C 3.973 12.386,3.974 16.860,4.057 17.286 C 4.327 18.668,5.332 19.673,6.714 19.943 C 6.959 19.991,7.863 20.000,12.285 20.000 C 16.939 20.000,17.600 19.993,17.872 19.937 C 18.520 19.804,19.115 19.487,19.572 19.029 C 19.990 18.612,20.233 18.198,20.430 17.572 L 20.540 17.220 20.540 14.620 L 20.540 12.020 20.430 11.668 C 20.122 10.686,19.517 9.976,18.636 9.563 C 17.989 9.260,18.069 9.267,15.350 9.251 L 12.920 9.235 12.920 7.528 L 12.920 5.821 13.610 6.502 C 14.438 7.320,14.436 7.319,14.619 7.360 C 14.889 7.421,15.172 7.286,15.304 7.032 C 15.376 6.893,15.376 6.626,15.303 6.488 C 15.272 6.429,14.763 5.899,14.173 5.312 C 13.279 4.422,13.062 4.227,12.872 4.140 C 12.596 4.014,12.184 3.976,11.920 4.052 M12.880 12.230 C 12.880 15.143,12.878 15.223,12.800 15.350 C 12.670 15.563,12.499 15.647,12.228 15.630 C 12.025 15.616,11.978 15.597,11.853 15.472 C 11.757 15.376,11.700 15.273,11.677 15.155 C 11.659 15.059,11.643 13.688,11.642 12.110 L 11.640 9.240 12.260 9.240 L 12.880 9.240 12.880 12.230 " fill="currentColor" stroke="none" fill-rule="evenodd"></path></symbol></svg>