<svg xmlns="http://www.w3.org/2000/svg" xmlns:xlink="http://www.w3.org/1999/xlink" width="0" height="0" style="display:none;"><symbol viewBox="0 0 24 24" id="tmrwdao-icon-arrow"><path d="M9.715 4.182 C 9.395 4.281,9.120 4.659,9.120 5.000 C 9.120 5.344,9.012 5.226,12.723 8.940 C 14.657 10.876,16.240 12.478,16.240 12.500 C 16.240 12.522,14.657 14.124,12.723 16.060 C 9.012 19.774,9.120 19.656,9.120 20.000 C 9.120 20.449,9.552 20.879,10.003 20.880 C 10.348 20.881,10.229 20.991,14.591 16.629 L 18.720 12.499 14.570 8.355 C 10.633 4.423,10.410 4.208,10.232 4.165 C 10.000 4.109,9.947 4.111,9.715 4.182 " fill="currentColor" stroke="none" fill-rule="evenodd"></path></symbol><symbol viewBox="0 0 24 24" id="tmrwdao-icon-calendar"><path d="M8.020 2.075 C 7.698 2.223,7.604 2.435,7.602 3.024 L 7.600 3.429 7.296 3.456 C 6.815 3.500,6.122 3.694,5.663 3.913 C 5.128 4.168,4.813 4.384,4.431 4.753 C 3.747 5.415,3.328 6.254,3.093 7.430 C 3.029 7.749,3.022 8.193,3.010 12.395 C 2.996 17.406,2.999 17.487,3.217 18.324 C 3.647 19.972,4.746 21.117,6.340 21.579 C 7.204 21.830,6.980 21.820,12.000 21.820 C 17.020 21.820,16.796 21.830,17.660 21.579 C 19.343 21.091,20.484 19.820,20.856 18.020 C 20.997 17.339,21.005 17.006,20.991 12.360 C 20.978 8.194,20.971 7.748,20.907 7.430 C 20.745 6.618,20.478 5.929,20.118 5.395 C 19.880 5.042,19.404 4.560,19.053 4.318 C 18.409 3.872,17.462 3.525,16.704 3.456 L 16.400 3.429 16.400 3.044 C 16.400 2.833,16.381 2.593,16.358 2.511 C 16.229 2.047,15.655 1.854,15.285 2.150 C 15.048 2.339,15.000 2.478,15.000 2.970 L 15.000 3.400 12.000 3.400 L 9.000 3.400 9.000 2.983 C 9.000 2.414,8.925 2.247,8.592 2.076 C 8.406 1.981,8.226 1.981,8.020 2.075 M15.006 5.233 C 15.019 5.683,15.026 5.714,15.136 5.858 C 15.369 6.164,15.762 6.235,16.077 6.027 C 16.302 5.878,16.373 5.693,16.393 5.210 L 16.409 4.801 16.575 4.824 C 18.457 5.092,19.460 6.201,19.586 8.150 L 19.612 8.560 12.006 8.560 L 4.400 8.560 4.400 8.330 C 4.401 7.503,4.716 6.518,5.154 5.975 C 5.642 5.369,6.468 4.948,7.406 4.827 L 7.593 4.803 7.607 5.211 C 7.623 5.692,7.695 5.876,7.923 6.027 C 8.238 6.235,8.631 6.164,8.864 5.858 C 8.974 5.714,8.981 5.683,8.994 5.233 L 9.008 4.760 12.000 4.760 L 14.992 4.760 15.006 5.233 M19.600 13.491 C 19.600 15.683,19.584 17.188,19.559 17.388 C 19.408 18.595,18.894 19.453,18.019 19.959 C 17.753 20.113,17.186 20.300,16.718 20.389 C 16.370 20.454,15.999 20.460,12.000 20.460 C 7.194 20.460,7.353 20.468,6.542 20.196 C 5.334 19.792,4.646 18.882,4.443 17.421 C 4.415 17.222,4.400 15.849,4.400 13.517 L 4.400 9.920 12.000 9.920 L 19.600 9.920 19.600 13.491 " fill="currentColor" stroke="none" fill-rule="evenodd"></path></symbol><symbol viewBox="0 0 24 24" id="tmrwdao-icon-chat-bubble"><path d="M11.160 3.645 C 9.193 3.845,7.400 4.706,6.038 6.106 C 5.305 6.859,4.864 7.485,4.437 8.380 C 3.912 9.479,3.661 10.498,3.613 11.720 C 3.561 13.062,3.867 14.392,4.560 15.837 C 4.778 16.292,4.840 16.461,4.840 16.600 C 4.840 16.709,4.712 17.214,4.516 17.873 C 4.159 19.077,4.152 19.146,4.363 19.357 C 4.573 19.567,4.646 19.560,5.801 19.219 C 6.982 18.870,7.075 18.862,7.480 19.073 C 8.856 19.791,9.363 19.993,10.258 20.181 C 11.590 20.462,13.013 20.411,14.309 20.039 C 16.812 19.319,18.847 17.521,19.776 15.210 C 21.284 11.458,19.979 7.227,16.622 4.983 C 15.060 3.938,13.071 3.451,11.160 3.645 M8.580 11.050 C 8.959 11.237,9.167 11.573,9.167 11.998 C 9.167 12.323,9.099 12.498,8.879 12.736 C 8.390 13.267,7.533 13.157,7.180 12.518 C 7.076 12.330,7.060 12.259,7.061 12.000 C 7.062 11.664,7.141 11.465,7.363 11.243 C 7.677 10.929,8.176 10.850,8.580 11.050 M12.445 11.043 C 12.835 11.241,13.041 11.571,13.039 11.998 C 13.035 13.103,11.613 13.488,11.055 12.535 C 10.932 12.326,10.887 11.948,10.955 11.696 C 11.048 11.353,11.399 11.029,11.756 10.956 C 11.956 10.916,12.272 10.955,12.445 11.043 M16.353 11.067 C 17.017 11.385,17.115 12.355,16.531 12.837 C 15.835 13.411,14.802 12.911,14.802 12.000 C 14.802 11.181,15.595 10.703,16.353 11.067 " fill="currentColor" stroke="none" fill-rule="evenodd"></path></symbol><symbol viewBox="0 0 24 24" id="tmrwdao-icon-circle-add"><path d="M11.310 1.283 C 7.720 1.498,4.467 3.537,2.649 6.710 C 2.008 7.828,1.565 9.123,1.355 10.486 C 1.228 11.308,1.228 12.692,1.355 13.514 C 1.575 14.947,2.060 16.316,2.757 17.470 C 3.320 18.402,3.772 18.971,4.555 19.730 C 6.179 21.303,8.191 22.292,10.486 22.645 C 11.308 22.772,12.692 22.772,13.514 22.645 C 15.354 22.362,16.995 21.677,18.470 20.575 C 19.087 20.115,20.115 19.087,20.575 18.470 C 21.677 16.995,22.362 15.354,22.645 13.514 C 22.718 13.044,22.734 12.770,22.734 12.000 C 22.734 11.230,22.718 10.956,22.645 10.486 C 22.362 8.645,21.676 7.003,20.575 5.530 C 20.170 4.988,19.147 3.943,18.640 3.552 C 17.137 2.395,15.450 1.661,13.657 1.383 C 13.303 1.328,12.042 1.231,11.880 1.246 C 11.847 1.249,11.590 1.266,11.310 1.283 M13.058 2.820 C 15.168 3.067,17.013 3.964,18.523 5.476 C 19.731 6.685,20.535 8.076,20.940 9.657 C 21.165 10.533,21.218 10.985,21.218 12.000 C 21.218 13.015,21.165 13.467,20.940 14.343 C 20.309 16.803,18.581 18.981,16.307 20.180 C 13.905 21.447,11.043 21.592,8.540 20.574 C 6.344 19.680,4.548 17.951,3.570 15.789 C 2.344 13.076,2.521 9.856,4.038 7.310 C 4.823 5.992,5.992 4.823,7.310 4.038 C 9.008 3.026,11.075 2.589,13.058 2.820 M11.785 7.288 C 11.587 7.342,11.338 7.590,11.283 7.787 C 11.256 7.883,11.240 8.551,11.240 9.588 L 11.240 11.237 9.530 11.248 C 7.885 11.260,7.814 11.263,7.660 11.344 C 7.139 11.616,7.121 12.330,7.627 12.645 L 7.780 12.740 9.508 12.752 L 11.237 12.763 11.248 14.492 L 11.260 16.220 11.355 16.373 C 11.661 16.866,12.339 16.866,12.645 16.373 L 12.740 16.220 12.752 14.492 L 12.763 12.763 14.492 12.752 L 16.220 12.740 16.373 12.645 C 16.747 12.412,16.859 11.935,16.619 11.596 C 16.554 11.503,16.428 11.390,16.340 11.344 C 16.186 11.263,16.115 11.260,14.472 11.248 L 12.763 11.237 12.752 9.502 L 12.740 7.767 12.620 7.597 C 12.427 7.323,12.100 7.202,11.785 7.288 " fill="currentColor" stroke="none" fill-rule="evenodd"></path></symbol><symbol viewBox="0 0 24 24" id="tmrwdao-icon-circle-minus"><path d="M11.230 1.283 C 9.045 1.414,6.978 2.217,5.181 3.632 C 4.714 4.000,3.723 5.025,3.345 5.530 C 2.245 7.002,1.558 8.645,1.275 10.486 C 1.148 11.308,1.148 12.692,1.275 13.514 C 1.558 15.354,2.243 16.995,3.345 18.470 C 3.801 19.082,4.831 20.111,5.450 20.574 C 6.919 21.674,8.565 22.362,10.406 22.645 C 11.228 22.772,12.612 22.772,13.434 22.645 C 15.274 22.362,16.915 21.677,18.390 20.575 C 19.007 20.115,20.035 19.087,20.495 18.470 C 21.597 16.995,22.282 15.354,22.565 13.514 C 22.638 13.044,22.654 12.770,22.654 12.000 C 22.654 11.230,22.638 10.956,22.565 10.486 C 22.282 8.644,21.593 6.996,20.494 5.530 C 20.115 5.024,19.120 3.995,18.659 3.632 C 17.138 2.435,15.400 1.665,13.577 1.383 C 13.223 1.328,11.962 1.231,11.800 1.246 C 11.767 1.249,11.510 1.266,11.230 1.283 M13.300 2.857 C 15.293 3.169,17.010 4.043,18.443 5.477 C 19.882 6.915,20.751 8.627,21.066 10.641 C 21.167 11.283,21.167 12.717,21.066 13.359 C 20.710 15.636,19.573 17.648,17.805 19.124 C 15.222 21.281,11.586 21.846,8.460 20.574 C 5.658 19.434,3.561 16.967,2.905 14.037 C 2.467 12.086,2.676 10.013,3.490 8.211 C 3.955 7.184,4.567 6.304,5.396 5.476 C 6.890 3.982,8.715 3.087,10.810 2.820 C 11.377 2.748,12.732 2.768,13.300 2.857 M7.705 11.289 C 7.498 11.344,7.256 11.590,7.199 11.804 C 7.113 12.122,7.254 12.463,7.547 12.645 L 7.700 12.740 11.833 12.751 C 14.777 12.758,16.014 12.749,16.132 12.717 C 16.472 12.625,16.719 12.231,16.659 11.877 C 16.625 11.671,16.445 11.431,16.255 11.337 C 16.105 11.263,15.955 11.260,11.980 11.254 C 9.245 11.250,7.808 11.261,7.705 11.289 " fill="currentColor" stroke="none" fill-rule="evenodd"></path></symbol><symbol viewBox="0 0 24 24" id="tmrwdao-icon-cross"><path d="M5.534 5.531 C 5.088 5.974,5.000 6.081,5.000 6.180 C 5.000 6.284,5.356 6.655,7.850 9.149 L 10.699 12.000 7.850 14.851 C 5.368 17.333,5.000 17.717,5.000 17.819 C 5.000 17.917,5.090 18.027,5.532 18.468 C 5.973 18.910,6.083 19.000,6.181 19.000 C 6.283 19.000,6.667 18.632,9.149 16.150 L 12.000 13.301 14.851 16.150 C 17.333 18.632,17.717 19.000,17.819 19.000 C 17.917 19.000,18.027 18.910,18.468 18.468 C 18.910 18.027,19.000 17.917,19.000 17.819 C 19.000 17.717,18.632 17.333,16.150 14.851 L 13.301 12.000 16.150 9.149 C 18.644 6.655,19.000 6.284,19.000 6.180 C 19.000 6.081,18.912 5.974,18.466 5.531 C 18.029 5.096,17.911 5.000,17.816 5.000 C 17.717 5.000,17.304 5.397,14.851 7.850 L 12.000 10.699 9.149 7.850 C 6.696 5.397,6.283 5.000,6.184 5.000 C 6.089 5.000,5.971 5.096,5.534 5.531 " fill="currentColor" stroke="none" fill-rule="evenodd"></path></symbol><symbol viewBox="0 0 24 24" id="tmrwdao-icon-custom"><path d="M4.490 3.458 C 3.965 3.624,3.544 4.094,3.420 4.655 C 3.365 4.901,3.358 5.282,3.368 7.460 C 3.380 9.949,3.381 9.983,3.469 10.214 C 3.644 10.680,3.978 11.009,4.476 11.209 C 4.698 11.298,4.720 11.299,7.100 11.312 C 8.659 11.320,9.612 11.310,9.819 11.282 C 10.617 11.175,11.166 10.640,11.278 9.860 C 11.328 9.515,11.332 5.210,11.283 4.830 C 11.211 4.274,10.889 3.811,10.393 3.552 L 10.140 3.420 7.400 3.412 C 5.204 3.406,4.626 3.415,4.490 3.458 M13.793 3.477 C 13.689 3.517,13.542 3.589,13.465 3.637 C 13.239 3.776,12.934 4.141,12.833 4.390 L 12.740 4.620 12.729 7.256 C 12.717 10.161,12.715 10.133,12.965 10.527 C 13.232 10.946,13.638 11.205,14.141 11.278 C 14.505 11.331,18.850 11.331,19.213 11.279 C 19.909 11.178,20.455 10.675,20.599 10.000 C 20.632 9.841,20.642 9.065,20.633 7.200 L 20.620 4.620 20.493 4.351 C 20.323 3.993,20.053 3.711,19.725 3.550 L 19.462 3.420 16.721 3.411 C 14.141 3.403,13.969 3.407,13.793 3.477 M9.936 4.763 L 10.040 4.886 10.040 7.346 L 10.040 9.806 9.923 9.923 L 9.806 10.040 7.360 10.040 C 4.849 10.040,4.810 10.038,4.691 9.883 C 4.654 9.835,4.642 9.224,4.641 7.328 L 4.640 4.836 4.738 4.738 L 4.836 4.640 7.335 4.640 L 9.833 4.640 9.936 4.763 M19.206 4.683 C 19.396 4.785,19.400 4.842,19.400 7.340 C 19.400 9.838,19.396 9.895,19.206 9.997 C 19.151 10.026,18.353 10.040,16.672 10.040 C 13.995 10.040,14.103 10.049,14.005 9.811 C 13.971 9.729,13.961 9.044,13.969 7.266 L 13.980 4.833 14.092 4.737 L 14.204 4.640 16.665 4.640 C 18.351 4.640,19.151 4.654,19.206 4.683 M16.107 12.256 C 15.978 12.310,15.807 12.400,15.727 12.456 C 15.646 12.512,14.867 13.273,13.996 14.149 C 12.274 15.878,12.249 15.909,12.164 16.434 C 12.113 16.752,12.162 17.055,12.321 17.395 C 12.433 17.636,12.589 17.805,14.072 19.288 C 15.582 20.798,15.720 20.926,15.980 21.048 C 16.241 21.171,16.288 21.180,16.681 21.180 C 17.077 21.180,17.118 21.172,17.381 21.045 C 17.636 20.921,17.798 20.771,19.285 19.285 C 20.771 17.798,20.921 17.636,21.045 17.381 C 21.172 17.118,21.180 17.077,21.180 16.681 C 21.180 16.288,21.171 16.242,21.048 15.980 C 20.925 15.720,20.797 15.581,19.288 14.072 C 17.773 12.558,17.641 12.435,17.380 12.313 C 17.136 12.200,17.051 12.181,16.720 12.170 C 16.389 12.159,16.310 12.170,16.107 12.256 M4.567 12.782 C 4.159 12.893,3.754 13.221,3.564 13.593 C 3.364 13.983,3.360 14.050,3.360 16.643 C 3.360 18.099,3.376 19.155,3.400 19.285 C 3.519 19.923,4.024 20.455,4.648 20.598 C 4.752 20.622,5.821 20.638,7.340 20.639 C 9.349 20.639,9.902 20.628,10.066 20.584 C 10.720 20.410,11.181 19.888,11.279 19.213 C 11.331 18.854,11.331 14.507,11.279 14.140 C 11.198 13.569,10.863 13.120,10.329 12.867 L 10.060 12.740 7.420 12.732 C 5.222 12.725,4.744 12.734,4.567 12.782 M18.389 14.971 C 19.851 16.432,19.960 16.551,19.960 16.679 C 19.960 16.808,19.852 16.926,18.410 18.370 C 17.558 19.224,16.820 19.933,16.770 19.946 C 16.721 19.958,16.631 19.957,16.570 19.942 C 16.448 19.912,13.557 17.061,13.457 16.872 C 13.426 16.813,13.400 16.705,13.400 16.633 C 13.400 16.514,13.542 16.361,14.951 14.951 C 16.470 13.432,16.505 13.400,16.661 13.400 C 16.816 13.400,16.851 13.432,18.389 14.971 M9.841 14.020 C 9.905 14.054,9.976 14.115,9.999 14.158 C 10.026 14.208,10.040 15.082,10.040 16.688 C 10.040 19.365,10.049 19.257,9.811 19.355 C 9.729 19.389,9.044 19.399,7.266 19.391 L 4.833 19.380 4.737 19.268 L 4.640 19.156 4.640 16.687 C 4.640 14.010,4.634 14.089,4.854 14.000 C 4.901 13.981,6.016 13.964,7.332 13.963 C 9.391 13.960,9.740 13.968,9.841 14.020 " fill="currentColor" stroke="none" fill-rule="evenodd"></path></symbol><symbol viewBox="0 0 24 24" id="tmrwdao-icon-default-arrow"><path d="M4.000 6.320 L 4.000 7.640 9.838 7.650 L 15.675 7.660 9.860 13.640 C 6.661 16.929,4.043 19.633,4.042 19.650 C 4.041 19.667,4.873 19.679,5.890 19.679 L 7.740 19.677 12.740 14.531 L 17.740 9.384 17.750 14.533 L 17.760 19.681 19.030 19.671 L 20.300 19.660 20.310 12.330 L 20.320 5.000 12.160 5.000 L 4.000 5.000 4.000 6.320 " fill="currentColor" stroke="none" fill-rule="evenodd"></path></symbol><symbol viewBox="0 0 24 24" id="tmrwdao-icon-delete"><path d="M10.102 3.043 C 9.523 3.131,9.092 3.371,8.845 3.745 C 8.668 4.013,8.564 4.364,8.425 5.176 L 8.300 5.900 7.900 5.928 C 6.878 5.999,4.460 6.223,4.267 6.264 C 4.096 6.300,3.887 6.505,3.839 6.684 C 3.753 7.002,3.950 7.349,4.265 7.436 C 4.358 7.462,4.581 7.457,4.951 7.420 C 5.252 7.390,5.507 7.373,5.517 7.384 C 5.527 7.394,5.656 9.638,5.803 12.371 C 5.950 15.104,6.091 17.584,6.115 17.883 C 6.193 18.828,6.385 19.377,6.778 19.769 C 7.180 20.171,7.788 20.404,8.628 20.478 C 9.224 20.530,14.219 20.532,14.840 20.480 C 16.408 20.350,17.132 19.740,17.339 18.373 C 17.370 18.172,17.524 15.616,17.682 12.693 C 17.841 9.771,17.973 7.376,17.976 7.372 C 17.980 7.367,18.230 7.388,18.532 7.418 C 19.132 7.478,19.309 7.457,19.474 7.306 C 19.784 7.021,19.735 6.532,19.376 6.334 C 19.242 6.260,19.054 6.233,18.040 6.145 C 17.391 6.089,16.504 6.020,16.069 5.993 C 15.633 5.966,15.260 5.933,15.239 5.920 C 15.218 5.907,15.146 5.576,15.079 5.185 C 15.011 4.794,14.923 4.368,14.883 4.239 C 14.694 3.633,14.323 3.288,13.649 3.092 C 13.456 3.036,13.177 3.024,11.880 3.016 C 11.033 3.011,10.233 3.023,10.102 3.043 M13.535 4.333 C 13.687 4.433,13.742 4.583,13.839 5.164 C 13.884 5.437,13.931 5.705,13.942 5.760 L 13.962 5.860 11.771 5.846 C 10.566 5.839,9.576 5.828,9.571 5.824 C 9.555 5.808,9.759 4.706,9.802 4.575 C 9.851 4.425,9.951 4.328,10.106 4.280 C 10.169 4.261,10.941 4.248,11.822 4.253 C 13.299 4.259,13.432 4.266,13.535 4.333 M13.220 7.080 C 14.596 7.124,16.643 7.239,16.702 7.275 C 16.731 7.292,16.654 8.947,16.458 12.560 C 16.300 15.453,16.158 17.945,16.142 18.097 C 16.062 18.841,15.834 19.103,15.163 19.223 C 14.722 19.302,8.797 19.302,8.357 19.223 C 7.620 19.092,7.417 18.815,7.340 17.840 C 7.304 17.386,6.759 7.267,6.770 7.256 C 6.791 7.236,7.862 7.160,8.680 7.120 C 10.275 7.041,11.674 7.029,13.220 7.080 M9.410 12.640 C 9.009 12.884,9.027 13.481,9.441 13.690 C 9.570 13.756,9.747 13.760,11.800 13.750 C 13.948 13.740,14.024 13.737,14.129 13.660 C 14.393 13.467,14.467 13.063,14.285 12.807 C 14.106 12.556,14.149 12.560,11.734 12.560 C 9.615 12.560,9.536 12.563,9.410 12.640 M10.108 14.883 C 9.880 15.005,9.792 15.171,9.810 15.450 C 9.823 15.648,9.844 15.701,9.961 15.821 C 10.036 15.898,10.166 15.980,10.250 16.003 C 10.345 16.028,10.940 16.039,11.831 16.032 C 13.414 16.019,13.416 16.018,13.607 15.751 C 13.676 15.654,13.700 15.566,13.700 15.413 C 13.700 15.189,13.627 15.053,13.425 14.902 C 13.318 14.823,13.260 14.820,11.787 14.811 C 10.322 14.802,10.254 14.805,10.108 14.883 " fill="currentColor" stroke="none" fill-rule="evenodd"></path></symbol><symbol viewBox="0 0 24 24" id="tmrwdao-icon-discord"><path d="M8.620 6.122 C 7.922 6.268,7.120 6.502,6.452 6.755 C 5.621 7.069,5.677 7.027,5.277 7.656 C 4.075 9.549,3.390 11.395,3.095 13.540 C 3.041 13.935,3.023 14.334,3.022 15.200 C 3.021 15.827,3.034 16.421,3.051 16.520 C 3.082 16.695,3.094 16.708,3.517 16.989 C 4.518 17.657,5.753 18.259,6.937 18.659 L 7.495 18.847 7.569 18.753 C 7.722 18.560,8.158 17.890,8.300 17.630 L 8.447 17.361 8.353 17.324 C 7.958 17.171,7.768 17.088,7.410 16.911 C 7.185 16.800,7.000 16.695,7.000 16.678 C 7.000 16.661,7.071 16.591,7.157 16.522 L 7.314 16.398 7.647 16.535 C 8.418 16.853,9.419 17.122,10.360 17.265 C 10.937 17.353,12.435 17.365,13.000 17.286 C 13.981 17.149,14.861 16.921,15.716 16.584 L 16.172 16.403 16.325 16.512 C 16.409 16.571,16.479 16.641,16.479 16.666 C 16.480 16.721,15.915 17.015,15.445 17.205 C 15.261 17.279,15.102 17.361,15.092 17.387 C 15.082 17.413,15.123 17.521,15.183 17.627 C 15.376 17.965,15.965 18.840,16.000 18.840 C 16.074 18.840,17.245 18.419,17.636 18.252 C 18.460 17.900,19.286 17.452,20.026 16.956 L 20.431 16.684 20.462 16.272 C 20.511 15.613,20.490 14.329,20.419 13.710 C 20.167 11.502,19.455 9.560,18.174 7.590 C 17.856 7.101,17.834 7.076,17.611 6.978 C 17.235 6.811,16.421 6.525,15.903 6.376 C 15.351 6.219,14.286 5.989,14.221 6.014 C 14.197 6.023,14.079 6.231,13.959 6.475 C 13.802 6.794,13.723 6.914,13.680 6.901 C 13.268 6.778,11.030 6.743,10.208 6.846 L 9.756 6.903 9.598 6.582 C 9.386 6.150,9.291 6.000,9.231 6.002 C 9.203 6.004,8.928 6.057,8.620 6.122 M9.410 11.478 C 9.744 11.605,10.044 11.896,10.230 12.272 C 10.378 12.572,10.380 12.581,10.380 13.058 C 10.380 13.518,10.374 13.553,10.252 13.811 C 9.763 14.843,8.526 15.067,7.764 14.260 C 7.538 14.021,7.424 13.815,7.340 13.493 C 7.102 12.582,7.641 11.620,8.510 11.401 C 8.736 11.344,9.152 11.380,9.410 11.478 M15.292 11.510 C 16.295 11.980,16.548 13.415,15.773 14.243 C 15.356 14.689,14.814 14.853,14.277 14.696 C 13.106 14.354,12.704 12.778,13.556 11.867 C 14.024 11.366,14.691 11.229,15.292 11.510 " fill="currentColor" stroke="none" fill-rule="evenodd"></path></symbol><symbol viewBox="0 0 24 24" id="tmrwdao-icon-document"><path d="M7.427 2.044 C 5.035 2.281,3.538 3.653,3.088 6.020 C 3.026 6.348,3.020 6.853,3.020 11.760 C 3.020 17.762,3.009 17.493,3.300 18.383 C 3.848 20.056,4.982 21.038,6.840 21.447 L 7.260 21.540 11.860 21.540 C 16.153 21.540,16.484 21.535,16.819 21.467 C 17.702 21.287,18.467 20.951,19.041 20.490 C 19.795 19.884,20.261 19.131,20.540 18.066 C 20.743 17.291,20.740 17.378,20.740 11.740 C 20.740 5.946,20.750 6.206,20.499 5.340 C 20.044 3.770,18.949 2.678,17.398 2.246 C 16.586 2.019,16.776 2.027,12.100 2.018 C 9.724 2.013,7.621 2.025,7.427 2.044 M16.140 3.401 C 16.758 3.458,17.196 3.574,17.663 3.803 C 18.518 4.221,19.037 4.932,19.267 6.001 C 19.336 6.320,19.340 6.663,19.340 11.840 L 19.340 17.340 19.231 17.740 C 19.171 17.960,19.038 18.310,18.936 18.517 C 18.785 18.822,18.687 18.957,18.425 19.221 C 18.050 19.599,17.723 19.796,17.191 19.967 C 16.472 20.198,16.446 20.200,11.893 20.200 C 9.164 20.200,7.618 20.185,7.413 20.157 C 6.660 20.055,5.954 19.783,5.533 19.432 C 4.883 18.892,4.505 18.069,4.401 16.967 C 4.345 16.381,4.346 7.147,4.402 6.594 C 4.599 4.636,5.606 3.606,7.521 3.406 C 8.008 3.355,15.598 3.351,16.140 3.401 M13.856 4.356 C 13.766 4.397,13.649 4.491,13.596 4.565 C 13.500 4.699,13.500 4.705,13.488 5.913 C 13.477 7.042,13.482 7.147,13.561 7.433 C 13.777 8.223,14.352 8.844,15.140 9.137 L 15.460 9.256 16.660 9.271 C 17.462 9.282,17.909 9.272,18.008 9.242 C 18.096 9.216,18.212 9.133,18.295 9.035 C 18.593 8.687,18.506 8.268,18.070 7.953 C 18.064 7.949,17.520 7.935,16.860 7.923 L 15.660 7.900 15.447 7.782 C 15.214 7.653,15.083 7.518,14.948 7.265 C 14.865 7.108,14.859 7.039,14.840 5.920 C 14.819 4.673,14.818 4.666,14.613 4.473 C 14.398 4.268,14.138 4.228,13.856 4.356 M8.085 12.039 C 7.590 12.159,7.394 12.762,7.726 13.140 C 7.945 13.390,8.032 13.400,10.025 13.400 C 11.150 13.400,11.870 13.384,11.999 13.357 C 12.622 13.223,12.749 12.425,12.200 12.102 C 12.064 12.023,11.998 12.020,10.140 12.013 C 9.084 12.009,8.159 12.021,8.085 12.039 M8.085 15.679 C 7.926 15.718,7.777 15.822,7.662 15.975 C 7.599 16.060,7.580 16.146,7.580 16.340 C 7.580 16.534,7.599 16.620,7.662 16.705 C 7.782 16.864,7.924 16.960,8.103 17.002 C 8.344 17.058,15.442 17.051,15.665 16.995 C 16.266 16.843,16.376 16.057,15.840 15.742 C 15.702 15.661,15.655 15.660,11.960 15.653 C 9.903 15.650,8.159 15.662,8.085 15.679 " fill="currentColor" stroke="none" fill-rule="evenodd"></path></symbol><symbol viewBox="0 0 24 24" id="tmrwdao-icon-down-arrow"><path d="M4.715 7.182 C 4.481 7.255,4.223 7.525,4.158 7.766 C 4.106 7.962,4.131 8.228,4.217 8.391 C 4.249 8.451,6.013 10.237,8.137 12.360 L 12.000 16.220 15.879 12.341 C 19.979 8.241,19.880 8.349,19.880 8.000 C 19.880 7.782,19.756 7.523,19.575 7.364 C 19.342 7.159,19.085 7.092,18.790 7.160 C 18.582 7.208,18.547 7.242,15.290 10.494 L 12.000 13.779 8.710 10.495 C 5.599 7.389,5.410 7.208,5.232 7.165 C 5.000 7.109,4.947 7.111,4.715 7.182 " fill="currentColor" stroke="none" fill-rule="evenodd"></path></symbol><symbol viewBox="0 0 24 24" id="tmrwdao-icon-duplicate"><path d="M10.500 3.276 C 10.182 3.356,10.004 3.527,9.923 3.830 C 9.837 4.148,10.007 4.515,10.308 4.664 C 10.453 4.737,10.640 4.741,14.480 4.760 L 18.500 4.780 18.765 4.886 C 19.427 5.152,19.848 5.572,20.111 6.229 L 20.220 6.500 20.240 10.520 C 20.259 14.360,20.263 14.547,20.336 14.692 C 20.481 14.986,20.853 15.163,21.154 15.082 C 21.378 15.021,21.561 14.882,21.657 14.700 C 21.739 14.541,21.740 14.504,21.752 10.700 C 21.759 8.103,21.749 6.750,21.719 6.520 C 21.662 6.067,21.455 5.473,21.215 5.072 C 21.005 4.721,20.465 4.137,20.158 3.930 C 19.826 3.706,19.322 3.476,18.928 3.368 L 18.540 3.262 14.580 3.254 C 12.402 3.250,10.566 3.260,10.500 3.276 M6.679 7.042 C 5.575 7.163,4.646 7.970,4.333 9.080 C 4.264 9.325,4.260 9.601,4.260 13.880 C 4.260 18.145,4.264 18.436,4.333 18.680 C 4.603 19.647,5.321 20.371,6.300 20.665 C 6.524 20.733,6.841 20.738,10.980 20.750 C 14.928 20.761,15.455 20.755,15.738 20.698 C 16.841 20.476,17.627 19.716,17.927 18.580 C 17.969 18.420,17.980 17.485,17.980 13.880 C 17.980 8.823,18.001 9.192,17.674 8.520 C 17.442 8.043,16.961 7.563,16.478 7.326 C 15.815 7.002,16.187 7.024,11.320 7.016 C 8.933 7.012,6.845 7.023,6.679 7.042 M15.780 8.647 C 16.020 8.774,16.237 8.995,16.366 9.240 L 16.460 9.420 16.460 13.880 L 16.460 18.340 16.354 18.540 C 16.220 18.793,16.000 19.013,15.764 19.129 L 15.580 19.220 11.173 19.231 C 6.798 19.241,6.764 19.240,6.544 19.158 C 6.276 19.058,6.013 18.814,5.878 18.539 L 5.780 18.340 5.769 13.960 C 5.760 10.711,5.769 9.536,5.804 9.410 C 5.864 9.191,6.065 8.909,6.264 8.763 C 6.610 8.510,6.345 8.522,11.180 8.532 L 15.580 8.540 15.780 8.647 " fill="currentColor" stroke="none" fill-rule="evenodd"></path></symbol><symbol viewBox="0 0 24 24" id="tmrwdao-icon-edit"><path d="M16.100 3.059 C 15.778 3.130,15.482 3.251,15.207 3.424 C 15.053 3.521,13.149 5.395,9.306 9.234 C 4.906 13.627,3.587 14.966,3.436 15.195 C 3.328 15.357,3.191 15.636,3.130 15.815 L 3.020 16.140 3.008 18.293 L 2.997 20.446 5.108 20.430 C 7.465 20.412,7.376 20.421,8.000 20.117 L 8.340 19.951 14.072 14.225 C 18.149 10.154,19.854 8.425,19.976 8.240 C 20.283 7.774,20.411 7.350,20.410 6.800 C 20.410 6.351,20.333 6.021,20.130 5.600 C 19.999 5.328,19.901 5.215,19.063 4.377 C 18.189 3.502,18.122 3.445,17.800 3.289 C 17.246 3.021,16.643 2.940,16.100 3.059 M17.220 4.400 C 17.415 4.494,17.599 4.657,18.203 5.268 C 19.096 6.172,19.138 6.242,19.139 6.800 C 19.140 7.154,19.131 7.196,19.009 7.422 C 18.916 7.593,18.695 7.846,18.249 8.291 L 17.619 8.920 16.060 7.359 L 14.500 5.798 15.160 5.144 C 15.523 4.785,15.883 4.458,15.960 4.418 C 16.342 4.218,16.827 4.211,17.220 4.400 M12.160 14.375 C 8.470 18.060,7.541 18.968,7.380 19.045 C 7.182 19.139,7.165 19.140,5.710 19.152 L 4.240 19.164 4.240 17.887 C 4.240 16.565,4.263 16.308,4.406 16.001 C 4.471 15.863,5.570 14.739,9.055 11.250 L 13.620 6.680 15.180 8.240 L 16.740 9.800 12.160 14.375 " fill="currentColor" stroke="none" fill-rule="evenodd"></path></symbol><symbol viewBox="0 0 24 24" id="tmrwdao-icon-facebook"><path d="M11.040 3.725 C 7.274 4.158,4.279 7.097,3.740 10.888 C 3.664 11.423,3.664 12.577,3.740 13.112 C 4.236 16.600,6.781 19.366,10.204 20.136 C 10.454 20.192,10.672 20.224,10.689 20.207 C 10.707 20.189,10.716 18.880,10.710 17.298 L 10.700 14.420 9.650 14.409 L 8.600 14.399 8.600 13.199 L 8.600 12.000 9.660 12.000 L 10.720 12.000 10.721 10.810 C 10.721 9.788,10.732 9.566,10.799 9.240 C 10.977 8.374,11.519 7.639,12.240 7.286 C 12.661 7.080,13.099 6.967,13.598 6.935 C 13.983 6.910,14.879 6.965,15.426 7.046 L 15.721 7.090 15.711 8.115 L 15.700 9.140 14.920 9.160 C 14.169 9.180,14.132 9.185,13.934 9.289 C 13.821 9.348,13.664 9.473,13.584 9.567 C 13.344 9.846,13.311 10.018,13.290 11.070 L 13.272 12.000 14.436 12.000 C 15.076 12.000,15.600 12.014,15.600 12.031 C 15.600 12.077,15.283 14.163,15.257 14.289 L 15.234 14.399 14.267 14.409 L 13.300 14.420 13.290 17.298 C 13.284 18.880,13.293 20.189,13.311 20.207 C 13.357 20.253,14.182 20.057,14.713 19.874 C 17.133 19.039,19.049 17.125,19.872 14.720 C 20.187 13.798,20.320 13.003,20.320 12.034 C 20.320 11.012,20.205 10.289,19.896 9.360 C 18.871 6.279,16.147 4.084,12.900 3.721 C 12.477 3.674,11.467 3.676,11.040 3.725 " fill="currentColor" stroke="none" fill-rule="evenodd"></path></symbol><symbol viewBox="0 0 24 24" id="tmrwdao-icon-github"><path d="M11.280 3.025 C 10.823 3.067,10.179 3.175,9.750 3.281 C 7.277 3.898,5.104 5.638,3.961 7.920 C 2.219 11.396,2.886 15.500,5.638 18.240 C 6.531 19.128,7.485 19.761,8.626 20.221 C 9.081 20.405,9.222 20.428,9.322 20.339 C 9.395 20.272,9.400 20.210,9.400 19.338 L 9.400 18.409 8.750 18.390 C 8.182 18.374,8.063 18.358,7.802 18.267 C 7.434 18.138,7.115 17.922,6.911 17.663 C 6.723 17.426,6.644 17.274,6.504 16.884 C 6.369 16.508,6.223 16.326,5.844 16.060 C 5.442 15.778,5.329 15.658,5.385 15.569 C 5.409 15.532,5.507 15.478,5.604 15.449 C 6.095 15.302,6.640 15.648,7.288 16.518 C 7.598 16.935,7.802 17.094,8.168 17.205 C 8.409 17.279,8.511 17.288,8.875 17.268 C 9.458 17.236,9.456 17.237,9.560 16.946 C 9.660 16.670,9.826 16.380,10.025 16.137 L 10.159 15.973 9.835 15.904 C 7.963 15.502,6.712 14.404,6.310 12.811 C 6.235 12.514,6.222 12.350,6.221 11.740 C 6.221 11.104,6.232 10.980,6.316 10.680 C 6.440 10.233,6.710 9.670,6.956 9.346 L 7.153 9.084 7.093 8.892 C 7.011 8.633,6.978 7.801,7.036 7.467 C 7.061 7.321,7.119 7.082,7.164 6.936 L 7.246 6.670 7.564 6.698 C 8.167 6.751,8.862 7.013,9.450 7.411 L 9.721 7.594 10.086 7.519 C 10.713 7.390,11.194 7.347,11.980 7.346 C 12.771 7.346,13.241 7.390,13.874 7.521 L 14.248 7.599 14.625 7.363 C 15.268 6.960,15.860 6.753,16.398 6.745 L 16.695 6.740 16.785 7.024 C 16.971 7.615,16.998 8.293,16.857 8.847 L 16.799 9.074 17.021 9.383 C 17.296 9.766,17.483 10.152,17.622 10.620 C 17.764 11.098,17.802 11.990,17.705 12.546 C 17.531 13.543,17.015 14.391,16.207 15.004 C 15.709 15.382,14.914 15.727,14.140 15.903 C 13.964 15.942,13.812 15.981,13.803 15.988 C 13.794 15.995,13.831 16.050,13.887 16.110 C 14.154 16.400,14.406 16.906,14.477 17.297 C 14.502 17.435,14.520 18.075,14.520 18.821 C 14.520 20.195,14.537 20.343,14.702 20.384 C 14.882 20.429,15.779 20.061,16.461 19.662 C 17.352 19.141,18.326 18.310,18.948 17.540 C 20.003 16.234,20.675 14.635,20.882 12.940 C 20.954 12.347,20.936 11.298,20.843 10.658 C 20.270 6.743,17.228 3.704,13.280 3.102 C 12.870 3.039,11.639 2.992,11.280 3.025 " fill="currentColor" stroke="none" fill-rule="evenodd"></path></symbol><symbol viewBox="0 0 24 24" id="tmrwdao-icon-information-filled"><path d="M11.120 2.039 C 9.316 2.220,7.707 2.807,6.280 3.806 C 2.738 6.286,1.178 10.759,2.422 14.865 C 2.918 16.499,3.728 17.850,4.939 19.061 C 5.928 20.050,7.038 20.788,8.272 21.278 C 11.634 22.610,15.313 22.080,18.200 19.845 C 18.637 19.507,19.507 18.637,19.845 18.200 C 21.255 16.379,22.000 14.234,22.000 12.000 C 22.000 7.432,18.842 3.387,14.430 2.303 C 13.446 2.062,12.028 1.948,11.120 2.039 M12.613 7.171 C 13.524 7.670,13.490 8.948,12.552 9.448 C 12.407 9.525,12.319 9.540,12.000 9.540 C 11.681 9.540,11.593 9.525,11.448 9.448 C 11.024 9.222,10.767 8.843,10.731 8.387 C 10.691 7.892,10.934 7.423,11.353 7.188 C 11.635 7.030,11.767 7.000,12.093 7.019 C 12.308 7.032,12.418 7.064,12.613 7.171 M12.796 10.656 C 12.880 10.732,12.880 10.734,12.880 13.786 C 12.880 16.787,12.879 16.841,12.800 16.920 C 12.726 16.994,12.667 17.000,12.000 17.000 C 11.333 17.000,11.274 16.994,11.200 16.920 C 11.121 16.841,11.120 16.787,11.120 13.786 C 11.120 10.928,11.124 10.728,11.190 10.671 C 11.307 10.569,11.357 10.563,12.046 10.572 C 12.638 10.579,12.721 10.588,12.796 10.656 " fill="currentColor" stroke="none" fill-rule="evenodd"></path></symbol><symbol viewBox="0 0 24 24" id="tmrwdao-icon-information"><path d="M11.120 2.039 C 8.020 2.349,5.361 3.939,3.659 6.500 C 1.048 10.428,1.568 15.667,4.900 19.022 C 5.878 20.007,6.984 20.750,8.220 21.254 C 11.958 22.779,16.203 21.920,19.062 19.062 C 23.445 14.678,22.834 7.442,17.778 3.853 C 16.479 2.930,15.094 2.370,13.493 2.119 C 12.909 2.027,11.660 1.985,11.120 2.039 M13.108 3.582 C 16.291 3.996,18.985 6.199,20.032 9.242 C 20.641 11.014,20.637 13.030,20.020 14.797 C 19.284 16.903,17.742 18.641,15.740 19.622 C 14.520 20.220,13.364 20.487,12.000 20.487 C 10.963 20.487,10.206 20.362,9.240 20.032 C 6.504 19.098,4.382 16.752,3.727 13.940 C 3.452 12.757,3.452 11.243,3.727 10.060 C 4.451 6.951,6.972 4.436,10.080 3.723 C 10.969 3.519,12.192 3.462,13.108 3.582 M11.689 7.256 C 10.833 7.535,10.763 8.726,11.580 9.106 C 11.945 9.276,12.403 9.203,12.694 8.928 C 13.050 8.590,13.091 7.985,12.785 7.583 C 12.564 7.293,12.049 7.139,11.689 7.256 M11.699 10.696 C 11.531 10.769,11.332 11.009,11.280 11.198 C 11.252 11.306,11.241 12.114,11.249 13.669 L 11.260 15.980 11.372 16.170 C 11.552 16.476,11.874 16.602,12.220 16.502 C 12.464 16.431,12.651 16.247,12.720 16.011 C 12.751 15.906,12.761 15.133,12.752 13.497 L 12.740 11.134 12.633 10.972 C 12.444 10.686,12.013 10.559,11.699 10.696 " fill="currentColor" stroke="none" fill-rule="evenodd"></path></symbol><symbol viewBox="0 0 24 24" id="tmrwdao-icon-log-out"><path d="M8.420 3.806 C 8.156 3.825,7.715 3.878,7.440 3.924 C 5.429 4.256,4.930 5.064,4.801 8.200 C 4.750 9.410,4.750 13.735,4.801 14.980 C 4.930 18.209,5.376 18.868,7.619 19.150 C 8.438 19.252,11.525 19.252,12.340 19.149 C 13.553 18.996,14.288 18.717,14.655 18.269 C 15.045 17.793,15.238 16.973,15.241 15.786 C 15.242 15.479,15.260 15.341,15.315 15.218 C 15.410 15.010,15.601 14.851,15.823 14.795 L 16.000 14.751 16.000 11.504 L 16.000 8.257 15.822 8.209 C 15.724 8.183,15.582 8.106,15.505 8.039 C 15.278 7.839,15.247 7.692,15.226 6.680 C 15.204 5.662,15.151 5.324,14.952 4.951 C 14.883 4.821,14.752 4.651,14.663 4.574 C 14.184 4.164,13.174 3.909,11.607 3.802 C 10.894 3.753,9.115 3.756,8.420 3.806 M18.760 11.600 L 18.760 13.220 19.570 12.410 L 20.380 11.600 19.570 10.790 L 18.760 9.980 18.760 11.600 " stroke="none" fill-rule="evenodd"></path></symbol><symbol viewBox="0 0 24 24" id="tmrwdao-icon-logout"><path d="M8.786 2.280 C 6.749 2.381,5.547 2.746,4.713 3.516 C 4.248 3.945,3.959 4.411,3.725 5.110 C 3.318 6.327,3.216 7.902,3.253 12.440 C 3.274 15.068,3.299 15.773,3.403 16.620 C 3.687 18.925,4.572 20.029,6.497 20.481 C 7.252 20.658,8.513 20.758,9.980 20.759 C 12.474 20.759,13.991 20.502,15.020 19.903 C 15.404 19.679,15.934 19.142,16.148 18.760 C 16.349 18.402,16.534 17.865,16.618 17.399 C 16.698 16.953,16.781 15.670,16.745 15.433 C 16.654 14.837,15.970 14.568,15.516 14.949 C 15.304 15.128,15.242 15.320,15.241 15.803 C 15.240 16.360,15.171 17.024,15.076 17.399 C 14.798 18.487,14.149 18.907,12.371 19.148 C 11.613 19.251,8.287 19.251,7.560 19.149 C 6.875 19.052,6.478 18.947,6.094 18.759 C 5.307 18.375,5.013 17.702,4.837 15.880 C 4.771 15.202,4.741 9.294,4.797 8.149 C 4.898 6.111,5.125 5.230,5.697 4.656 C 6.314 4.038,7.302 3.812,9.580 3.772 C 12.870 3.713,14.544 4.085,14.978 4.972 C 15.156 5.335,15.204 5.664,15.226 6.660 C 15.237 7.166,15.264 7.639,15.286 7.711 C 15.375 7.998,15.700 8.238,16.000 8.238 C 16.319 8.238,16.636 7.988,16.724 7.668 C 16.785 7.448,16.744 5.960,16.663 5.440 C 16.537 4.629,16.266 4.057,15.780 3.575 C 15.052 2.855,13.912 2.475,12.020 2.323 C 11.305 2.265,9.553 2.242,8.786 2.280 M18.355 8.315 C 18.063 8.500,17.936 8.861,18.054 9.170 C 18.103 9.297,18.308 9.529,18.860 10.080 C 19.267 10.486,19.600 10.833,19.600 10.850 C 19.600 10.866,17.840 10.880,15.688 10.880 L 11.776 10.880 11.595 10.995 C 11.096 11.311,11.154 12.038,11.698 12.285 C 11.852 12.354,12.062 12.358,15.738 12.359 L 19.616 12.360 18.852 13.130 C 18.069 13.920,17.999 14.018,18.001 14.320 C 18.002 14.457,18.129 14.721,18.245 14.828 C 18.370 14.943,18.606 15.040,18.760 15.040 C 19.035 15.040,19.164 14.933,20.578 13.528 C 21.347 12.765,22.018 12.082,22.069 12.011 C 22.120 11.940,22.172 11.803,22.185 11.706 C 22.234 11.349,22.217 11.327,20.725 9.825 C 19.963 9.058,19.260 8.379,19.162 8.315 C 18.912 8.153,18.610 8.153,18.355 8.315 " fill="currentColor" stroke="none" fill-rule="evenodd"></path></symbol><symbol viewBox="0 0 24 24" id="tmrwdao-icon-percentage"><path d="M7.376 6.037 C 6.603 6.161,5.823 6.714,5.468 7.391 C 5.160 7.977,5.041 8.466,5.012 9.260 C 4.967 10.522,5.294 11.465,6.014 12.149 C 6.505 12.615,7.100 12.841,7.836 12.839 C 8.592 12.838,9.159 12.629,9.642 12.172 C 10.343 11.511,10.678 10.644,10.683 9.480 C 10.684 9.182,10.665 8.813,10.640 8.660 C 10.392 7.087,9.371 6.072,7.986 6.020 C 7.762 6.011,7.488 6.019,7.376 6.037 M11.188 12.390 L 6.879 18.700 7.405 18.711 C 7.694 18.717,7.935 18.717,7.940 18.711 C 8.032 18.594,16.490 6.181,16.506 6.140 C 16.525 6.089,16.453 6.080,16.013 6.080 L 15.497 6.080 11.188 12.390 M8.419 6.907 C 9.010 7.087,9.497 7.682,9.679 8.446 C 9.903 9.384,9.779 10.503,9.378 11.163 C 8.621 12.409,6.843 12.312,6.220 10.991 C 6.006 10.538,5.953 10.286,5.931 9.620 C 5.908 8.948,5.952 8.571,6.101 8.142 C 6.216 7.811,6.507 7.369,6.721 7.199 C 7.174 6.841,7.832 6.727,8.419 6.907 M14.889 12.038 C 14.409 12.168,14.063 12.374,13.675 12.758 C 13.384 13.047,13.302 13.159,13.147 13.480 C 12.916 13.958,12.812 14.339,12.754 14.910 C 12.704 15.405,12.748 16.060,12.861 16.501 C 13.228 17.930,14.250 18.796,15.572 18.799 C 17.151 18.803,18.222 17.683,18.408 15.833 C 18.496 14.967,18.341 14.105,17.969 13.382 C 17.654 12.771,17.080 12.280,16.440 12.074 C 16.053 11.950,15.280 11.932,14.889 12.038 M15.968 12.804 C 16.656 12.948,17.230 13.587,17.427 14.430 C 17.527 14.854,17.526 15.934,17.426 16.339 C 17.144 17.480,16.272 18.140,15.281 17.963 C 14.523 17.827,13.993 17.289,13.752 16.412 C 13.680 16.147,13.667 15.992,13.667 15.380 C 13.667 14.768,13.680 14.613,13.752 14.348 C 14.067 13.199,14.941 12.590,15.968 12.804 " fill="currentColor" stroke="none" fill-rule="evenodd"></path></symbol><symbol viewBox="0 0 24 24" id="tmrwdao-icon-profile"><path d="M11.120 2.039 C 10.615 2.090,10.031 2.190,9.580 2.303 C 5.841 3.243,2.956 6.264,2.201 10.032 C 1.637 12.844,2.295 15.710,4.034 18.020 C 4.274 18.339,4.414 18.497,4.917 19.021 C 7.230 21.434,10.783 22.501,14.080 21.775 C 16.075 21.335,17.781 20.383,19.160 18.939 C 20.464 17.575,21.264 16.140,21.699 14.388 C 21.888 13.623,21.956 13.145,21.986 12.360 C 22.166 7.661,19.003 3.459,14.417 2.302 C 13.472 2.064,12.026 1.949,11.120 2.039 M13.108 3.582 C 16.912 4.077,19.923 7.088,20.418 10.892 C 20.497 11.497,20.497 12.504,20.418 13.108 C 20.195 14.816,19.440 16.433,18.247 17.753 L 18.054 17.967 17.777 17.679 C 16.791 16.655,15.226 15.955,13.340 15.693 C 12.677 15.601,11.308 15.602,10.660 15.695 C 8.797 15.962,7.318 16.608,6.321 17.590 L 5.943 17.963 5.752 17.752 C 4.561 16.434,3.804 14.815,3.582 13.108 C 3.503 12.504,3.503 11.497,3.582 10.892 C 4.075 7.104,7.075 4.092,10.860 3.582 C 11.419 3.507,12.533 3.507,13.108 3.582 M11.555 6.959 C 10.982 7.031,10.339 7.275,9.842 7.610 C 9.535 7.817,8.995 8.401,8.785 8.752 C 7.916 10.207,8.128 12.063,9.300 13.261 C 9.959 13.934,10.704 14.292,11.673 14.400 C 12.318 14.472,12.938 14.360,13.595 14.055 C 14.843 13.474,15.624 12.327,15.743 10.899 C 15.799 10.229,15.590 9.380,15.215 8.752 C 15.005 8.401,14.465 7.817,14.158 7.610 C 13.408 7.104,12.406 6.854,11.555 6.959 " fill="currentColor" stroke="none" fill-rule="evenodd"></path></symbol><symbol viewBox="0 0 24 24" id="tmrwdao-icon-reddit"><path d="M17.820 4.053 C 17.534 4.149,17.342 4.269,17.156 4.467 C 17.056 4.573,16.955 4.696,16.931 4.739 C 16.889 4.814,16.833 4.805,15.140 4.445 C 13.600 4.117,13.379 4.079,13.275 4.122 C 13.210 4.149,13.136 4.209,13.111 4.255 C 13.086 4.302,12.829 5.447,12.540 6.800 L 12.016 9.259 11.455 9.306 C 10.779 9.361,10.447 9.410,9.840 9.545 C 8.693 9.799,7.534 10.280,6.663 10.864 L 6.467 10.996 6.323 10.883 C 5.511 10.244,4.336 10.310,3.610 11.036 C 2.804 11.843,2.800 13.114,3.603 13.917 C 3.728 14.042,3.909 14.185,4.005 14.236 L 4.180 14.329 4.183 14.955 C 4.186 15.497,4.200 15.632,4.291 15.971 C 4.503 16.762,4.909 17.454,5.560 18.134 C 8.247 20.940,13.812 21.508,17.559 19.359 C 18.892 18.594,19.870 17.513,20.290 16.340 C 20.464 15.857,20.526 15.451,20.516 14.879 L 20.507 14.360 20.744 14.206 C 21.864 13.478,22.028 11.979,21.091 11.044 C 20.570 10.524,19.888 10.331,19.169 10.500 C 18.873 10.570,18.682 10.662,18.424 10.859 L 18.235 11.003 17.928 10.799 C 17.542 10.544,16.623 10.090,16.110 9.902 C 15.310 9.608,14.321 9.398,13.344 9.314 C 12.852 9.271,12.763 9.253,12.778 9.202 C 12.788 9.168,12.998 8.186,13.244 7.020 C 13.491 5.854,13.694 4.897,13.697 4.893 C 13.704 4.881,16.688 5.520,16.720 5.540 C 16.736 5.550,16.759 5.629,16.770 5.716 C 16.827 6.140,17.162 6.577,17.591 6.788 C 17.793 6.887,17.864 6.900,18.200 6.900 C 18.535 6.900,18.607 6.886,18.809 6.788 C 19.931 6.238,19.932 4.678,18.812 4.151 C 18.515 4.012,18.075 3.968,17.820 4.053 M9.687 12.592 C 10.136 12.795,10.430 13.145,10.546 13.616 C 10.707 14.266,10.383 14.946,9.769 15.249 C 9.527 15.368,9.468 15.380,9.141 15.380 C 8.829 15.380,8.747 15.365,8.540 15.268 C 8.236 15.126,7.988 14.886,7.828 14.580 C 7.714 14.361,7.703 14.306,7.702 13.960 C 7.700 13.631,7.714 13.550,7.805 13.355 C 7.996 12.949,8.341 12.650,8.757 12.532 C 9.002 12.463,9.467 12.492,9.687 12.592 M15.963 12.544 C 16.404 12.673,16.702 12.937,16.905 13.379 C 16.990 13.565,17.009 13.667,17.010 13.943 C 17.011 14.253,16.999 14.306,16.865 14.578 C 16.698 14.915,16.497 15.114,16.160 15.275 C 15.970 15.366,15.888 15.380,15.560 15.380 C 15.228 15.380,15.152 15.366,14.958 15.271 C 14.676 15.132,14.388 14.844,14.249 14.561 C 14.152 14.365,14.140 14.294,14.140 13.940 C 14.140 13.462,14.210 13.274,14.506 12.957 C 14.893 12.544,15.437 12.390,15.963 12.544 M9.466 17.322 C 9.721 17.535,10.214 17.774,10.656 17.900 C 12.129 18.318,14.214 18.099,15.075 17.435 C 15.496 17.111,15.612 17.086,15.803 17.277 C 15.891 17.365,15.920 17.431,15.920 17.545 C 15.920 17.678,15.891 17.724,15.694 17.911 C 15.427 18.163,14.833 18.467,14.320 18.614 C 12.994 18.993,11.344 18.956,10.100 18.520 C 9.493 18.307,8.950 17.954,8.819 17.688 C 8.698 17.441,8.878 17.166,9.166 17.162 C 9.232 17.161,9.343 17.220,9.466 17.322 " fill="currentColor" stroke="none" fill-rule="evenodd"></path></symbol><symbol viewBox="0 0 24 24" id="tmrwdao-icon-refresh"><path d="M11.200 3.025 C 8.963 3.229,7.066 4.115,5.531 5.670 C 3.067 8.167,2.327 11.940,3.662 15.211 C 4.715 17.793,6.975 19.759,9.673 20.442 C 10.485 20.647,10.930 20.698,11.880 20.696 C 12.825 20.694,13.235 20.646,14.044 20.441 C 16.862 19.726,19.158 17.654,20.179 14.904 C 20.352 14.439,20.366 14.294,20.249 14.199 C 20.177 14.141,19.852 14.040,19.068 13.833 C 18.763 13.752,18.700 13.810,18.496 14.347 C 17.704 16.442,16.027 18.007,13.880 18.653 C 13.131 18.879,12.724 18.935,11.860 18.934 C 10.985 18.932,10.484 18.859,9.720 18.619 C 9.135 18.436,8.249 17.997,7.764 17.650 C 5.223 15.831,4.162 12.612,5.124 9.640 C 5.292 9.119,5.746 8.218,6.070 7.760 C 6.415 7.271,7.271 6.415,7.760 6.070 C 8.218 5.746,9.119 5.292,9.640 5.124 C 12.251 4.279,15.078 4.984,16.964 6.949 C 17.308 7.308,17.760 7.880,17.760 7.957 C 17.760 7.986,17.518 8.000,17.010 8.001 C 16.598 8.001,16.240 8.014,16.216 8.031 C 16.104 8.105,16.080 8.255,16.080 8.880 L 16.080 9.526 16.199 9.645 L 16.317 9.763 18.409 9.752 L 20.500 9.740 20.661 9.648 C 20.749 9.597,20.866 9.491,20.921 9.411 L 21.020 9.266 21.031 7.132 L 21.042 4.998 20.943 4.899 C 20.845 4.801,20.836 4.800,20.152 4.801 C 19.598 4.802,19.444 4.815,19.380 4.863 C 19.305 4.920,19.299 4.983,19.280 5.949 L 19.260 6.976 19.040 6.672 C 17.835 5.010,16.041 3.787,14.070 3.284 C 13.822 3.220,13.413 3.139,13.160 3.102 C 12.713 3.037,11.564 2.991,11.200 3.025 " fill="currentColor" stroke="none" fill-rule="evenodd"></path></symbol><symbol viewBox="0 0 24 24" id="tmrwdao-icon-right-arrow"><path d="M9.715 4.182 C 9.395 4.281,9.120 4.659,9.120 5.000 C 9.120 5.344,9.012 5.226,12.723 8.940 C 14.657 10.876,16.240 12.478,16.240 12.500 C 16.240 12.522,14.657 14.124,12.723 16.060 C 9.012 19.774,9.120 19.656,9.120 20.000 C 9.120 20.449,9.552 20.879,10.003 20.880 C 10.348 20.881,10.229 20.991,14.591 16.629 L 18.720 12.499 14.570 8.355 C 10.633 4.423,10.410 4.208,10.232 4.165 C 10.000 4.109,9.947 4.111,9.715 4.182 " fill="currentColor" stroke="none" fill-rule="evenodd"></path></symbol><symbol viewBox="0 0 24 24" id="tmrwdao-icon-search"><path d="M10.284 3.046 C 8.064 3.278,5.979 4.520,4.620 6.420 C 3.001 8.685,2.565 11.664,3.462 14.347 C 4.475 17.380,7.009 19.548,10.045 19.980 C 10.592 20.057,11.617 20.057,12.155 19.978 C 13.751 19.745,15.203 19.059,16.395 17.976 L 16.651 17.743 16.775 17.888 C 16.844 17.967,17.500 18.663,18.234 19.433 C 19.068 20.309,19.622 20.860,19.712 20.903 C 20.294 21.179,20.928 20.792,20.989 20.125 C 21.028 19.698,20.988 19.646,19.311 17.882 L 17.811 16.303 17.972 16.042 C 18.723 14.822,19.200 13.085,19.200 11.569 C 19.200 6.497,15.067 2.546,10.284 3.046 M12.300 5.020 C 13.499 5.266,14.505 5.820,15.423 6.737 C 16.009 7.323,16.370 7.824,16.708 8.521 C 17.567 10.288,17.618 12.444,16.846 14.237 C 16.220 15.687,15.134 16.850,13.780 17.517 C 12.844 17.979,12.157 18.137,11.100 18.137 C 10.304 18.137,9.950 18.086,9.281 17.872 C 7.619 17.341,6.237 16.109,5.456 14.460 C 4.584 12.623,4.594 10.392,5.482 8.536 C 5.807 7.857,6.190 7.324,6.777 6.737 C 7.695 5.820,8.698 5.268,9.900 5.019 C 10.564 4.882,11.631 4.882,12.300 5.020 " fill="currentColor" stroke="none" fill-rule="evenodd"></path></symbol><symbol viewBox="0 0 24 24" id="tmrwdao-icon-tab"><path d="M4.467 5.065 C 4.101 5.177,3.800 5.599,3.800 6.000 C 3.800 6.242,3.919 6.521,4.099 6.701 C 4.423 7.025,3.765 7.000,11.900 7.000 C 20.035 7.000,19.377 7.025,19.701 6.701 C 20.092 6.310,20.092 5.690,19.701 5.299 C 19.377 4.975,20.036 5.000,11.903 5.003 C 5.619 5.005,4.634 5.013,4.467 5.065 M4.467 11.065 C 4.101 11.177,3.800 11.599,3.800 12.000 C 3.800 12.242,3.919 12.521,4.099 12.701 C 4.423 13.025,3.765 13.000,11.900 13.000 C 20.035 13.000,19.377 13.025,19.701 12.701 C 20.092 12.310,20.092 11.690,19.701 11.299 C 19.377 10.975,20.036 11.000,11.903 11.003 C 5.619 11.005,4.634 11.013,4.467 11.065 M10.760 17.037 C 10.296 17.178,9.941 17.693,10.019 18.110 C 10.092 18.500,10.384 18.854,10.711 18.952 C 10.829 18.988,11.926 19.000,15.008 19.000 C 19.662 19.000,19.384 19.018,19.701 18.701 C 20.092 18.310,20.092 17.690,19.701 17.299 C 19.384 16.982,19.664 17.000,15.003 17.003 C 12.724 17.005,10.815 17.021,10.760 17.037 " fill="currentColor" stroke="none" fill-rule="evenodd"></path></symbol><symbol viewBox="0 0 24 24" id="tmrwdao-icon-telegram"><path d="M18.826 4.447 C 18.240 4.526,17.394 4.831,14.660 5.950 C 11.883 7.086,3.461 10.704,2.732 11.075 C 2.084 11.404,1.871 11.728,2.078 12.068 C 2.196 12.260,2.502 12.413,3.300 12.678 C 4.841 13.190,5.856 13.440,6.392 13.440 C 7.072 13.440,7.448 13.265,8.993 12.228 C 11.577 10.495,14.260 8.713,14.695 8.441 C 15.106 8.185,15.172 8.156,15.327 8.168 C 15.472 8.178,15.508 8.198,15.554 8.295 C 15.594 8.378,15.598 8.433,15.567 8.500 C 15.454 8.748,14.578 9.616,11.900 12.128 C 10.609 13.340,10.118 13.830,9.971 14.054 C 9.712 14.449,9.766 14.804,10.140 15.178 C 10.268 15.307,11.199 15.960,12.525 16.852 C 13.721 17.657,14.898 18.454,15.140 18.621 C 15.891 19.142,16.317 19.320,16.815 19.320 C 17.397 19.320,17.710 19.010,17.974 18.173 C 18.209 17.425,19.376 10.494,19.825 7.180 C 20.012 5.794,20.029 5.120,19.884 4.825 C 19.804 4.663,19.754 4.615,19.584 4.539 C 19.337 4.429,19.136 4.405,18.826 4.447 " fill="currentColor" stroke="none" fill-rule="evenodd"></path></symbol><symbol viewBox="0 0 24 24" id="tmrwdao-icon-tick-filled"><path d="M11.120 2.039 C 9.316 2.220,7.707 2.807,6.280 3.806 C 2.738 6.286,1.178 10.759,2.422 14.865 C 2.918 16.499,3.728 17.850,4.939 19.061 C 5.928 20.050,7.038 20.788,8.272 21.278 C 11.634 22.610,15.313 22.080,18.200 19.845 C 18.637 19.507,19.507 18.637,19.845 18.200 C 21.255 16.379,22.000 14.234,22.000 12.000 C 22.000 7.432,18.842 3.387,14.430 2.303 C 13.446 2.062,12.028 1.948,11.120 2.039 M16.768 8.712 C 17.192 9.135,17.280 9.244,17.280 9.341 C 17.280 9.444,16.892 9.847,14.270 12.472 C 12.615 14.129,11.209 15.512,11.148 15.545 C 11.011 15.617,10.684 15.625,10.554 15.560 C 10.503 15.533,9.618 14.672,8.590 13.646 C 6.978 12.037,6.720 11.764,6.720 11.664 C 6.720 11.568,6.808 11.458,7.205 11.057 C 7.472 10.787,7.733 10.555,7.786 10.542 C 7.838 10.529,7.922 10.538,7.971 10.563 C 8.020 10.588,8.685 11.232,9.450 11.994 L 10.840 13.379 13.431 10.790 C 15.683 8.538,16.037 8.200,16.139 8.200 C 16.236 8.200,16.345 8.288,16.768 8.712 " fill="currentColor" stroke="none" fill-rule="evenodd"></path></symbol><symbol viewBox="0 0 24 24" id="tmrwdao-icon-tick"><path d="M8.798 3.131 C 8.755 3.202,8.367 3.854,7.936 4.580 L 7.153 5.901 5.536 6.259 L 3.920 6.616 3.920 6.758 C 3.920 6.836,3.983 7.554,4.060 8.352 C 4.137 9.151,4.200 9.845,4.200 9.893 C 4.200 9.952,3.830 10.405,3.101 11.238 C 2.182 12.290,2.011 12.505,2.051 12.555 C 2.078 12.588,2.572 13.156,3.150 13.816 C 3.848 14.614,4.200 15.047,4.200 15.106 C 4.200 15.155,4.137 15.849,4.060 16.648 C 3.983 17.446,3.920 18.165,3.920 18.243 L 3.920 18.387 5.510 18.738 C 6.550 18.968,7.122 19.112,7.165 19.155 C 7.200 19.191,7.585 19.823,8.019 20.560 C 8.454 21.297,8.830 21.921,8.855 21.947 C 8.889 21.982,9.204 21.864,10.160 21.454 C 10.853 21.157,11.539 20.864,11.685 20.801 L 11.949 20.688 13.483 21.343 C 14.326 21.703,15.025 21.988,15.036 21.977 C 15.047 21.967,15.437 21.316,15.902 20.531 L 16.749 19.104 18.365 18.747 C 19.253 18.550,19.986 18.384,19.994 18.377 C 20.002 18.370,19.943 17.675,19.863 16.832 C 19.784 15.990,19.714 15.237,19.709 15.160 C 19.701 15.029,19.773 14.937,20.780 13.787 C 21.374 13.109,21.860 12.530,21.860 12.500 C 21.860 12.470,21.374 11.891,20.780 11.213 C 19.773 10.063,19.701 9.971,19.709 9.840 C 19.714 9.763,19.784 9.010,19.863 8.168 C 19.943 7.325,20.002 6.630,19.994 6.623 C 19.986 6.616,19.253 6.450,18.365 6.253 L 16.749 5.896 15.895 4.458 C 15.409 3.639,15.019 3.024,14.990 3.030 C 14.962 3.035,14.268 3.326,13.447 3.676 L 11.955 4.313 10.707 3.782 C 10.021 3.490,9.329 3.195,9.169 3.127 L 8.877 3.002 8.798 3.131 M15.474 9.937 C 15.807 10.277,16.080 10.570,16.080 10.588 C 16.080 10.606,14.937 11.763,13.540 13.160 L 11.000 15.700 9.400 14.100 L 7.800 12.499 8.430 11.870 L 9.060 11.241 10.033 12.187 L 11.007 13.133 12.913 11.227 C 13.962 10.178,14.831 9.320,14.844 9.320 C 14.857 9.320,15.140 9.598,15.474 9.937 " fill="currentColor" stroke="none" fill-rule="evenodd"></path></symbol><symbol viewBox="0 0 24 24" id="tmrwdao-icon-time-clock"><path d="M11.520 3.041 C 9.362 3.266,7.477 4.121,5.936 5.575 C 3.084 8.265,2.215 12.457,3.761 16.067 C 4.950 18.843,7.461 20.909,10.414 21.538 C 11.147 21.695,11.579 21.738,12.400 21.737 C 13.890 21.735,15.165 21.438,16.500 20.780 C 19.002 19.547,20.808 17.304,21.475 14.598 C 21.674 13.790,21.736 13.273,21.737 12.400 C 21.737 11.971,21.714 11.449,21.685 11.240 C 21.394 9.119,20.465 7.221,19.002 5.758 C 17.573 4.328,15.724 3.398,13.720 3.100 C 13.213 3.025,11.990 2.992,11.520 3.041 M13.232 4.362 C 15.086 4.564,16.788 5.385,18.089 6.705 C 18.778 7.405,19.205 8.005,19.623 8.860 C 21.155 12.000,20.484 15.747,17.953 18.181 C 16.911 19.183,15.759 19.827,14.371 20.183 C 11.927 20.810,9.389 20.271,7.380 18.700 C 7.012 18.411,6.328 17.731,6.055 17.380 C 4.855 15.837,4.270 14.054,4.332 12.120 C 4.356 11.349,4.423 10.903,4.621 10.180 C 5.031 8.684,5.968 7.227,7.156 6.235 C 8.443 5.161,9.980 4.508,11.600 4.347 C 11.928 4.314,12.873 4.323,13.232 4.362 M11.864 7.840 C 11.713 7.887,11.524 8.067,11.455 8.229 C 11.411 8.332,11.400 8.738,11.400 10.292 C 11.400 12.074,11.406 12.251,11.477 12.529 C 11.617 13.074,11.970 13.641,12.348 13.928 C 12.455 14.009,13.181 14.457,13.962 14.923 C 15.524 15.856,15.576 15.878,15.887 15.725 C 16.301 15.524,16.394 14.999,16.071 14.694 C 15.999 14.626,15.318 14.201,14.557 13.749 C 13.147 12.911,13.013 12.811,12.830 12.469 C 12.741 12.302,12.740 12.281,12.720 10.280 C 12.701 8.350,12.696 8.254,12.620 8.127 C 12.474 7.885,12.132 7.755,11.864 7.840 " fill="currentColor" stroke="none" fill-rule="evenodd"></path></symbol><symbol viewBox="0 0 24 24" id="tmrwdao-icon-twitter"><path d="M4.209 4.310 C 5.471 6.121,10.083 12.889,10.073 12.915 C 10.066 12.934,9.474 13.631,8.757 14.464 C 8.041 15.298,6.677 16.884,5.727 17.990 L 3.998 20.000 4.689 19.999 L 5.380 19.999 8.040 16.901 C 10.066 14.542,10.711 13.815,10.745 13.852 C 10.770 13.878,11.730 15.273,12.878 16.950 L 14.966 20.000 17.283 20.000 C 18.557 20.000,19.600 19.991,19.600 19.980 C 19.600 19.970,18.186 17.898,16.458 15.377 C 14.729 12.857,13.321 10.780,13.328 10.762 C 13.337 10.738,16.903 6.579,18.894 4.271 L 19.127 4.000 18.434 4.002 L 17.740 4.003 15.300 6.845 C 13.958 8.408,12.823 9.732,12.778 9.788 L 12.696 9.890 10.678 6.945 L 8.660 4.001 6.327 4.000 L 3.993 4.000 4.209 4.310 M9.950 7.896 C 11.678 10.415,11.915 10.779,11.868 10.836 C 11.190 11.637,10.863 11.998,10.841 11.972 C 10.807 11.933,6.146 5.120,6.104 5.049 C 6.080 5.009,6.266 5.001,7.026 5.009 L 7.978 5.020 9.950 7.896 M15.040 15.320 C 16.388 17.289,17.509 18.922,17.530 18.950 C 17.562 18.990,17.373 19.000,16.614 19.000 L 15.658 19.000 13.639 16.055 C 12.529 14.435,11.589 13.062,11.552 13.004 L 11.483 12.897 12.007 12.286 C 12.295 11.950,12.544 11.689,12.560 11.707 C 12.577 11.725,13.693 13.351,15.040 15.320 " fill="currentColor" stroke="none" fill-rule="evenodd"></path></symbol><symbol viewBox="0 0 24 24" id="tmrwdao-icon-upload-document"><path d="M8.580 3.027 C 5.460 3.223,3.801 4.480,3.226 7.083 C 3.024 7.998,3.020 8.095,3.020 11.880 C 3.020 15.665,3.024 15.762,3.226 16.677 C 3.711 18.871,4.983 20.105,7.225 20.556 C 8.103 20.732,8.296 20.740,11.900 20.740 C 15.018 20.740,15.391 20.733,15.880 20.666 C 18.820 20.266,20.236 18.861,20.664 15.920 C 20.719 15.539,20.734 15.011,20.749 12.845 C 20.759 11.406,20.755 10.164,20.741 10.085 C 20.718 9.959,20.279 9.504,17.307 6.526 C 15.323 4.538,13.846 3.089,13.771 3.056 C 13.665 3.010,13.218 3.001,11.211 3.007 C 9.874 3.011,8.690 3.020,8.580 3.027 M12.920 5.937 C 12.920 6.916,12.938 7.767,12.963 7.947 C 13.171 9.478,13.847 10.314,15.159 10.665 C 15.689 10.806,16.189 10.838,17.874 10.839 L 19.529 10.840 19.509 13.110 C 19.488 15.496,19.468 15.797,19.283 16.579 C 18.941 18.016,18.099 18.880,16.669 19.261 C 15.822 19.486,15.721 19.492,12.260 19.510 C 10.071 19.521,8.877 19.512,8.480 19.481 C 5.836 19.272,4.708 18.292,4.332 15.880 C 4.267 15.463,4.260 15.086,4.260 11.880 C 4.260 8.018,4.264 7.938,4.500 7.040 C 4.623 6.573,4.930 5.940,5.188 5.621 C 5.809 4.854,6.836 4.417,8.324 4.284 C 8.531 4.266,9.650 4.249,10.810 4.246 L 12.920 4.240 12.920 5.937 M18.451 9.593 C 18.368 9.601,17.742 9.599,17.060 9.590 C 15.958 9.575,15.786 9.563,15.513 9.489 C 15.113 9.379,14.911 9.273,14.699 9.061 C 14.487 8.849,14.381 8.647,14.271 8.247 C 14.194 7.968,14.185 7.811,14.171 6.540 L 14.155 5.140 16.378 7.360 L 18.601 9.580 18.451 9.593 M9.140 10.494 C 9.074 10.524,8.987 10.586,8.946 10.632 C 8.773 10.826,8.764 10.933,8.762 12.759 L 8.760 14.498 8.430 14.174 C 8.248 13.995,8.058 13.827,8.006 13.801 C 7.873 13.733,7.591 13.742,7.443 13.819 C 7.201 13.944,7.067 14.294,7.165 14.541 C 7.199 14.626,7.577 15.037,8.155 15.619 C 8.918 16.386,9.119 16.567,9.245 16.601 C 9.562 16.687,9.623 16.644,10.643 15.621 C 11.725 14.535,11.770 14.463,11.604 14.096 C 11.507 13.883,11.310 13.760,11.063 13.760 C 10.814 13.760,10.714 13.819,10.360 14.178 L 10.060 14.482 10.040 12.691 C 10.021 10.992,10.016 10.893,9.940 10.764 C 9.896 10.689,9.812 10.592,9.753 10.549 C 9.618 10.448,9.301 10.420,9.140 10.494 " fill="currentColor" stroke="none" fill-rule="evenodd"></path></symbol><symbol viewBox="0 0 24 24" id="tmrwdao-icon-upload"><path d="M11.920 4.052 C 11.533 4.164,11.420 4.255,10.370 5.295 C 9.114 6.539,9.053 6.633,9.242 7.024 C 9.332 7.211,9.465 7.316,9.670 7.362 C 9.954 7.426,10.051 7.361,10.870 6.548 L 11.640 5.783 11.640 7.511 L 11.640 9.240 9.365 9.240 C 7.500 9.240,7.027 9.251,6.738 9.301 C 5.385 9.537,4.316 10.593,4.057 11.951 C 3.973 12.386,3.974 16.860,4.057 17.286 C 4.327 18.668,5.332 19.673,6.714 19.943 C 6.959 19.991,7.863 20.000,12.285 20.000 C 16.939 20.000,17.600 19.993,17.872 19.937 C 18.520 19.804,19.115 19.487,19.572 19.029 C 19.990 18.612,20.233 18.198,20.430 17.572 L 20.540 17.220 20.540 14.620 L 20.540 12.020 20.430 11.668 C 20.122 10.686,19.517 9.976,18.636 9.563 C 17.989 9.260,18.069 9.267,15.350 9.251 L 12.920 9.235 12.920 7.528 L 12.920 5.821 13.610 6.502 C 14.438 7.320,14.436 7.319,14.619 7.360 C 14.889 7.421,15.172 7.286,15.304 7.032 C 15.376 6.893,15.376 6.626,15.303 6.488 C 15.272 6.429,14.763 5.899,14.173 5.312 C 13.279 4.422,13.062 4.227,12.872 4.140 C 12.596 4.014,12.184 3.976,11.920 4.052 M12.880 12.230 C 12.880 15.143,12.878 15.223,12.800 15.350 C 12.670 15.563,12.499 15.647,12.228 15.630 C 12.025 15.616,11.978 15.597,11.853 15.472 C 11.757 15.376,11.700 15.273,11.677 15.155 C 11.659 15.059,11.643 13.688,11.642 12.110 L 11.640 9.240 12.260 9.240 L 12.880 9.240 12.880 12.230 " fill="currentColor" stroke="none" fill-rule="evenodd"></path></symbol><symbol viewBox="0 0 24 24" id="tmrwdao-icon-wallet"><path d="M12.280 1.995 C 11.857 2.110,4.488 4.913,4.156 5.085 C 3.357 5.499,2.773 6.230,2.512 7.140 L 2.420 7.460 2.420 12.960 C 2.420 18.453,2.420 18.460,2.506 18.780 C 2.726 19.605,3.073 20.222,3.625 20.774 C 4.215 21.363,4.938 21.752,5.747 21.917 C 6.146 21.999,6.246 22.000,12.000 22.000 C 17.754 22.000,17.854 21.999,18.253 21.917 C 19.089 21.747,19.807 21.351,20.402 20.733 C 20.797 20.323,20.934 20.135,21.152 19.698 C 21.461 19.076,21.600 18.454,21.600 17.685 L 21.600 17.220 21.782 17.123 C 22.038 16.987,22.374 16.610,22.487 16.331 C 22.578 16.105,22.580 16.071,22.580 14.760 L 22.580 13.420 22.457 13.160 C 22.316 12.864,22.054 12.581,21.790 12.441 L 21.609 12.345 21.590 11.583 C 21.574 10.979,21.553 10.755,21.486 10.507 C 21.070 8.961,19.975 7.853,18.447 7.430 C 18.167 7.353,18.015 7.344,16.734 7.330 L 15.327 7.314 15.309 5.627 C 15.289 3.757,15.286 3.728,15.012 3.183 C 14.735 2.631,14.089 2.126,13.476 1.981 C 13.135 1.901,12.604 1.907,12.280 1.995 M13.425 3.231 C 13.689 3.368,13.827 3.507,13.958 3.768 L 14.080 4.013 14.080 5.665 L 14.080 7.317 9.970 7.329 C 5.888 7.341,5.858 7.342,5.553 7.428 C 4.893 7.615,4.307 7.926,3.804 8.355 L 3.588 8.540 3.609 8.040 C 3.625 7.654,3.651 7.485,3.721 7.300 C 3.922 6.769,4.266 6.376,4.737 6.138 C 4.892 6.059,6.730 5.348,8.820 4.557 L 12.620 3.119 12.940 3.133 C 13.167 3.142,13.308 3.171,13.425 3.231 M18.340 8.652 C 18.815 8.819,19.178 9.050,19.541 9.416 C 19.797 9.675,19.900 9.816,20.051 10.120 C 20.310 10.641,20.362 10.869,20.389 11.610 L 20.411 12.240 19.616 12.241 C 18.728 12.241,18.419 12.287,18.024 12.473 C 16.679 13.108,16.155 14.708,16.870 15.998 C 17.048 16.319,17.460 16.732,17.801 16.931 C 17.943 17.014,18.204 17.130,18.380 17.188 C 18.677 17.286,18.763 17.295,19.556 17.311 L 20.412 17.328 20.388 17.834 C 20.352 18.587,20.206 19.036,19.820 19.580 C 19.401 20.171,18.756 20.586,18.020 20.740 C 17.593 20.829,6.345 20.828,5.960 20.739 C 4.850 20.481,4.061 19.744,3.714 18.639 L 3.620 18.340 3.620 14.680 C 3.620 11.755,3.631 10.976,3.674 10.800 C 3.703 10.679,3.814 10.399,3.920 10.179 C 4.314 9.359,5.049 8.777,5.940 8.579 C 6.135 8.536,7.294 8.527,12.100 8.533 L 18.020 8.540 18.340 8.652 M7.131 11.358 C 6.655 11.473,6.510 12.021,6.864 12.364 L 7.004 12.500 10.532 12.510 C 13.997 12.520,14.062 12.519,14.190 12.441 C 14.567 12.210,14.575 11.660,14.206 11.431 L 14.060 11.340 10.660 11.334 C 8.790 11.330,7.202 11.341,7.131 11.358 M21.285 13.559 L 21.404 13.677 21.392 14.798 C 21.380 15.902,21.379 15.919,21.289 16.009 C 21.200 16.098,21.179 16.100,20.149 16.113 C 19.048 16.127,18.802 16.102,18.504 15.952 C 18.246 15.820,17.980 15.541,17.860 15.274 C 17.762 15.055,17.752 14.994,17.768 14.704 C 17.794 14.244,18.012 13.868,18.387 13.636 C 18.669 13.461,18.802 13.445,20.013 13.443 L 21.166 13.440 21.285 13.559 " fill="currentColor" stroke="none" fill-rule="evenodd"></path></symbol></svg>