<svg width="1em" height="1em" viewBox="0 0 24 24" fill="currentColor" xmlns="http://www.w3.org/2000/svg">
<path fill-rule="evenodd" clip-rule="evenodd" d="M11.9995 3.89991C9.9376 3.89991 8.26735 5.56985 8.26735 7.62828C8.26735 9.68671 9.9376 11.3566 11.9995 11.3566C14.0614 11.3566 15.7317 9.68671 15.7317 7.62828C15.7317 5.56985 14.0614 3.89991 11.9995 3.89991ZM6.46745 7.62828C6.46745 4.57441 8.94493 2.10001 11.9995 2.10001C15.0541 2.10001 17.5316 4.57441 17.5316 7.62828C17.5316 10.6822 15.0541 13.1566 11.9995 13.1566C8.94493 13.1566 6.46745 10.6822 6.46745 7.62828ZM4.11951 16.2234C5.15399 15.2693 6.41678 14.9565 7.36738 14.9565H16.6316C17.5822 14.9565 18.845 15.2693 19.8795 16.2234C20.9358 17.1977 21.649 18.743 21.649 20.999C21.649 21.496 21.246 21.8989 20.749 21.8989C20.252 21.8989 19.8491 21.496 19.8491 20.999C19.8491 19.1409 19.2755 18.115 18.6592 17.5465C18.0209 16.9578 17.225 16.7564 16.6316 16.7564H7.36738C6.77395 16.7564 5.97803 16.9578 5.33981 17.5465C4.72342 18.115 4.14991 19.1409 4.14991 20.999C4.14991 21.496 3.74699 21.8989 3.24996 21.8989C2.75293 21.8989 2.35001 21.496 2.35001 20.999C2.35001 18.743 3.06318 17.1977 4.11951 16.2234Z" fill="currentColor"/>
</svg>
