<svg width="1em" height="1em" viewBox="0 0 24 24" fill="none" xmlns="http://www.w3.org/2000/svg">
<path fill-rule="evenodd" clip-rule="evenodd" d="M2.25 12C2.25 6.61522 6.61522 2.25 12 2.25C17.3848 2.25 21.75 6.61522 21.75 12C21.75 17.3848 17.3848 21.75 12 21.75C6.61522 21.75 2.25 17.3848 2.25 12ZM12 3.75C7.44365 3.75 3.75 7.44365 3.75 12C3.75 16.5564 7.44365 20.25 12 20.25C16.5564 20.25 20.25 16.5564 20.25 12C20.25 7.44365 16.5564 3.75 12 3.75ZM7.25073 12C7.25073 11.5858 7.58652 11.25 8.00073 11.25H11.2507V8C11.2507 7.58579 11.5865 7.25 12.0007 7.25C12.4149 7.25 12.7507 7.58579 12.7507 8V11.25H16.0007C16.4149 11.25 16.7507 11.5858 16.7507 12C16.7507 12.4142 16.4149 12.75 16.0007 12.75H12.7507V16C12.7507 16.4142 12.4149 16.75 12.0007 16.75C11.5865 16.75 11.2507 16.4142 11.2507 16V12.75H8.00073C7.58652 12.75 7.25073 12.4142 7.25073 12Z" fill="currentColor"/>
</svg>
