<svg width="1em" height="1em" viewBox="0 0 24 24" fill="none" xmlns="http://www.w3.org/2000/svg">
<path fill-rule="evenodd" clip-rule="evenodd" d="M2.5022 7.34517C2.5022 5.2741 4.18113 3.59517 6.2522 3.59517H14.2496C16.3207 3.59517 17.9996 5.2741 17.9996 7.34517V10.5939H18.7489C20.2677 10.5939 21.4989 11.8251 21.4989 13.3439V16.3426C21.4989 17.6684 20.5606 18.7752 19.3118 19.0349V19.6548C19.3118 19.9148 19.1772 20.1562 18.9561 20.2928C18.735 20.4295 18.4589 20.4419 18.2264 20.3257L15.7603 19.0926H13.1257C11.6069 19.0926 10.3757 17.8614 10.3757 16.3426V15.5932H9.1774L6.90252 17.2049C6.6737 17.367 6.37357 17.3879 6.12448 17.2591C5.87539 17.1303 5.71895 16.8733 5.71895 16.5929V15.5556C3.90045 15.2967 2.5022 13.7333 2.5022 11.8432V7.34517ZM16.4996 11.3439L16.4996 11.3349V7.34517C16.4996 6.10253 15.4923 5.09517 14.2496 5.09517H6.2522C5.00956 5.09517 4.0022 6.10253 4.0022 7.34517V11.8432C4.0022 13.0859 5.00956 14.0932 6.2522 14.0932H6.46895C6.88317 14.0932 7.21895 14.429 7.21895 14.8432V15.1424L8.50508 14.2312C8.63183 14.1415 8.78332 14.0932 8.93865 14.0932H14.2496C15.4923 14.0932 16.4996 13.0859 16.4996 11.8432V11.3528L16.4996 11.3439ZM14.2496 15.5932H11.8757V16.3426C11.8757 17.0329 12.4353 17.5926 13.1257 17.5926H15.9373C16.0537 17.5926 16.1686 17.6197 16.2727 17.6718L17.8118 18.4413V18.3426C17.8118 17.9284 18.1476 17.5926 18.5618 17.5926H18.7489C19.4393 17.5926 19.9989 17.0329 19.9989 16.3426V13.3439C19.9989 12.6535 19.4393 12.0939 18.7489 12.0939H17.9914C17.8624 14.0481 16.2365 15.5932 14.2496 15.5932ZM7.91203 8.91103C7.91203 8.49681 7.57625 8.16103 7.16203 8.16103C6.74782 8.16103 6.41203 8.49681 6.41203 8.91103V10.1466C6.41203 10.5608 6.74782 10.8966 7.16203 10.8966C7.57625 10.8966 7.91203 10.5608 7.91203 10.1466V8.91103ZM10.251 8.16103C10.6652 8.16103 11.001 8.49681 11.001 8.91103V10.1466C11.001 10.5608 10.6652 10.8966 10.251 10.8966C9.83678 10.8966 9.501 10.5608 9.501 10.1466V8.91103C9.501 8.49681 9.83678 8.16103 10.251 8.16103ZM14.09 8.91103C14.09 8.49681 13.7542 8.16103 13.34 8.16103C12.9257 8.16103 12.59 8.49681 12.59 8.91103V10.1466C12.59 10.5608 12.9257 10.8966 13.34 10.8966C13.7542 10.8966 14.09 10.5608 14.09 10.1466V8.91103Z" fill="currentColor"/>
</svg>
