<svg width="25" height="24" viewBox="0 0 25 24" fill="none" xmlns="http://www.w3.org/2000/svg">
<path d="M9.02042 11.1939H15.9786C15.8954 8.8349 15.4509 6.74581 14.7987 5.22397C14.4353 4.376 14.0232 3.74128 13.6068 3.33026C13.1938 2.92266 12.8205 2.77428 12.4995 2.77428C12.1785 2.77428 11.8053 2.92266 11.3923 3.33026C10.9758 3.74128 10.5638 4.376 10.2003 5.22397C9.54813 6.74581 9.10366 8.8349 9.02042 11.1939Z" fill="white"/>
<path d="M15.9786 12.8062C15.8954 15.1652 15.4509 17.2543 14.7987 18.7761C14.4353 19.6241 14.0232 20.2588 13.6068 20.6699C13.1938 21.0775 12.8205 21.2258 12.4995 21.2258C12.1785 21.2258 11.8053 21.0775 11.3923 20.6699C10.9758 20.2588 10.5638 19.6241 10.2003 18.7761C9.54814 17.2543 9.10366 15.1652 9.02042 12.8062H15.9786Z" fill="white"/>
<path d="M17.5918 12.8062H22.4997C22.1504 17.1988 18.9717 20.7944 14.7865 21.7702C15.378 21.17 15.8767 20.3537 16.2806 19.4112C17.0322 17.6575 17.5082 15.3444 17.5918 12.8062Z" fill="white"/>
<path d="M22.4997 11.1939H17.5918C17.5082 8.65579 17.0322 6.3426 16.2806 4.58887C15.8767 3.64637 15.378 2.83013 14.7865 2.22995C18.9717 3.20571 22.1504 6.80134 22.4997 11.1939Z" fill="white"/>
<path d="M7.40722 11.1939H2.49969C2.84894 6.8015 6.02742 3.20597 10.2125 2.23005C9.62094 2.83023 9.12234 3.64643 8.71844 4.58887C7.96684 6.3426 7.49086 8.65579 7.40722 11.1939Z" fill="white"/>
<path d="M7.40723 12.8062H2.4997C2.84896 17.1987 6.02744 20.7942 10.2125 21.7701C9.62095 21.1699 9.12234 20.3537 8.71844 19.4112C7.96684 17.6575 7.49086 15.3444 7.40723 12.8062Z" fill="white"/>
</svg>
