<svg width="1em" height="1em" viewBox="0 0 24 24" fill="currentColor" xmlns="http://www.w3.org/2000/svg">
<path d="M12.9005 12C12.9005 12.4974 12.4973 12.9005 12 12.9005C11.5026 12.9005 11.0994 12.4974 11.0994 12C11.0994 11.5026 11.5026 11.0995 12 11.0995C12.4973 11.0995 12.9005 11.5026 12.9005 12Z" fill="currentColor"/>
<path fill-rule="evenodd" clip-rule="evenodd" d="M16.5303 7.46966C16.7312 7.67053 16.8014 7.96766 16.7115 8.23716L14.7115 14.2372C14.6369 14.4611 14.4611 14.6369 14.2372 14.7115L8.23719 16.7115C7.96769 16.8013 7.67056 16.7312 7.46969 16.5303C7.26882 16.3294 7.19867 16.0323 7.28851 15.7628L9.28851 9.76282C9.36316 9.53887 9.5389 9.36313 9.76285 9.28848L15.7628 7.28848C16.0324 7.19864 16.3295 7.26879 16.5303 7.46966ZM10.5929 10.5929L9.18587 14.8141L13.4071 13.4071L14.8142 9.18584L10.5929 10.5929Z" fill="currentColor"/>
<path fill-rule="evenodd" clip-rule="evenodd" d="M2.25 12C2.25 6.61522 6.61522 2.25 12 2.25C17.3848 2.25 21.75 6.61522 21.75 12C21.75 17.3848 17.3848 21.75 12 21.75C6.61522 21.75 2.25 17.3848 2.25 12ZM12 3.75C7.44365 3.75 3.75 7.44365 3.75 12C3.75 16.5564 7.44365 20.25 12 20.25C16.5564 20.25 20.25 16.5564 20.25 12C20.25 7.44365 16.5564 3.75 12 3.75Z" fill="currentColor"/>
</svg>
