<svg width="1em" height="1em" viewBox="0 0 24 24" fill="none" xmlns="http://www.w3.org/2000/svg">
<path fill-rule="evenodd" clip-rule="evenodd" d="M12.6958 2.8695C12.3081 2.49447 11.6929 2.49447 11.3052 2.8695L9.57705 4.54134L7.19624 4.20459C6.66217 4.12905 6.16443 4.49068 6.07123 5.02196L5.65579 7.3903L3.53175 8.51726C3.05527 8.77007 2.86515 9.35521 3.10203 9.83979L4.15801 12L3.10203 14.1602C2.86515 14.6448 3.05527 15.23 3.53175 15.4828L5.65579 16.6097L6.07123 18.9781C6.16443 19.5093 6.66217 19.871 7.19624 19.7954L9.57705 19.4587L11.3052 21.1305C11.6929 21.5056 12.3081 21.5056 12.6958 21.1305L14.424 19.4587L16.8048 19.7954C17.3389 19.871 17.8366 19.5093 17.9298 18.9781L18.3452 16.6097L20.4693 15.4828C20.9458 15.23 21.1359 14.6448 20.899 14.1602L19.843 12L20.899 9.83979C21.1359 9.3552 20.9458 8.77007 20.4693 8.51726L18.3452 7.3903L17.9298 5.02196C17.8366 4.49068 17.3389 4.12905 16.8048 4.20459L14.424 4.54134L12.6958 2.8695ZM10.4443 5.78937L12.0005 4.2839L13.5567 5.78937C13.7784 6.00383 14.0866 6.10398 14.3921 6.06079L16.5359 5.75755L16.91 7.8902C16.9633 8.19401 17.1538 8.45622 17.4263 8.60079L19.339 9.6156L18.3881 11.5608C18.2526 11.838 18.2526 12.1621 18.3881 12.4392L19.339 14.3844L17.4263 15.3992C17.1538 15.5438 16.9633 15.806 16.91 16.1098L16.5359 18.2425L14.3921 17.9392C14.0866 17.896 13.7784 17.9962 13.5567 18.2107L12.0005 19.7161L10.4443 18.2107C10.2226 17.9962 9.91439 17.896 9.60898 17.9392L7.4651 18.2425L7.09101 16.1098C7.03771 15.806 6.8472 15.5438 6.57473 15.3992L4.66206 14.3844L5.61295 12.4392C5.74841 12.1621 5.74841 11.838 5.61295 11.5608L4.66206 9.6156L6.57473 8.60079C6.8472 8.45622 7.03771 8.19401 7.09101 7.8902L7.4651 5.75755L9.60898 6.06079C9.91438 6.10398 10.2226 6.00383 10.4443 5.78937ZM15.0844 10.8882L11.8002 14.1725C11.5073 14.4654 11.0324 14.4654 10.7395 14.1725L8.91629 12.3492C8.6234 12.0563 8.6234 11.5815 8.91629 11.2886C9.20918 10.9957 9.68406 10.9957 9.97695 11.2886L11.2699 12.5815L14.0238 9.82757C14.3167 9.53467 14.7915 9.53467 15.0844 9.82757C15.3773 10.1205 15.3773 10.5953 15.0844 10.8882Z" fill="currentColor"/>
</svg>
