<svg width="1em" height="1em" viewBox="0 0 24 24" fill="currentColor" xmlns="http://www.w3.org/2000/svg">
<path fill-rule="evenodd" clip-rule="evenodd" d="M12.75 4C12.75 3.58579 12.4142 3.25 12 3.25C11.5858 3.25 11.25 3.58579 11.25 4V11.25H4.00066C3.58644 11.25 3.25066 11.5858 3.25066 12C3.25066 12.4142 3.58644 12.75 4.00066 12.75H11.25V20C11.25 20.4142 11.5858 20.75 12 20.75C12.4142 20.75 12.75 20.4142 12.75 20V12.75H19.9998C20.414 12.75 20.7498 12.4142 20.7498 12C20.7498 11.5858 20.414 11.25 19.9998 11.25H12.75V4Z" fill="currentColor"/>
</svg>
