<svg width="1em" height="1em" viewBox="0 0 24 24" fill="currentColor" xmlns="http://www.w3.org/2000/svg">
<path fill-rule="evenodd" clip-rule="evenodd" d="M9.59544 3.00574C7.85321 3.00574 6.44086 4.41809 6.44086 6.16032C6.44086 6.76709 6.61217 7.33386 6.90907 7.81488H4.75574C3.78924 7.81488 3.00574 8.59838 3.00574 9.56488V11.75C3.00574 12.3023 3.45345 12.75 4.00574 12.75H4.37976V19.2443C4.37976 20.2108 5.16326 20.9943 6.12976 20.9943H17.8702C18.8367 20.9943 19.6202 20.2108 19.6202 19.2443V12.75H19.9943C20.5466 12.75 20.9943 12.3023 20.9943 11.75V9.56488C20.9943 8.59838 20.2108 7.81488 19.2443 7.81488H17.0909C17.3878 7.33386 17.5592 6.76709 17.5592 6.16032C17.5592 4.41809 16.1468 3.00574 14.4046 3.00574C13.4412 3.00574 12.5786 3.43761 12 4.11831C11.4214 3.43761 10.5588 3.00574 9.59544 3.00574ZM9.58492 9.31488C9.58842 9.31489 9.59193 9.3149 9.59544 9.3149H11.25H12H12H12.75H14.4046C14.4081 9.3149 14.4116 9.31489 14.4151 9.31488H19.2443C19.3824 9.31488 19.4943 9.42681 19.4943 9.56488V11.25H4.50574V9.56488C4.50574 9.42681 4.61767 9.31488 4.75574 9.31488H9.58492ZM14.4122 7.81488C15.3225 7.81078 16.0592 7.07158 16.0592 6.16032C16.0592 5.24652 15.3184 4.50574 14.4046 4.50574C13.4928 4.50574 12.7533 5.24319 12.75 6.15415L12.75 6.16032V7.81488H14.4122ZM11.25 7.81488V6.16032L11.25 6.15415C11.2467 5.24319 10.5072 4.50574 9.59544 4.50574C8.68164 4.50574 7.94086 5.24652 7.94086 6.16032C7.94086 7.07158 8.67752 7.81078 9.58782 7.81488H11.25ZM5.87976 19.2443C5.87976 19.3824 5.99169 19.4943 6.12976 19.4943H17.8702C18.0083 19.4943 18.1202 19.3824 18.1202 19.2443V12.75H5.87976V19.2443Z" fill="currentColor"/>
</svg>
