 <svg
    width="1em"
    height="1em"
    viewBox="0 0 24 24"
    fill="currentColor"
    xmlns="http://www.w3.org/2000/svg"
  >
    <path
      fillRule="evenodd"
      clipRule="evenodd"
      d="M3.22001 7.98369V4C3.22001 3.58579 3.5558 3.25 3.97001 3.25C4.38423 3.25 4.72001 3.58579 4.72001 4V5.54197C6.48466 3.526 9.05338 2.25 11.9656 2.25C15.7949 2.25 19.1072 4.45764 20.7017 7.66623C20.886 8.03716 20.7348 8.4873 20.3638 8.67164C19.9929 8.85597 19.5428 8.70471 19.3584 8.33377C18.0075 5.61546 15.2037 3.75 11.9656 3.75C9.18338 3.75 6.76674 5.12819 5.28444 7.25H7.36016C7.77437 7.25 8.11016 7.58579 8.11016 8C8.11016 8.41421 7.77437 8.75 7.36016 8.75H3.98516C3.92313 8.75131 3.86046 8.7449 3.79855 8.73031C3.71042 8.7097 3.62828 8.67355 3.55515 8.62491C3.463 8.56389 3.38796 8.48494 3.33242 8.39512C3.32747 8.38713 3.32268 8.37904 3.31805 8.37088C3.27495 8.29528 3.24463 8.21146 3.23001 8.12235C3.22243 8.07676 3.21903 8.03034 3.22001 7.98369ZM4.64165 15.6662C4.45731 15.2953 4.00718 15.144 3.63624 15.3284C3.26531 15.5127 3.11404 15.9628 3.29838 16.3338C4.8929 19.5424 8.20519 21.75 12.0345 21.75C14.9467 21.75 17.5154 20.474 19.2801 18.458V20C19.2801 20.4142 19.6159 20.75 20.0301 20.75C20.4443 20.75 20.7801 20.4142 20.7801 20V16.0159C20.7808 15.9803 20.779 15.945 20.7747 15.91C20.7482 15.6881 20.6248 15.496 20.4481 15.3772C20.4017 15.346 20.3516 15.3198 20.2986 15.2995C20.2669 15.2873 20.234 15.2772 20.2003 15.2694C20.1388 15.255 20.0766 15.2487 20.0149 15.25H16.6399C16.2257 15.25 15.8899 15.5858 15.8899 16C15.8899 16.4142 16.2257 16.75 16.6399 16.75H18.7156C17.2333 18.8718 14.8167 20.25 12.0345 20.25C8.79634 20.25 5.99253 18.3845 4.64165 15.6662Z"
      fill="currentColor"
    />
  </svg>