<svg width="1em" height="1em" viewBox="0 0 24 24" fill="none" xmlns="http://www.w3.org/2000/svg">
<path fill-rule="evenodd" clip-rule="evenodd" d="M3.21989 7.98369V4C3.21989 3.58579 3.55568 3.25 3.96989 3.25C4.38411 3.25 4.71989 3.58579 4.71989 4V5.54197C6.48454 3.526 9.05326 2.25 11.9655 2.25C15.7948 2.25 19.1071 4.45764 20.7016 7.66623C20.8859 8.03716 20.7346 8.4873 20.3637 8.67164C19.9928 8.85597 19.5426 8.70471 19.3583 8.33377C18.0074 5.61546 15.2036 3.75 11.9655 3.75C9.18325 3.75 6.76662 5.12819 5.28432 7.25H7.36004C7.77425 7.25 8.11004 7.58579 8.11004 8C8.11004 8.41421 7.77425 8.75 7.36004 8.75H3.98504C3.92301 8.75131 3.86033 8.7449 3.79843 8.73031C3.7103 8.7097 3.62816 8.67355 3.55503 8.62491C3.46287 8.56389 3.38784 8.48494 3.33229 8.39512C3.32735 8.38713 3.32256 8.37904 3.31792 8.37088C3.27483 8.29528 3.2445 8.21146 3.22988 8.12235C3.22231 8.07676 3.21891 8.03034 3.21989 7.98369ZM4.64153 15.6662C4.45719 15.2953 4.00705 15.144 3.63612 15.3284C3.26518 15.5127 3.11392 15.9628 3.29826 16.3338C4.89278 19.5424 8.20507 21.75 12.0344 21.75C14.9466 21.75 17.5153 20.474 19.28 18.458V20C19.28 20.4142 19.6157 20.75 20.03 20.75C20.4442 20.75 20.78 20.4142 20.78 20V16.0159C20.7807 15.9803 20.7789 15.945 20.7746 15.91C20.7481 15.6881 20.6247 15.496 20.4479 15.3772C20.4015 15.346 20.3515 15.3198 20.2985 15.2995C20.2667 15.2873 20.2339 15.2772 20.2002 15.2694C20.1387 15.255 20.0764 15.2487 20.0148 15.25H16.6398C16.2256 15.25 15.8898 15.5858 15.8898 16C15.8898 16.4142 16.2256 16.75 16.6398 16.75H18.7155C17.2332 18.8718 14.8166 20.25 12.0344 20.25C8.79622 20.25 5.99241 18.3845 4.64153 15.6662Z" fill="currentColor"/>
</svg>
