<svg width="24" height="24" viewBox="0 0 24 24" fill="none" xmlns="http://www.w3.org/2000/svg">
<path fill-rule="evenodd" clip-rule="evenodd" d="M4.74992 8C4.74992 6.20507 6.20491 4.75 7.99974 4.75H9.99963C10.4138 4.75 10.7496 4.41421 10.7496 4C10.7496 3.58579 10.4138 3.25 9.99963 3.25H7.99974C5.37653 3.25 3.25 5.37665 3.25 8V16C3.25 18.6234 5.37653 20.75 7.99974 20.75H15.9993C18.6225 20.75 20.7491 18.6234 20.7491 16V14C20.7491 13.5858 20.4133 13.25 19.9991 13.25C19.5849 13.25 19.2491 13.5858 19.2491 14V16C19.2491 17.7949 17.7941 19.25 15.9993 19.25H7.99974C6.20491 19.25 4.74992 17.7949 4.74992 16V8ZM14.3426 3.25C13.9284 3.25 13.5927 3.58579 13.5927 4C13.5927 4.41421 13.9284 4.75 14.3426 4.75H18.1886L11.4687 11.4703C11.1759 11.7632 11.1759 12.2381 11.4687 12.5309C11.7616 12.8238 12.2365 12.8238 12.5293 12.5309L19.2492 5.81067V9.65685C19.2492 10.0711 19.585 10.4069 19.9992 10.4069C20.4134 10.4069 20.7491 10.0711 20.7491 9.65685V4C20.7491 3.58579 20.4134 3.25 19.9992 3.25H14.3426Z" fill="white"/>
</svg>
