<svg width="1em" height="1em" viewBox="0 0 24 24" fill="currentColor" xmlns="http://www.w3.org/2000/svg">
<path d="M8.88892 11.9167C8.4747 11.9167 8.13892 12.2525 8.13892 12.6667C8.13892 13.0809 8.4747 13.4167 8.88892 13.4167H15.1111C15.5254 13.4167 15.8611 13.0809 15.8611 12.6667C15.8611 12.2525 15.5254 11.9167 15.1111 11.9167H8.88892Z" fill="currentColor"/>
<path d="M8.13892 15.3333C8.13892 14.9191 8.4747 14.5833 8.88892 14.5833H12C12.4142 14.5833 12.75 14.9191 12.75 15.3333C12.75 15.7476 12.4142 16.0833 12 16.0833H8.88892C8.4747 16.0833 8.13892 15.7476 8.13892 15.3333Z" fill="currentColor"/>
<path d="M8.88892 8.91669C8.4747 8.91669 8.13892 9.25247 8.13892 9.66669C8.13892 10.0809 8.4747 10.4167 8.88892 10.4167H15.1111C15.5254 10.4167 15.8611 10.0809 15.8611 9.66669C15.8611 9.25247 15.5254 8.91669 15.1111 8.91669H8.88892Z" fill="currentColor"/>
<path fill-rule="evenodd" clip-rule="evenodd" d="M8.25 3.5C8.25 3.08579 8.58579 2.75 9 2.75H15C15.4142 2.75 15.75 3.08579 15.75 3.5V3.75H18.054C18.9459 3.75 19.6689 4.47301 19.6689 5.36486V19.6351C19.6689 20.527 18.9459 21.25 18.054 21.25H5.94592C5.05406 21.25 4.33105 20.527 4.33105 19.6351V5.36486C4.33105 4.473 5.05405 3.75 5.94592 3.75H8.25V3.5ZM15.75 6.07143V5.25H18.054C18.1175 5.25 18.1689 5.30142 18.1689 5.36486V19.6351C18.1689 19.6986 18.1175 19.75 18.054 19.75H5.94592C5.88247 19.75 5.83105 19.6986 5.83105 19.6351V5.36486C5.83105 5.30143 5.88248 5.25 5.94592 5.25H8.25V6.07143C8.25 6.48564 8.58579 6.82143 9 6.82143H15C15.4142 6.82143 15.75 6.48564 15.75 6.07143ZM9.75 4.25V5.32143H14.25V4.25H9.75Z" fill="currentColor"/>
</svg>
