<svg width="25" height="24" viewBox="0 0 25 24" fill="none" xmlns="http://www.w3.org/2000/svg">
<path fill-rule="evenodd" clip-rule="evenodd" d="M3.8749 10.848C9.24359 8.50891 12.8236 6.96686 14.6148 6.22182C19.7292 4.09458 20.7919 3.72505 21.4846 3.71285C21.6369 3.71017 21.9776 3.74792 22.1982 3.92697C22.3845 4.07814 22.4358 4.28236 22.4603 4.4257C22.4848 4.56903 22.5154 4.89555 22.4911 5.15068C22.214 8.06272 21.0147 15.1295 20.4046 18.391C20.1465 19.7711 19.6382 20.2338 19.1461 20.2791C18.0766 20.3775 17.2645 19.5723 16.2287 18.8933C14.6078 17.8308 13.6921 17.1694 12.1188 16.1326C10.3005 14.9344 11.4792 14.2758 12.5155 13.1996C12.7866 12.9179 17.4987 8.63192 17.5899 8.24312C17.6013 8.19449 17.6119 8.01323 17.5042 7.91752C17.3965 7.82181 17.2376 7.85454 17.1229 7.88057C16.9604 7.91747 14.371 9.62893 9.35486 13.015C8.61989 13.5197 7.95416 13.7656 7.3577 13.7527C6.70015 13.7385 5.43528 13.3809 4.49498 13.0752C3.34166 12.7003 2.42503 12.5021 2.50485 11.8654C2.54642 11.5338 3.0031 11.1946 3.8749 10.848Z" fill="white"/>
</svg>
