<svg width="1em" height="1em" viewBox="0 0 24 24" fill="currentColor" xmlns="http://www.w3.org/2000/svg">
<path d="M12.9978 14.6091C12.8692 15.0892 12.3757 15.3741 11.8956 15.2454L8.86241 14.4327C8.38231 14.304 8.09741 13.8106 8.22605 13.3305C8.35469 12.8504 8.84816 12.5655 9.32826 12.6941L11.4922 13.2739L12.7233 8.67942C12.8519 8.19932 13.3454 7.91441 13.8255 8.04305C14.3056 8.17169 14.5905 8.66517 14.4619 9.14526L12.9978 14.6091Z" fill="currentColor"/>
<path fill-rule="evenodd" clip-rule="evenodd" d="M3.44187 15.3502C2.08884 13.0067 2.89179 10.0101 5.23529 8.65704L12.1631 4.65726C14.5066 3.30423 17.5033 4.10718 18.8563 6.45069L20.3562 9.04862C21.7092 11.3921 20.9063 14.3888 18.5628 15.7418L13.0942 18.8991H20.8985C21.3956 18.8991 21.7985 19.302 21.7985 19.799C21.7985 20.296 21.3956 20.699 20.8985 20.699H2.89952C2.40249 20.699 1.99957 20.296 1.99957 19.799C1.99957 19.302 2.40249 18.8991 2.89952 18.8991H5.65615C5.38605 18.6183 5.14532 18.3007 4.94178 17.9481L3.44187 15.3502ZM6.13524 10.2158C4.65262 11.0718 4.14463 12.9676 5.00063 14.4503L6.50055 17.0482C7.35654 18.5308 9.25237 19.0388 10.735 18.1828L17.6628 14.183C19.1454 13.327 19.6534 11.4312 18.7974 9.94857L17.2975 7.35064C16.4415 5.86801 14.5457 5.36002 13.0631 6.21602L6.13524 10.2158Z" fill="currentColor"/>
</svg>
