<svg width="1em" height="1em" viewBox="0 0 75 74" fill="currentColor" xmlns="http://www.w3.org/2000/svg">
<g id="warning-filled">
<g id="Subtract">
<path d="M33.5366 9.17886C35.3339 6.19038 39.6662 6.19038 41.4635 9.17886L70.8354 58.0174C72.6893 61.1 70.469 65.0261 66.8719 65.0261H8.12825C4.53113 65.0261 2.31092 61.1 4.16481 58.0174L33.5366 9.17886ZM39.465 46.8741C39.9758 46.8741 40.39 46.46 40.39 45.9491V26.9866C40.39 26.4758 39.9758 26.0616 39.465 26.0616H35.5337C35.0228 26.0616 34.6087 26.4758 34.6087 26.9866V45.9491C34.6087 46.46 35.0228 46.8741 35.5337 46.8741H39.465ZM37.4998 58.4367C39.7987 58.4367 41.6623 56.5731 41.6623 54.2742C41.6623 51.9753 39.7987 50.1117 37.4998 50.1117C35.2009 50.1117 33.3373 51.9753 33.3373 54.2742C33.3373 56.5731 35.2009 58.4367 37.4998 58.4367Z" fill="white"/>
</g>
</g>
</svg>
