<svg xmlns="http://www.w3.org/2000/svg" width="24" height="24" viewBox="0 0 24 24" fill="none">
  <path fill-rule="evenodd" clip-rule="evenodd" d="M21.7045 12.4795C21.7045 11.3492 20.7882 10.4328 19.6579 10.4328C19.106 10.4328 18.6064 10.6522 18.2382 11.0071C16.8391 9.99761 14.9115 9.34546 12.7645 9.27059L13.6968 4.88384L16.7429 5.53146C16.7801 6.30592 17.4144 6.92396 18.1979 6.92396C19.0055 6.92396 19.6601 6.26935 19.6601 5.462C19.6601 4.65461 19.0055 4 18.1979 4C17.6237 4 17.1319 4.33432 16.8928 4.81601L13.4913 4.09293C13.3967 4.07236 13.2974 4.09086 13.2164 4.14393C13.1348 4.19674 13.078 4.27983 13.0577 4.37458L12.0165 9.26916C9.83803 9.32961 7.87957 9.98259 6.4624 11.0034C6.09481 10.6507 5.59663 10.4328 5.04692 10.4328C3.91652 10.4328 3 11.3492 3 12.4795C3 13.3112 3.4969 14.0256 4.2093 14.3459C4.17784 14.5494 4.16057 14.7558 4.16057 14.9649C4.16057 18.114 7.82611 20.6667 12.3477 20.6667C16.8694 20.6667 20.5351 18.114 20.5351 14.9649C20.5351 14.7573 20.518 14.5521 20.487 14.35C21.2039 14.0315 21.7045 13.3147 21.7045 12.4795ZM15.8237 17.805C14.826 18.8013 12.9139 18.8789 12.3519 18.8789C11.7894 18.8789 9.87711 18.8013 8.8806 17.8048C8.73259 17.6568 8.73259 17.4169 8.8806 17.2688C9.02842 17.1212 9.26858 17.121 9.41639 17.2688C10.0453 17.898 11.3907 18.1212 12.3519 18.1212C13.3128 18.1212 14.6584 17.898 15.2883 17.2686C15.4368 17.121 15.6765 17.1212 15.8241 17.269C15.9722 17.4172 15.9719 17.657 15.8237 17.805ZM15.5663 15.4039C14.7604 15.4039 14.1043 14.7481 14.1043 13.9421C14.1043 13.1358 14.7604 12.4795 15.5663 12.4795C16.3725 12.4795 17.0285 13.1358 17.0285 13.9421C17.0285 14.7481 16.3725 15.4039 15.5663 15.4039ZM7.6717 13.9419C7.6717 13.1356 8.32774 12.4795 9.1343 12.4795C9.94002 12.4795 10.5957 13.1356 10.5957 13.9419C10.5957 14.7478 9.94002 15.4035 9.1343 15.4035C8.32774 15.4035 7.6717 14.7478 7.6717 13.9419Z" fill="white"/>
</svg>