<svg width="1em" height="1em" viewBox="0 0 50 48" fill="currentColor" xmlns="http://www.w3.org/2000/svg">
<mask id="path-1-inside-1_1208_2095" fill="white">
<path fill-rule="evenodd" clip-rule="evenodd" d="M19.9814 17.6048H0.5V0H33.0689C42.1435 0 49.5 7.35647 49.5 16.4311V47.8264H31.8952V28.5348L12.0896 47.9736H0.646504V36.6772L19.9814 17.6048Z"/>
</mask>
<path d="M19.9814 17.6048L21.0348 18.6727L23.638 16.1048H19.9814V17.6048ZM0.5 17.6048H-1V19.1048H0.5V17.6048ZM0.5 0V-1.5H-1V0H0.5ZM49.5 47.8264V49.3264H51V47.8264H49.5ZM31.8952 47.8264H30.3952V49.3264H31.8952V47.8264ZM31.8952 28.5348H33.3952V24.9608L30.8445 27.4643L31.8952 28.5348ZM12.0896 47.9736V49.4736H12.7027L13.1403 49.0441L12.0896 47.9736ZM0.646504 47.9736H-0.853496V49.4736H0.646504V47.9736ZM0.646504 36.6772L-0.406883 35.6093L-0.853496 36.0499V36.6772H0.646504ZM19.9814 16.1048H0.5V19.1048H19.9814V16.1048ZM2 17.6048V0H-1V17.6048H2ZM0.5 1.5H33.0689V-1.5H0.5V1.5ZM33.0689 1.5C41.3151 1.5 48 8.1849 48 16.4311H51C51 6.52805 42.972 -1.5 33.0689 -1.5V1.5ZM48 16.4311V47.8264H51V16.4311H48ZM49.5 46.3264H31.8952V49.3264H49.5V46.3264ZM33.3952 47.8264V28.5348H30.3952V47.8264H33.3952ZM30.8445 27.4643L11.0389 46.9031L13.1403 49.0441L32.9459 29.6053L30.8445 27.4643ZM12.0896 46.4736H0.646504V49.4736H12.0896V46.4736ZM2.1465 47.9736V36.6772H-0.853496V47.9736H2.1465ZM1.69989 37.7451L21.0348 18.6727L18.928 16.5369L-0.406883 35.6093L1.69989 37.7451Z" fill="white" mask="url(#path-1-inside-1_1208_2095)"/>
</svg>
