<svg xmlns="http://www.w3.org/2000/svg" width="144" height="141" viewBox="0 0 144 141" fill="none">
  <g opacity="0.4">
    <path d="M124.039 61.1443C124.039 62.1887 123.349 63.233 121.969 64.0298L76.9826 90.0027M124.039 61.1443V81.3447C124.04 82.3893 123.349 83.434 121.969 84.231L76.9826 110.204C74.222 111.798 69.7461 111.798 66.9856 110.204L21.9992 84.2311C20.619 83.4343 19.9289 82.3899 19.9287 81.3456V61.1444C19.9289 62.1888 20.619 63.233 21.9991 64.0298L66.9856 90.0027C69.7461 91.5965 74.222 91.5965 76.9826 90.0027M124.039 61.1443V61.1436M76.9826 90.0027C76.9826 90.0027 76.9826 90.0027 76.9826 90.0027Z" stroke="white" stroke-linejoin="round"/>
    <circle cx="2.16441" cy="2.16441" r="2.16441" transform="matrix(0.866025 0.5 -2.20305e-08 1 50.5547 84.1768)" stroke="white"/>
    <circle cx="2.16441" cy="2.16441" r="2.16441" transform="matrix(0.866025 0.5 -2.20305e-08 1 56.8022 87.7832)" stroke="white"/>
    <circle cx="2.16441" cy="2.16441" r="2.16441" transform="matrix(0.866025 0.5 -2.20305e-08 1 63.0508 91.3916)" stroke="white"/>
    <rect width="63.4893" height="63.4893" rx="5.71618" transform="matrix(0.866025 0.5 -0.866025 0.5 71.9834 29.3994)" stroke="white"/>
    <path d="M38.458 59.7012C38.4581 60.2233 38.8032 60.7455 39.4932 61.1439L69.4842 78.4592C70.8645 79.2561 73.1024 79.2561 74.4827 78.4592L104.474 61.144C105.164 60.7455 105.509 60.2234 105.509 59.7012V61.1438C105.509 61.6661 105.164 62.1884 104.474 62.5869L74.4827 79.9022C73.1024 80.6991 70.8645 80.6991 69.4842 79.9022L39.4932 62.5869C38.8032 62.1884 38.4581 61.6663 38.458 61.1441V59.7012Z" stroke="white" stroke-linejoin="round"/>
    <rect width="40.4023" height="40.4023" rx="2.85809" transform="matrix(0.866025 0.5 -0.866025 0.5 71.9832 39.5)" stroke="white"/>
    <path d="M81.9802 68.3589L73.2327 73.4093C72.5426 73.8077 71.4236 73.8077 70.7335 73.4093L61.9861 68.3589L70.7335 63.3086C71.4237 62.9102 72.5426 62.9102 73.2328 63.3086L81.9802 68.3589Z" stroke="white"/>
    <path d="M95.7259 58.9796L73.2327 45.9932C72.5425 45.5947 71.4236 45.5947 70.7334 45.9932L48.2403 58.9796C47.8952 59.1789 47.7226 59.4401 47.7227 59.7012V59.7083C47.7258 59.967 47.8983 60.2252 48.2402 60.4226L61.9861 68.3587L70.7335 63.3084C71.4236 62.9099 72.5426 62.9099 73.2327 63.3084L81.9801 68.3587L95.7259 60.4226C96.071 60.2233 96.2436 59.9622 96.2435 59.701C96.2435 59.4399 96.0709 59.1788 95.7259 58.9796ZM95.7259 58.9796V58.9796Z" stroke="white"/>
  </g>
</svg>