<svg xmlns="http://www.w3.org/2000/svg" width="20" height="20" viewBox="0 0 20 20" fill="none">
  <path fill-rule="evenodd" clip-rule="evenodd" d="M3.54166 8.13737C3.54166 6.87172 4.56767 5.8457 5.83332 5.8457H12.6961C13.9617 5.8457 14.9877 6.87172 14.9877 8.13737V15.0001C14.9877 16.2658 13.9617 17.2918 12.6961 17.2918H5.83332C4.56767 17.2918 3.54166 16.2658 3.54166 15.0001V8.13737ZM5.83332 7.0957C5.25803 7.0957 4.79166 7.56207 4.79166 8.13737V15.0001C4.79166 15.5754 5.25803 16.0418 5.83332 16.0418H12.6961C13.2714 16.0418 13.7377 15.5754 13.7377 15.0001V8.13737C13.7377 7.56207 13.2714 7.0957 12.6961 7.0957H5.83332Z" fill="#989DA0"/>
  <path fill-rule="evenodd" clip-rule="evenodd" d="M8.24747 3.33398C8.24747 2.98881 8.52729 2.70898 8.87247 2.70898H14.9999C16.7258 2.70898 18.1249 4.10809 18.1249 5.83398V11.9614C18.1249 12.3066 17.8451 12.5864 17.4999 12.5864C17.1547 12.5864 16.8749 12.3066 16.8749 11.9614V5.83398C16.8749 4.79845 16.0355 3.95898 14.9999 3.95898H8.87247C8.52729 3.95898 8.24747 3.67916 8.24747 3.33398Z" fill="#989DA0"/>
</svg>