<svg xmlns="http://www.w3.org/2000/svg" width="20" height="20" viewBox="0 0 20 20" fill="none">
  <path fill-rule="evenodd" clip-rule="evenodd" d="M3.5415 8.13737C3.5415 6.87172 4.56752 5.8457 5.83317 5.8457H12.6959C13.9616 5.8457 14.9876 6.87172 14.9876 8.13737V15.0001C14.9876 16.2658 13.9616 17.2918 12.6959 17.2918H5.83317C4.56752 17.2918 3.5415 16.2658 3.5415 15.0001V8.13737ZM5.83317 7.0957C5.25787 7.0957 4.7915 7.56207 4.7915 8.13737V15.0001C4.7915 15.5754 5.25787 16.0418 5.83317 16.0418H12.6959C13.2712 16.0418 13.7376 15.5754 13.7376 15.0001V8.13737C13.7376 7.56207 13.2712 7.0957 12.6959 7.0957H5.83317Z" fill="white"/>
  <path fill-rule="evenodd" clip-rule="evenodd" d="M8.24731 3.33398C8.24731 2.98881 8.52714 2.70898 8.87231 2.70898H14.9998C16.7257 2.70898 18.1248 4.10809 18.1248 5.83398V11.9614C18.1248 12.3066 17.8449 12.5864 17.4998 12.5864C17.1546 12.5864 16.8748 12.3066 16.8748 11.9614V5.83398C16.8748 4.79845 16.0353 3.95898 14.9998 3.95898H8.87231C8.52714 3.95898 8.24731 3.67916 8.24731 3.33398Z" fill="white"/>
</svg>