<svg xmlns="http://www.w3.org/2000/svg" width="144" height="141" viewBox="0 0 144 141" fill="none">
  <path d="M44.0485 34.0744C44.0485 34.0744 44.5075 33.7899 45.717 33.0687C52.6871 28.9123 60.2521 24.8636 68.3192 25.7478C81.538 27.1965 95.031 37.0132 102.927 52.1566C111.284 66.1499 113.302 81.7481 108.113 94.2463C104.818 102.18 97.3968 107.36 89.9884 111.708V111.708" stroke="white" stroke-opacity="0.4"/>
  <ellipse cx="67.8862" cy="72.3879" rx="45.1983" ry="31.7374" transform="rotate(-120 67.8862 72.3879)" stroke="white" stroke-opacity="0.4"/>
  <ellipse cx="67.2354" cy="72.7638" rx="39.3835" ry="26.9027" transform="rotate(-120 67.2354 72.7638)" stroke="white" stroke-opacity="0.4"/>
  <path fill-rule="evenodd" clip-rule="evenodd" d="M83.6097 88.98L83.6085 88.9809C83.0901 89.3365 82.4759 89.4864 81.7689 89.4301L81.7665 89.4299C81.0571 89.3663 80.2801 89.0876 79.4405 88.6029C78.5955 88.115 77.8132 87.4936 77.0984 86.7353L77.0949 86.7316L77.0949 86.7316C76.3882 85.9718 75.7717 85.112 75.248 84.1558L75.2453 84.1508L75.2453 84.1508C74.7264 83.1887 74.3277 82.167 74.0459 81.0907L74.0448 81.0865C73.7676 80.0013 73.6322 78.8902 73.6321 77.755L73.6321 77.1735C73.632 76.0382 73.7673 75.0835 74.0444 74.3183L74.0452 74.3161C74.3265 73.5592 74.7221 72.9955 75.2359 72.6353L75.236 72.6352C75.7547 72.2722 76.3699 72.1218 77.0786 72.1852C77.7938 72.2453 78.5767 72.524 79.4224 73.0123C80.2623 73.4972 81.0396 74.1192 81.7492 74.8817C82.463 75.6393 83.0809 76.5012 83.5998 77.4631C84.1197 78.4202 84.5185 79.4429 84.8002 80.5255C85.0836 81.6152 85.2222 82.7289 85.2222 83.8651L85.2223 84.4465C85.2223 85.5826 85.084 86.5364 84.8007 87.2987C84.5247 88.0534 84.1288 88.6168 83.6097 88.98ZM84.4584 86.9618C84.7257 86.2424 84.8594 85.3341 84.8593 84.237L84.8593 83.6556C84.8592 82.5584 84.7254 81.4957 84.458 80.4676C84.1905 79.4394 83.8149 78.4802 83.3313 77.59C82.8476 76.6933 82.273 75.8918 81.6073 75.1855C80.9472 74.476 80.219 73.8913 79.4224 73.4314C78.6202 72.9682 77.8863 72.7087 77.2206 72.6529C76.5606 72.5937 75.9889 72.7333 75.5053 73.0717C75.0274 73.4067 74.6548 73.934 74.3874 74.6534C74.1258 75.376 73.995 76.2859 73.995 77.3831L73.9951 77.9645C73.9951 79.0617 74.1261 80.1227 74.3878 81.1475C74.6553 82.1691 75.0309 83.1283 75.5145 84.0251C76.0039 84.9186 76.5785 85.7201 77.2385 86.4296C77.9042 87.1359 78.6382 87.7206 79.4404 88.1837C80.237 88.6436 80.9652 88.9031 81.6252 88.9623C82.2852 89.0148 82.8569 88.8752 83.3405 88.5434C83.8241 88.2051 84.1967 87.6779 84.4584 86.9618ZM81.304 79.7997L81.3041 79.7998C81.2084 79.2353 81.0684 78.7477 80.8925 78.3302C80.7176 77.9152 80.5091 77.5717 80.2687 77.2862L80.265 77.2819L80.2614 77.2775C80.0261 76.9901 79.7498 76.7494 79.4226 76.5605C79.0753 76.36 78.7912 76.2786 78.5582 76.2942L78.5536 76.2945L78.5535 76.2944C78.3195 76.3048 78.1165 76.4094 77.9468 76.625C77.7754 76.8428 77.6377 77.1712 77.5418 77.626C77.4516 78.0775 77.4047 78.6442 77.4048 79.332L77.4048 79.9331C77.4048 80.6135 77.4517 81.2346 77.5421 81.7976C77.6377 82.3545 77.7751 82.8425 77.9475 83.2669C78.1238 83.6901 78.3309 84.0387 78.5661 84.3263C78.806 84.616 79.0938 84.8644 79.4402 85.0645C79.7674 85.2534 80.0437 85.3317 80.279 85.316C80.5141 85.3004 80.7183 85.1899 80.8889 84.9674L80.8914 84.9643L80.8914 84.9643C81.0689 84.7422 81.209 84.4143 81.3045 83.9671L81.3052 83.9638C81.4059 83.514 81.4582 82.9524 81.4581 82.2733L81.4581 81.6722C81.458 80.986 81.4056 80.3646 81.3052 79.8062L81.304 79.7997ZM77.6394 83.3106C77.4403 82.8212 77.2895 82.2775 77.187 81.6797C77.0903 81.0786 77.0419 80.4265 77.0418 79.7236L77.0418 79.1224C77.0417 78.4129 77.0901 77.8167 77.1868 77.3338C77.2891 76.8476 77.4399 76.4781 77.639 76.2252C77.8381 75.9722 78.0856 75.8392 78.3814 75.8261C78.6773 75.8063 79.0243 75.9115 79.4226 76.1414C79.8038 76.3615 80.1423 76.6522 80.4382 77.0135C80.7398 77.3716 80.993 77.7937 81.1978 78.2799C81.4027 78.766 81.5563 79.3113 81.6588 79.9157C81.7669 80.5169 81.821 81.1722 81.821 81.8817L81.8211 82.4829C81.8211 83.1858 81.7671 83.7787 81.659 84.2616C81.5567 84.7412 81.4031 85.1091 81.1983 85.3653C80.9992 85.6248 80.7517 85.7644 80.4558 85.7841C80.16 85.8039 79.8215 85.7037 79.4403 85.4836C79.042 85.2536 78.6921 84.9564 78.3905 84.5917C78.0947 84.2304 77.8443 83.8034 77.6394 83.3106Z" fill="white" fill-opacity="0.4"/>
  <path fill-rule="evenodd" clip-rule="evenodd" d="M67.62 70.819L66.2853 75.0418L68.959 76.5854L67.62 70.819ZM68.4667 75.8821L67.6206 72.2383L66.7772 74.9066L68.4667 75.8821ZM69.0275 67.628L73.6199 84.6272L70.3939 82.7647L69.6752 79.6694L65.5716 77.3002L64.8551 79.5669L61.6377 77.7093L66.2027 65.9971L69.0275 67.628ZM65.9493 65.4317L61.1177 77.8282L65.123 80.1406L65.8394 77.8739L69.4076 79.934L70.1264 83.0293L74.141 85.3472L69.2803 67.3549L65.9493 65.4317Z" fill="white" fill-opacity="0.4"/>
  <path fill-rule="evenodd" clip-rule="evenodd" d="M51.4913 71.85L51.4904 57.5017L55.4845 59.8077C56.3266 60.2939 57.0975 60.9065 57.7973 61.6456C58.5029 62.3814 59.1117 63.2059 59.6238 64.1191C60.1416 65.029 60.5399 65.9849 60.8187 66.9868C61.1033 67.9854 61.2456 68.9938 61.2456 70.0122L61.2457 70.6133C61.2457 71.625 61.1036 72.4692 60.8191 73.1459C60.5404 73.8259 60.145 74.3236 59.633 74.6389C59.121 74.9542 58.5151 75.0774 57.8153 75.0084C57.1212 74.9362 56.3588 74.6603 55.5281 74.1807L51.4913 71.85ZM54.4867 70.9188L55.5279 71.5199C56.0969 71.8484 56.5776 71.9683 56.9702 71.8796C57.3684 71.7942 57.67 71.4986 57.8748 70.9927C58.0852 70.4835 58.1904 69.7691 58.1904 68.8493L58.1903 68.2285C58.1903 67.5386 58.1305 66.8997 58.011 66.3117C57.8972 65.7205 57.7265 65.185 57.4989 64.7054C57.2712 64.2193 56.9868 63.789 56.6454 63.4145C56.3097 63.0433 55.9228 62.7312 55.4847 62.4783L54.4862 61.9018L54.4867 70.9188ZM54.8497 70.7092L55.5279 71.1008C56.0371 71.3948 56.442 71.4884 56.7629 71.4159L56.7649 71.4154C57.0909 71.3455 57.3515 71.1023 57.5353 70.6482L57.5361 70.6464C57.7258 70.1873 57.8275 69.5254 57.8274 68.6398L57.8274 68.0189C57.8273 67.3557 57.7697 66.7557 57.6602 66.2169L57.6588 66.2101C57.5541 65.6658 57.4012 65.1953 57.2092 64.7907L57.2072 64.7865C57.0157 64.3775 56.78 64.0217 56.4964 63.7107L56.4944 63.7084C56.2141 63.3985 55.8803 63.1258 55.4847 62.8974L54.8491 62.5305L54.8497 70.7092ZM51.1284 72.0596L51.1274 56.873L55.4845 59.3886C56.3683 59.8988 57.1866 60.5472 57.9347 61.337C58.6853 62.1201 59.3366 63.0014 59.8846 63.9781C60.4379 64.9509 60.8617 65.9699 61.1571 67.0305C61.46 68.0943 61.6085 69.1587 61.6086 70.2217L61.6086 70.8228C61.6087 71.8799 61.4601 72.7724 61.1577 73.4925C60.8625 74.2121 60.4416 74.7436 59.8938 75.0809C59.3463 75.4182 58.6986 75.5492 57.9543 75.4759L57.9529 75.4757C57.2107 75.3984 56.4009 75.1037 55.5281 74.5998L51.1284 72.0596Z" fill="white" fill-opacity="0.4"/>
</svg>