<svg width="1em" height="1em" viewBox="0 0 18 18" fill="currentColor" xmlns="http://www.w3.org/2000/svg">
<path fill-rule="evenodd" clip-rule="evenodd" d="M14.2175 4.42928C15.9115 6.82647 16.7482 9.53044 16.4354 12.6433C16.4341 12.6565 16.427 12.6686 16.4157 12.6765C15.1329 13.5831 13.8899 14.1334 12.6644 14.4982C12.6449 14.504 12.6237 14.4971 12.6117 14.4811C12.3286 14.102 12.0714 13.7022 11.846 13.2825C11.8331 13.2578 11.8449 13.228 11.8715 13.2183C12.2801 13.0701 12.6686 12.8925 13.0422 12.6823C13.0717 12.6657 13.0736 12.6251 13.0464 12.6056C12.9671 12.5489 12.8885 12.4894 12.8133 12.4298C12.7992 12.4188 12.7803 12.4167 12.7644 12.4241C10.3383 13.5023 7.68069 13.5023 5.22594 12.4241C5.21 12.4172 5.19106 12.4196 5.17738 12.4304C5.10238 12.4899 5.02363 12.5489 4.94506 12.6056C4.91788 12.6251 4.92013 12.6657 4.94975 12.6823C5.32344 12.8886 5.71194 13.0701 6.11994 13.219C6.14637 13.2287 6.15894 13.2578 6.14581 13.2825C5.92531 13.7028 5.66806 14.1025 5.37969 14.4816C5.36713 14.497 5.3465 14.504 5.327 14.4982C4.10732 14.1334 2.86438 13.5831 1.58151 12.6765C1.57082 12.6686 1.56313 12.656 1.56201 12.6428C1.30063 9.95018 1.83332 7.22384 3.77788 4.42874C3.78257 4.42134 3.78969 4.41556 3.79794 4.41213C4.75475 3.9895 5.77981 3.67858 6.85119 3.50101C6.87069 3.49812 6.89019 3.50678 6.90031 3.52338C7.03269 3.74896 7.184 4.03823 7.28637 4.27463C8.41568 4.10861 9.56262 4.10861 10.7156 4.27463C10.8179 4.04328 10.964 3.74896 11.0958 3.52338C11.1054 3.50649 11.1252 3.49746 11.1449 3.50101C12.2169 3.67912 13.2419 3.99005 14.198 4.41213C14.2064 4.41556 14.2134 4.42134 14.2175 4.42928ZM7.8606 9.54889C7.87241 8.75289 7.26941 8.09422 6.51248 8.09422C5.76173 8.09422 5.16454 8.74712 5.16454 9.54889C5.16454 10.3505 5.77354 11.0034 6.51248 11.0034C7.26341 11.0034 7.8606 10.3505 7.8606 9.54889ZM12.8448 9.54889C12.8566 8.75289 12.2536 8.09422 11.4969 8.09422C10.7459 8.09422 10.1488 8.74712 10.1488 9.54889C10.1488 10.3505 10.7578 11.0034 11.4969 11.0034C12.2536 11.0034 12.8448 10.3505 12.8448 9.54889Z" fill="white"/>
</svg>
