<svg xmlns="http://www.w3.org/2000/svg" width="144" height="141" viewBox="0 0 144 141" fill="none">
  <path d="M57.0403 52.9326H77.1684" stroke="#747474" stroke-miterlimit="10" stroke-linecap="round" stroke-linejoin="round"/>
  <path d="M51.9111 69.2816V52.0654H57.6612" fill="#171717"/>
  <path d="M51.9111 69.2816V52.0654H57.6612" stroke="#747474" stroke-miterlimit="10" stroke-linecap="round" stroke-linejoin="round"/>
  <path d="M84.9619 94.3443H51.9111V67.248" fill="#171717"/>
  <path d="M84.9619 94.3443H51.9111V67.248" stroke="#747474" stroke-miterlimit="10" stroke-linecap="round" stroke-linejoin="round"/>
  <path d="M87.8279 89.6328V94.3435H67.6213" fill="#171717"/>
  <path d="M87.8279 89.6328V94.3435H67.6213" stroke="#747474" stroke-miterlimit="10" stroke-linecap="round" stroke-linejoin="round"/>
  <path d="M48.4417 72.7513V55.5352H51.6208" stroke="#747474" stroke-miterlimit="10" stroke-linecap="round" stroke-linejoin="round"/>
  <path d="M81.4924 97.814H48.4417V70.7178" stroke="#747474" stroke-miterlimit="10" stroke-linecap="round" stroke-linejoin="round"/>
  <path d="M84.3584 94.3447L84.3584 97.8141H64.1519" stroke="#747474" stroke-miterlimit="10" stroke-linecap="round" stroke-linejoin="round"/>
  <path d="M93.2528 56.4315V91.3026H55.311V46.6406H83.4609L90.0448 53.2245L93.2528 56.4315Z" fill="#171717" stroke="#747474" stroke-miterlimit="10" stroke-linecap="round" stroke-linejoin="round"/>
  <path d="M93.2529 56.4315H83.4609V46.6406L90.0448 53.2245L93.2529 56.4315Z" fill="#171717" stroke="#747474" stroke-miterlimit="10" stroke-linecap="round" stroke-linejoin="round"/>
  <path d="M62.0286 59.6504H75.7903" stroke="#747474" stroke-width="0.75" stroke-miterlimit="10" stroke-linecap="round" stroke-linejoin="round"/>
  <path d="M62.0286 63.7227H86.314" stroke="#747474" stroke-width="0.75" stroke-miterlimit="10" stroke-linecap="round" stroke-linejoin="round"/>
  <path d="M62.0286 68.3994H86.314" stroke="#747474" stroke-width="0.75" stroke-miterlimit="10" stroke-linecap="round" stroke-linejoin="round"/>
  <path d="M62.0286 72.4707H86.314" stroke="#747474" stroke-width="0.75" stroke-miterlimit="10" stroke-linecap="round" stroke-linejoin="round"/>
  <path d="M62.0286 76.543H86.314" stroke="#747474" stroke-width="0.75" stroke-miterlimit="10" stroke-linecap="round" stroke-linejoin="round"/>
  <path d="M62.0286 80.6152H86.314" stroke="#747474" stroke-width="0.75" stroke-miterlimit="10" stroke-linecap="round" stroke-linejoin="round"/>
  <path d="M62.0286 84.6875H83.3195" stroke="#747474" stroke-width="0.75" stroke-miterlimit="10" stroke-linecap="round" stroke-linejoin="round"/>
  <rect x="31.6948" y="32.7744" width="78.0036" height="78.0036" stroke="white" stroke-opacity="0.4" stroke-dasharray="22 22"/>
  <path d="M138.144 114.867L123.649 118.679C122.623 118.949 121.448 118.376 121.024 117.399L116.828 107.736C116.404 106.759 116.891 105.749 117.917 105.48L132.412 101.668C133.438 101.398 134.613 101.971 135.037 102.947L139.233 112.611C139.657 113.587 139.17 114.598 138.144 114.867Z" stroke="#747474" stroke-width="0.75" stroke-miterlimit="10" stroke-linecap="round" stroke-linejoin="round"/>
  <path d="M138.138 114.862C139.166 114.592 139.786 113.545 139.524 112.524L136.606 101.162C136.355 100.186 135.389 99.5957 134.406 99.7802L133.658 98.7436C133.517 98.5492 133.271 98.4621 133.037 98.5234L128.289 99.77C128.056 99.8313 127.883 100.029 127.853 100.268L127.7 101.527L119.749 103.614C118.93 103.829 118.37 104.538 118.309 105.333" stroke="#747474" stroke-width="0.75" stroke-miterlimit="10" stroke-linecap="round" stroke-linejoin="round"/>
  <path d="M115.136 37.2121C117.863 34.4851 117.863 30.0637 115.136 27.3367C112.409 24.6097 107.988 24.6096 105.261 27.3367C102.534 30.0637 102.534 34.4851 105.261 37.2121C107.988 39.9392 112.409 39.9392 115.136 37.2121Z" fill="#171717" stroke="#747474" stroke-miterlimit="10" stroke-linecap="round" stroke-linejoin="round"/>
  <path d="M110.201 28.6758V35.8716" stroke="#747474" stroke-miterlimit="10" stroke-linecap="round" stroke-linejoin="round"/>
  <path d="M113.799 32.2744H106.603" stroke="#747474" stroke-miterlimit="10" stroke-linecap="round" stroke-linejoin="round"/>
</svg>