<svg width="20" height="20" viewBox="0 0 20 20" fill="none" xmlns="http://www.w3.org/2000/svg">
<path fill-rule="evenodd" clip-rule="evenodd" d="M12.3074 3.1407C13.1616 2.28643 14.5467 2.28643 15.401 3.1407L16.3773 4.11701C17.2315 4.97129 17.2315 6.35633 16.3773 7.21061L7.21061 16.3773C6.80037 16.7875 6.24397 17.018 5.66381 17.018H2.5L2.5 13.8542C2.5 13.274 2.73047 12.7176 3.1407 12.3074L12.3074 3.1407ZM14.6644 3.87727C14.2169 3.4298 13.4914 3.4298 13.0439 3.87727L12.0907 4.83048L14.6875 7.42724L15.6407 6.47404C16.0882 6.02656 16.0882 5.30106 15.6407 4.85358L14.6644 3.87727ZM13.9509 8.16381L11.3542 5.56705L3.87727 13.0439C3.66239 13.2588 3.54167 13.5503 3.54167 13.8542L3.54167 15.9763H5.66381C5.96771 15.9763 6.25915 15.8556 6.47404 15.6407L13.9509 8.16381Z" fill="#989DA0"/>
</svg>
