<svg width="1em" height="1em" viewBox="0 0 175 75" fill="currentColor" xmlns="http://www.w3.org/2000/svg">
<path d="M55.4817 37.4314L50.2483 28.2388L39.672 28.3073L34.329 37.5684L39.5624 46.7611L50.1387 46.6926L55.4817 37.4314ZM46.4123 44.5691L40.7953 44.6102L38.0143 39.733L39.2747 37.541L41.4255 41.3359L43.3983 37.9109L45.2615 38.9932L43.2887 42.4182L47.659 42.3908L46.4123 44.5691ZM50.5223 37.4588L48.3714 33.6639L46.3986 37.0889L44.5354 36.0066L46.5082 32.5817L42.1379 32.6091L43.3983 30.4171L49.0153 30.376L51.7964 35.2531L50.5223 37.4588Z" fill="white" fill-opacity="0.4"/>
<path d="M69.1012 33.3222V31.4316H61.8813H59.9907V33.3222V36.7335V38.6378V41.6792V43.5698H69.1012V41.6792H61.8813V38.6378H67.9641V36.7335H61.8813V33.3222H69.1012ZM93.9666 35.2819V34.4594V34.4462V34.432H95.8709V34.4462V43.5425V43.5566H93.9666V43.5425V42.6798C93.2131 43.2278 92.2952 43.5429 91.3088 43.5429C88.8017 43.5429 86.7604 41.5153 86.7604 38.9945L86.7604 38.9875L86.7604 38.9804C86.7604 36.4733 88.788 34.432 91.3088 34.432C91.9735 34.432 92.5958 34.5773 93.1597 34.8316C93.4443 34.9558 93.7139 35.1073 93.9666 35.2819ZM88.651 38.9941C88.651 40.46 89.8429 41.6519 91.3088 41.6519C92.7747 41.6519 93.9666 40.46 93.9666 38.9941C93.9666 37.5282 92.7747 36.3363 91.3088 36.3363C89.8429 36.3363 88.651 37.5282 88.651 38.9941ZM101.748 34.4456C104.255 34.4456 106.296 36.4732 106.296 38.994C106.296 39.0077 106.296 39.0077 106.31 39.035L106.31 39.0351V43.5835H104.406V39.0351V39.0214C104.406 37.5555 103.214 36.3636 101.748 36.3636C100.282 36.3636 99.0903 37.5555 99.0903 39.0214V39.0351V43.5835H97.186V34.473H99.0903V35.3087C99.8438 34.7607 100.762 34.4456 101.748 34.4456ZM82.7738 35.309V34.4733H80.8695V43.5837H82.7738V39.0354V39.0217C82.7738 37.5558 83.9656 36.3639 85.4315 36.3639V34.4596C84.4314 34.4459 83.5135 34.761 82.7738 35.309ZM138.176 34.4733V35.309C138.916 34.761 139.834 34.4459 140.834 34.4596V36.3639C139.368 36.3639 138.176 37.5558 138.176 39.0217V39.0354V43.5837H136.272V34.4733H138.176ZM79.5406 31.4316H75.9375H74.047H70.4439V33.3222H74.047V43.5698H75.9375V33.3222H79.5406V31.4316ZM110.502 36.3634H110.379C109.913 36.3634 109.53 36.747 109.516 37.1991C109.516 37.6512 109.9 38.0485 110.365 38.0485H111.859H113.859H113.982C115.503 38.0485 116.736 39.2952 116.736 40.8022C116.736 42.3229 115.489 43.5559 113.982 43.5559H112.242H110.982H109.708V44.693L107.625 42.6106L109.708 40.5282V41.6653H110.982H111.859H112.242H113.982C114.434 41.6653 114.832 41.2817 114.832 40.8159C114.832 40.3638 114.448 39.9665 113.982 39.9665H113.859H111.872H110.379C108.858 39.9665 107.625 38.7198 107.625 37.2128C107.625 35.6921 108.872 34.4591 110.379 34.4591H110.502H113.859H113.982C114.215 34.4591 114.434 34.3632 114.585 34.2125L113.79 33.418H116.736V36.3634L115.928 35.5551C115.421 36.0483 114.736 36.3634 113.982 36.3634H113.859H110.502ZM124.504 33.3629V31.4723C121.983 31.4723 119.955 33.5136 119.955 36.0207H118.065V37.9113H119.955V43.6105H121.846V37.9113H124.517V36.0207H121.846C121.846 34.5548 123.038 33.3629 124.504 33.3629ZM125.846 39.0488C125.846 36.5417 127.874 34.5004 130.395 34.5004C132.902 34.5004 134.943 36.5417 134.943 39.0488C134.943 39.3776 134.916 39.6927 134.847 39.9941H134.683H132.888H127.901C128.285 41.0079 129.258 41.7203 130.395 41.7203C131.135 41.7203 131.806 41.4189 132.285 40.9394L133.614 42.2683C132.792 43.0903 131.655 43.5972 130.395 43.5972C127.888 43.5972 125.846 41.5696 125.846 39.0488ZM130.395 36.391C129.258 36.391 128.285 37.1171 127.901 38.1172H132.888C132.505 37.1034 131.532 36.391 130.395 36.391Z" fill="white" fill-opacity="0.4"/>
</svg>
