<svg xmlns="http://www.w3.org/2000/svg" width="152" height="141" viewBox="0 0 152 141" fill="none">
  <path d="M129.426 65.06L150.202 77.2314L76.1885 120.2L1 76.8408L22.9141 64.3174M116.27 57.353L84.5831 38.79M66.619 39.341L37.758 55.8344" stroke="white" stroke-opacity="0.4"/>
  <path d="M121.015 47.7974L128.123 81.2189M121.015 47.7974L131.678 79.1934M121.015 47.7974L124.569 83.2445M121.015 47.7974L113.652 81.2189M121.015 47.7974L124.569 55.14M121.015 47.7974V57.1656M121.015 47.7974L117.334 55.14M121.015 85.27L124.569 83.2445M121.015 85.27L117.334 83.2445M121.015 85.27V75.9019M128.123 81.2189L131.678 79.1934M128.123 81.2189L124.569 83.2445M131.678 79.1934L135.232 77.1678L131.678 69.8252M113.652 81.2189L106.29 77.1678L109.971 69.8252M113.652 81.2189L117.334 83.2445M117.334 83.2445L121.015 47.3457L110.068 79.2467M113.652 62.4826L121.015 66.5337M113.652 62.4826L109.971 69.8252M113.652 62.4826L117.334 55.14M121.015 66.5337L128.123 62.4826M121.015 66.5337V75.9019M121.015 66.5337V57.1656M128.123 62.4826L131.678 69.8252M128.123 62.4826L124.569 55.14M131.678 69.8252L121.015 75.9019M121.015 75.9019L109.971 69.8252M124.569 55.14L121.015 57.1656M121.015 57.1656L117.334 55.14" stroke="white" stroke-opacity="0.4" stroke-width="0.75"/>
  <path d="M32.4634 45.338L40.1848 81.398M32.4634 45.338L44.0455 79.2125M32.4634 45.338L36.3241 83.5835M32.4634 45.338L24.4662 81.398M32.4634 45.338L36.3241 53.2602M32.4634 45.338V55.4457M32.4634 45.338L28.4648 53.2602M32.4634 85.7689L36.3241 83.5835M32.4634 85.7689L28.4648 83.5835M32.4634 85.7689V75.6612M40.1848 81.398L44.0455 79.2125M40.1848 81.398L36.3241 83.5835M44.0455 79.2125L47.9062 77.0271L44.0455 69.1048M24.4662 81.398L16.469 77.0271L20.4676 69.1048M24.4662 81.398L28.4648 83.5835M28.4648 83.5835L32.4634 44.8506L20.5729 79.2701M24.4662 61.1825L32.4634 65.5534M24.4662 61.1825L20.4676 69.1048M24.4662 61.1825L28.4648 53.2602M32.4634 65.5534L40.1848 61.1825M32.4634 65.5534V75.6612M32.4634 65.5534V55.4457M40.1848 61.1825L44.0455 69.1048M40.1848 61.1825L36.3241 53.2602M44.0455 69.1048L32.4634 75.6612M32.4634 75.6612L20.4676 69.1048M36.3241 53.2602L32.4634 55.4457M32.4634 55.4457L28.4648 53.2602" stroke="white" stroke-opacity="0.4" stroke-width="0.75"/>
  <path d="M75.8595 72.2605L83.0907 106.561M75.8595 72.2605L86.7063 104.483M75.8595 72.2605L79.4751 108.64M75.8595 72.2605L68.3701 106.561M75.8595 72.2605L79.4751 79.7963M75.8595 72.2605V81.8751M75.8595 72.2605L72.1148 79.7963M75.8595 110.719L79.4751 108.64M75.8595 110.719L72.1148 108.64M75.8595 110.719V101.105M83.0907 106.561L86.7063 104.483M83.0907 106.561L79.4751 108.64M86.7063 104.483L90.3218 102.404L86.7063 94.868M68.3701 106.561L60.8806 102.404L64.6253 94.868M68.3701 106.561L72.1148 108.64M72.1148 108.64L75.8595 71.7969L64.724 104.537M68.3701 87.3321L75.8595 91.4898M68.3701 87.3321L64.6253 94.868M68.3701 87.3321L72.1148 79.7963M75.8595 91.4898L83.0907 87.3321M75.8595 91.4898V101.105M75.8595 91.4898V81.8751M83.0907 87.3321L86.7063 94.868M83.0907 87.3321L79.4751 79.7963M86.7063 94.868L75.8595 101.105M75.8595 101.105L64.6253 94.868M79.4751 79.7963L75.8595 81.8751M75.8595 81.8751L72.1148 79.7963" stroke="white" stroke-opacity="0.4" stroke-width="0.75"/>
  <path d="M75.8857 20.9046L83.8522 58.2839M75.8857 20.9046L87.8355 56.0185M75.8857 20.9046L79.869 60.5493M75.8857 20.9046L67.6346 58.2839M75.8857 20.9046L79.869 29.1167M75.8857 20.9046V31.3821M75.8857 20.9046L71.7602 29.1167M75.8857 62.8147L79.869 60.5493M75.8857 62.8147L71.7602 60.5493M75.8857 62.8147V52.3372M83.8522 58.2839L87.8355 56.0185M83.8522 58.2839L79.869 60.5493M87.8355 56.0185L91.8188 53.7531L87.8355 45.541M67.6346 58.2839L59.3835 53.7531L63.5091 45.541M67.6346 58.2839L71.7602 60.5493M71.7602 60.5493L75.8857 20.3994L63.6415 56.1125M67.6346 37.3289L75.8857 41.8597M67.6346 37.3289L63.5091 45.541M67.6346 37.3289L71.7602 29.1167M75.8857 41.8597L83.8522 37.3289M75.8857 41.8597V52.3372M75.8857 41.8597V31.3821M83.8522 37.3289L87.8355 45.541M83.8522 37.3289L79.869 29.1167M87.8355 45.541L75.8857 52.3372M75.8857 52.3372L63.5091 45.541M79.869 29.1167L75.8857 31.3821M75.8857 31.3821L71.7602 29.1167" stroke="white" stroke-opacity="0.4" stroke-width="0.75"/>
</svg>