<svg width="1em" height="1em" viewBox="0 0 30 30" fill="currentColor" xmlns="http://www.w3.org/2000/svg">
<rect x="1.15609" y="1.00082" width="27.8664" height="27.8664" rx="3.64274" stroke="white" stroke-width="0.714522"/>
<path fill-rule="evenodd" clip-rule="evenodd" d="M20.0597 10.5794C21.6737 12.8632 22.4707 15.4393 22.1728 18.4049C22.1715 18.4175 22.1647 18.429 22.154 18.4365C20.9318 19.3003 19.7477 19.8245 18.5802 20.1721C18.5615 20.1775 18.5413 20.171 18.53 20.1558C18.2602 19.7945 18.0151 19.4137 17.8004 19.0139C17.7881 18.9903 17.7994 18.9619 17.8247 18.9526C18.214 18.8115 18.5841 18.6423 18.9401 18.442C18.9681 18.4262 18.9699 18.3875 18.944 18.369C18.8685 18.315 18.7936 18.2583 18.722 18.2015C18.7086 18.191 18.6905 18.189 18.6754 18.196C16.3641 19.2233 13.8322 19.2233 11.4935 18.196C11.4784 18.1895 11.4603 18.1917 11.4473 18.202C11.3758 18.2588 11.3008 18.315 11.2259 18.369C11.2 18.3875 11.2022 18.4262 11.2304 18.442C11.5864 18.6386 11.9565 18.8115 12.3452 18.9533C12.3704 18.9626 12.3824 18.9903 12.3699 19.0139C12.1598 19.4143 11.9147 19.7951 11.64 20.1563C11.628 20.1709 11.6084 20.1776 11.5898 20.1721C10.4278 19.8245 9.24369 19.3003 8.0215 18.4365C8.01132 18.429 8.00399 18.4169 8.00292 18.4044C7.75391 15.8392 8.2614 13.2418 10.114 10.5789C10.1184 10.5719 10.1252 10.5664 10.1331 10.5631C11.0446 10.1605 12.0212 9.86423 13.0419 9.69506C13.0605 9.69231 13.0791 9.70056 13.0887 9.71638C13.2148 9.93128 13.359 10.2069 13.4565 10.4321C14.5324 10.2739 15.6251 10.2739 16.7235 10.4321C16.821 10.2117 16.9602 9.93128 17.0857 9.71638C17.0949 9.70029 17.1138 9.69169 17.1325 9.69506C18.1538 9.86475 19.1303 10.161 20.0412 10.5631C20.0492 10.5664 20.0558 10.5719 20.0597 10.5794ZM14.0033 15.457C14.0146 14.6986 13.4401 14.0711 12.719 14.0711C12.0038 14.0711 11.4348 14.6931 11.4348 15.457C11.4348 16.2207 12.015 16.8427 12.719 16.8427C13.4344 16.8427 14.0033 16.2207 14.0033 15.457ZM18.7517 15.457C18.763 14.6986 18.1885 14.0711 17.4675 14.0711C16.7521 14.0711 16.1832 14.6931 16.1832 15.457C16.1832 16.2207 16.7634 16.8427 17.4675 16.8427C18.1885 16.8427 18.7517 16.2207 18.7517 15.457Z" fill="white"/>
</svg>
