<svg width="1em" height="1em" viewBox="0 0 30 30" fill="currentColor" xmlns="http://www.w3.org/2000/svg">
<rect x="1.18246" y="1.00082" width="27.8664" height="27.8664" rx="3.64274" stroke="white" stroke-width="0.714522"/>
<path d="M15.1162 7.78906C11.168 7.78747 7.97021 10.9721 7.97021 14.9029C7.97021 18.0112 9.97065 20.6534 12.7566 21.6237C13.1318 21.7176 13.0743 21.4519 13.0743 21.2706V20.0378C10.9078 20.2907 10.82 18.8622 10.6747 18.6236C10.381 18.1241 9.68647 17.9969 9.89402 17.7582C10.3873 17.5053 10.8902 17.8219 11.473 18.6793C11.8945 19.3013 12.7167 19.1963 13.1334 19.0929C13.2244 18.7191 13.4191 18.385 13.6874 18.1257C11.4426 17.7248 10.5071 16.36 10.5071 14.7374C10.5071 13.95 10.7673 13.2262 11.2782 12.6424C10.9525 11.68 11.3085 10.856 11.3564 10.7335C12.284 10.6508 13.2483 11.3953 13.3233 11.4541C13.8502 11.3126 14.4521 11.2378 15.1258 11.2378C15.8027 11.2378 16.4062 11.3157 16.9379 11.4589C17.1183 11.3221 18.0123 10.6826 18.8744 10.7606C18.9207 10.8831 19.2688 11.688 18.9622 12.6376C19.4795 13.223 19.7429 13.9532 19.7429 14.7422C19.7429 16.3679 18.801 17.7344 16.5499 18.1289C16.9251 18.4979 17.1582 19.0102 17.1582 19.5765V21.366C17.171 21.5092 17.1582 21.6508 17.3977 21.6508C20.2251 20.7011 22.2607 18.0398 22.2607 14.9045C22.2607 10.9721 19.0612 7.78906 15.1162 7.78906Z" fill="white"/>
</svg>
