<svg width="18" height="18" viewBox="0 0 18 18" fill="none" xmlns="http://www.w3.org/2000/svg">
<path fill-rule="evenodd" clip-rule="evenodd" d="M9 15.375C12.5152 15.375 15.375 12.5152 15.375 9C15.375 5.48475 12.5153 2.625 9 2.625C5.48475 2.625 2.625 5.48475 2.625 9C2.625 12.5152 5.48475 15.375 9 15.375M9 1.5C13.1355 1.5 16.5 4.8645 16.5 9C16.5 13.1355 13.1355 16.5 9 16.5C4.8645 16.5 1.5 13.1355 1.5 9C1.5 4.8645 4.8645 1.5 9 1.5" fill="#989DA0"/>
<path fill-rule="evenodd" clip-rule="evenodd" d="M9.00439 7.96993C9.31489 7.96993 9.56689 8.22193 9.56689 8.53243L9.56689 11.8467C9.56689 12.1572 9.31489 12.4092 9.00439 12.4092C8.69389 12.4092 8.44189 12.1572 8.44189 11.8467L8.44189 8.53243C8.44189 8.22193 8.69389 7.96993 9.00439 7.96993" fill="#989DA0"/>
<path fill-rule="evenodd" clip-rule="evenodd" d="M8.99674 5.40332C9.41149 5.40332 9.75049 5.73857 9.75049 6.15332C9.75049 6.56807 9.41824 6.90332 9.00424 6.90332L8.99674 6.90332C8.58199 6.90332 8.24674 6.56807 8.24674 6.15332C8.24674 5.73857 8.58199 5.40332 8.99674 5.40332" fill="#989DA0"/>
</svg>
