<svg width="1em" height="1em" viewBox="0 0 30 30" fill="currentColor" xmlns="http://www.w3.org/2000/svg">
<rect x="1.16927" y="1.00082" width="27.8664" height="27.8664" rx="3.64274" stroke="white" stroke-width="0.714522"/>
<path fill-rule="evenodd" clip-rule="evenodd" d="M8.93942 14.1115C12.7755 12.4402 15.3334 11.3383 16.6133 10.806C20.2677 9.28603 21.027 9.022 21.5219 9.01328C21.6308 9.01136 21.8742 9.03834 22.0318 9.16626C22.165 9.27429 22.2016 9.42021 22.2191 9.52262C22.2366 9.62504 22.2585 9.85834 22.2411 10.0406C22.0431 12.1214 21.1862 17.1707 20.7503 19.5011C20.5658 20.4872 20.2026 20.8179 19.851 20.8502C19.0869 20.9205 18.5066 20.3452 17.7665 19.86C16.6083 19.1009 15.954 18.6283 14.8299 17.8875C13.5307 17.0313 14.3729 16.5608 15.1133 15.7918C15.3071 15.5905 18.6739 12.5281 18.7391 12.2503C18.7473 12.2155 18.7548 12.086 18.6779 12.0176C18.6009 11.9492 18.4874 11.9726 18.4054 11.9912C18.2893 12.0176 16.4391 13.2404 12.855 15.6598C12.3298 16.0205 11.8542 16.1962 11.428 16.187C10.9581 16.1768 10.0544 15.9213 9.38249 15.7029C8.55842 15.435 7.90346 15.2934 7.96049 14.8385C7.9902 14.6015 8.31651 14.3592 8.93942 14.1115Z" fill="white"/>
</svg>
