<svg width="1em" height="1em" viewBox="0 0 152 26" fill="currentColor" xmlns="http://www.w3.org/2000/svg">
<path d="M10.9388 9.744L11.3602 10.1712L12.4015 9.144H10.9388V9.744ZM1 9.744H0.4V10.344H1V9.744ZM1 0.761963V0.161963H0.4V0.761963H1ZM26 25.1632V25.7632H26.6V25.1632H26ZM17.018 25.1632H16.418V25.7632H17.018V25.1632ZM17.018 15.3199H17.618V13.8903L16.5977 14.8917L17.018 15.3199ZM6.91268 25.238V25.838H7.15793L7.33296 25.6663L6.91268 25.238ZM1.07436 25.238H0.474359V25.838H1.07436V25.238ZM1.07436 19.4746L0.653004 19.0474L0.474359 19.2236V19.4746H1.07436ZM10.9388 9.144H1V10.344H10.9388V9.144ZM1.6 9.744V0.761963H0.4V9.744H1.6ZM1 1.36196H17.6168V0.161963H1V1.36196ZM17.6168 1.36196C21.9153 1.36196 25.4 4.84664 25.4 9.1452H26.6C26.6 4.18389 22.5781 0.161963 17.6168 0.161963V1.36196ZM25.4 9.1452V25.1632H26.6V9.1452H25.4ZM26 24.5632H17.018V25.7632H26V24.5632ZM17.618 25.1632V15.3199H16.418V25.1632H17.618ZM16.5977 14.8917L6.4924 24.8098L7.33296 25.6663L17.4382 15.7481L16.5977 14.8917ZM6.91268 24.638H1.07436V25.838H6.91268V24.638ZM1.67436 25.238V19.4746H0.474359V25.238H1.67436ZM1.49571 19.9017L11.3602 10.1712L10.5175 9.31685L0.653004 19.0474L1.49571 19.9017Z" fill="white"/>
<path d="M144.418 19.2377C142.824 19.2377 141.459 18.9906 140.322 18.4962C139.197 17.9896 138.332 17.2728 137.726 16.346C137.133 15.4191 136.837 14.3069 136.837 13.0093C136.837 11.6993 137.133 10.581 137.726 9.6541C138.332 8.72725 139.197 8.01667 140.322 7.52235C141.459 7.01567 142.824 6.76233 144.418 6.76233C146.025 6.76233 147.39 7.01567 148.515 7.52235C149.64 8.01667 150.498 8.72725 151.092 9.6541C151.697 10.581 152 11.6993 152 13.0093C152 14.3069 151.697 15.4191 151.092 16.346C150.498 17.2728 149.64 17.9896 148.515 18.4962C147.39 18.9906 146.025 19.2377 144.418 19.2377ZM144.418 17.106C145.407 17.106 146.272 16.9577 147.013 16.6611C147.767 16.3645 148.354 15.9134 148.774 15.3079C149.207 14.7023 149.423 13.9361 149.423 13.0093C149.423 12.0824 149.207 11.3163 148.774 10.7107C148.354 10.1052 147.767 9.6541 147.013 9.35751C146.272 9.04856 145.407 8.89408 144.418 8.89408C143.442 8.89408 142.571 9.04856 141.805 9.35751C141.038 9.6541 140.439 10.1052 140.006 10.7107C139.574 11.3163 139.358 12.0824 139.358 13.0093C139.358 13.9361 139.574 14.7023 140.006 15.3079C140.439 15.9134 141.038 16.3645 141.805 16.6611C142.571 16.9577 143.442 17.106 144.418 17.106Z" fill="white"/>
<path d="M125.124 16.383V14.3254H133.058V16.383H125.124ZM122.14 18.9967L127.775 7.0033H130.444L136.135 18.9967H133.447L128.517 8.18966H129.703L124.809 18.9967H122.14Z" fill="white"/>
<path d="M114.416 7.0033C115.763 7.0033 116.888 7.16395 117.79 7.48526C118.692 7.80657 119.409 8.24527 119.94 8.80138C120.484 9.34514 120.867 9.97539 121.089 10.6922C121.324 11.4089 121.441 12.1628 121.441 12.9537C121.441 13.7446 121.312 14.5046 121.052 15.2337C120.805 15.9628 120.403 16.6116 119.847 17.1801C119.304 17.7362 118.581 18.1811 117.678 18.5148C116.789 18.8361 115.701 18.9967 114.416 18.9967H107.557V7.0033H114.416ZM110.023 16.8835H114.36C115.25 16.8835 115.985 16.7785 116.566 16.5684C117.159 16.3459 117.629 16.0493 117.975 15.6786C118.321 15.3079 118.568 14.8877 118.717 14.4181C118.865 13.9485 118.939 13.4603 118.939 12.9537C118.939 12.447 118.865 11.965 118.717 11.5078C118.568 11.0505 118.321 10.6427 117.975 10.2843C117.629 9.92596 117.159 9.64173 116.566 9.43164C115.985 9.22156 115.25 9.11651 114.36 9.11651H110.023V16.8835Z" fill="white"/>
<path d="M87.4667 18.9967L82.4061 7.0033H85.1311L89.4131 17.625L88.616 17.6435L92.6942 7.0033H95.5303L99.6085 17.6435L98.8114 17.625L103.093 7.0033H105.763L100.758 18.9967H97.7362L93.7322 8.59748H94.5108L90.4883 18.9967H87.4667Z" fill="white"/>
<path d="M68.4377 18.9967V7.0033H76.5755C77.5023 7.0033 78.3056 7.13305 78.9853 7.39257C79.6773 7.63973 80.2149 8.03519 80.598 8.57894C80.9811 9.11033 81.1727 9.7962 81.1727 10.6365C81.1727 11.205 81.0738 11.687 80.8761 12.0824C80.6783 12.4779 80.4003 12.7992 80.0419 13.0464C79.6959 13.2935 79.2942 13.4851 78.837 13.621C78.3798 13.7446 77.8916 13.8249 77.3726 13.862L77.1131 13.7137C77.9781 13.726 78.6887 13.8002 79.2448 13.9361C79.8009 14.0597 80.2149 14.2945 80.4868 14.6405C80.771 14.9742 80.9131 15.4747 80.9131 16.142V18.9967H78.4477V16.3089C78.4477 15.8516 78.3674 15.4994 78.2067 15.2523C78.0461 14.9927 77.7557 14.8135 77.3355 14.7147C76.9277 14.6158 76.3345 14.5664 75.5559 14.5664H70.9032V18.9967H68.4377ZM70.9032 12.6385H76.5755C77.2675 12.6385 77.7927 12.4717 78.1511 12.138C78.5219 11.8044 78.7072 11.3533 78.7072 10.7848C78.7072 10.2411 78.5219 9.8271 78.1511 9.54286C77.7927 9.25863 77.2675 9.11651 76.5755 9.11651H70.9032V12.6385Z" fill="white"/>
<path d="M57.3965 17.7733H56.2287L63.1244 7.0033H65.5898V18.9967H63.1244V10.2843L63.7176 10.4512L58.2121 18.9967H55.4501L49.9446 10.4883L50.5378 10.3214V18.9967H48.0724V7.0033H50.5378L57.3965 17.7733Z" fill="white"/>
<path d="M34 7.0033H46.6422V9.0609H34V7.0033ZM39.0977 8.80138H41.5631V18.9967H39.0977V8.80138Z" fill="white"/>
</svg>
