<svg xmlns="http://www.w3.org/2000/svg" width="24" height="25" viewBox="0 0 24 25" fill="none">
  <path d="M6.36891 19.4235C6.26695 19.5255 6.10163 19.5255 5.99966 19.4235L5.07653 18.5004C4.97456 18.3984 4.97456 18.2331 5.07653 18.1311L10.7076 12.5L5.07647 6.86889C4.97451 6.76692 4.97451 6.6016 5.07647 6.49964L5.99961 5.5765C6.10157 5.47453 6.26689 5.47453 6.36886 5.5765L12 11.2076L17.6311 5.57648C17.7331 5.47451 17.8984 5.47451 18.0004 5.57647L18.9235 6.49961C19.0255 6.60158 19.0255 6.7669 18.9235 6.86886L13.2924 12.5L18.9235 18.1311C19.0254 18.2331 19.0254 18.3984 18.9235 18.5004L18.0003 19.4235C17.8984 19.5255 17.7331 19.5255 17.6311 19.4235L12 13.7924L6.36891 19.4235Z" fill="white"/>
</svg>