<svg xmlns="http://www.w3.org/2000/svg" width="27" height="26" viewBox="0 0 27 26" fill="none">
  <path d="M10.9388 9.74376L11.3602 10.1709L12.4015 9.14375H10.9388V9.74376ZM1 9.74376H0.4V10.3438H1V9.74376ZM1 0.761719V0.161719H0.4V0.761719H1ZM26 25.1629V25.7629H26.6V25.1629H26ZM17.018 25.1629H16.418V25.7629H17.018V25.1629ZM17.018 15.3197H17.618V13.8901L16.5977 14.8914L17.018 15.3197ZM6.91268 25.2378V25.8378H7.15793L7.33296 25.666L6.91268 25.2378ZM1.07436 25.2378H0.474359V25.8378H1.07436V25.2378ZM1.07436 19.4743L0.653004 19.0472L0.474359 19.2234V19.4743H1.07436ZM10.9388 9.14375H1V10.3438H10.9388V9.14375ZM1.6 9.74376V0.761719H0.4V9.74376H1.6ZM1 1.36172H17.6168V0.161719H1V1.36172ZM17.6168 1.36172C21.9153 1.36172 25.4 4.84639 25.4 9.14495H26.6C26.6 4.18365 22.5781 0.161719 17.6168 0.161719V1.36172ZM25.4 9.14495V25.1629H26.6V9.14495H25.4ZM26 24.5629H17.018V25.7629H26V24.5629ZM17.618 25.1629V15.3197H16.418V25.1629H17.618ZM16.5977 14.8914L6.4924 24.8096L7.33296 25.666L17.4382 15.7479L16.5977 14.8914ZM6.91268 24.6378H1.07436V25.8378H6.91268V24.6378ZM1.67436 25.2378V19.4743H0.474359V25.2378H1.67436ZM1.49571 19.9015L11.3602 10.1709L10.5175 9.3166L0.653004 19.0472L1.49571 19.9015Z" fill="white"/>
</svg>