<svg xmlns="http://www.w3.org/2000/svg" width="119" height="21" viewBox="0 0 119 21" fill="none">
  <path d="M8.71532 8.408L9.0424 8.73959L9.85072 7.94224H8.71532V8.408ZM1 8.408H0.53424V8.87376H1V8.408ZM1 1.43555V0.969787H0.53424V1.43555H1ZM20.4067 20.3774V20.8431H20.8724V20.3774H20.4067ZM13.4342 20.3774H12.9684V20.8431H13.4342V20.3774ZM13.4342 12.7365H13.9V11.6268L13.108 12.4041L13.4342 12.7365ZM5.58994 20.4355V20.9013H5.78032L5.91619 20.7679L5.58994 20.4355ZM1.05785 20.4355H0.59209V20.9013H1.05785V20.4355ZM1.05785 15.9615L0.730766 15.6299L0.59209 15.7667V15.9615H1.05785ZM8.71532 7.94224H1V8.87376H8.71532V7.94224ZM1.46576 8.408V1.43555H0.53424V8.408H1.46576ZM1 1.90131H13.899V0.969787H1V1.90131ZM13.899 1.90131C17.2359 1.90131 19.9409 4.60634 19.9409 7.94317H20.8724C20.8724 4.09188 17.7503 0.969787 13.899 0.969787V1.90131ZM19.9409 7.94317V20.3774H20.8724V7.94317H19.9409ZM20.4067 19.9116H13.4342V20.8431H20.4067V19.9116ZM13.9 20.3774V12.7365H12.9684V20.3774H13.9ZM13.108 12.4041L5.26369 20.1031L5.91619 20.7679L13.7605 13.0689L13.108 12.4041ZM5.58994 19.9698H1.05785V20.9013H5.58994V19.9698ZM1.52361 20.4355V15.9615H0.59209V20.4355H1.52361ZM1.38493 16.2931L9.0424 8.73959L8.38823 8.07642L0.730766 15.6299L1.38493 16.2931Z" fill="white"/>
  <path d="M112.331 15.778C111.094 15.778 110.034 15.5861 109.151 15.2024C108.278 14.8091 107.607 14.2527 107.137 13.5332C106.676 12.8137 106.446 11.9503 106.446 10.9431C106.446 9.92619 106.676 9.05802 107.137 8.33854C107.607 7.61905 108.278 7.06745 109.151 6.68373C110.034 6.29041 111.094 6.09375 112.331 6.09375C113.579 6.09375 114.639 6.29041 115.512 6.68373C116.384 7.06745 117.051 7.61905 117.512 8.33854C117.982 9.05802 118.217 9.92619 118.217 10.9431C118.217 11.9503 117.982 12.8137 117.512 13.5332C117.051 14.2527 116.384 14.8091 115.512 15.2024C114.639 15.5861 113.579 15.778 112.331 15.778ZM112.331 14.1232C113.099 14.1232 113.77 14.0081 114.346 13.7778C114.931 13.5476 115.387 13.1974 115.713 12.7274C116.049 12.2573 116.217 11.6625 116.217 10.9431C116.217 10.2236 116.049 9.62881 115.713 9.15874C115.387 8.68868 114.931 8.33853 114.346 8.1083C113.77 7.86847 113.099 7.74856 112.331 7.74856C111.574 7.74856 110.897 7.86847 110.302 8.1083C109.708 8.33853 109.242 8.68868 108.907 9.15874C108.571 9.62881 108.403 10.2236 108.403 10.9431C108.403 11.6625 108.571 12.2573 108.907 12.7274C109.242 13.1974 109.708 13.5476 110.302 13.7778C110.897 14.0081 111.574 14.1232 112.331 14.1232Z" fill="white"/>
  <path d="M97.3536 13.5624V11.9652H103.512V13.5624H97.3536ZM95.0369 15.5914L99.4113 6.28125H101.483L105.901 15.5914H103.815L99.9869 7.20219H100.908L97.109 15.5914H95.0369Z" fill="white"/>
  <path d="M89.0415 6.28125C90.0871 6.28125 90.9601 6.40596 91.6604 6.65538C92.3607 6.9048 92.9171 7.24536 93.3296 7.67705C93.7517 8.09914 94.0491 8.58839 94.2217 9.14479C94.404 9.70119 94.4951 10.2864 94.4951 10.9003C94.4951 11.5143 94.3944 12.1043 94.193 12.6703C94.0011 13.2362 93.6893 13.7399 93.2576 14.1812C92.8355 14.6129 92.2743 14.9582 91.574 15.2172C90.8833 15.4666 90.0391 15.5914 89.0415 15.5914H83.7173V6.28125H89.0415ZM85.6311 13.9509H88.9983C89.689 13.9509 90.2598 13.8694 90.7107 13.7063C91.1711 13.5336 91.5357 13.3034 91.8043 13.0156C92.0729 12.7278 92.2647 12.4016 92.3799 12.0371C92.495 11.6726 92.5525 11.2936 92.5525 10.9003C92.5525 10.507 92.495 10.1329 92.3799 9.77793C92.2647 9.42299 92.0729 9.10642 91.8043 8.82822C91.5357 8.55002 91.1711 8.32938 90.7107 8.16629C90.2598 8.00321 89.689 7.92167 88.9983 7.92167H85.6311V13.9509Z" fill="white"/>
  <path d="M68.122 15.5914L64.1936 6.28125H66.3089L69.6329 14.5265L69.0141 14.5409L72.1799 6.28125H74.3815L77.5472 14.5409L76.9284 14.5265L80.2525 6.28125H82.3246L78.4394 15.5914H76.0938L72.9857 7.51876H73.59L70.4675 15.5914H68.122Z" fill="white"/>
  <path d="M53.3499 15.5914V6.28125H59.6669C60.3864 6.28125 61.0099 6.38198 61.5376 6.58343C62.0748 6.77529 62.4921 7.08227 62.7895 7.50437C63.0868 7.91687 63.2355 8.44929 63.2355 9.10162C63.2355 9.5429 63.1588 9.91703 63.0053 10.224C62.8518 10.531 62.636 10.7804 62.3578 10.9723C62.0892 11.1641 61.7774 11.3128 61.4224 11.4184C61.0675 11.5143 60.6886 11.5766 60.2857 11.6054L60.0842 11.4903C60.7557 11.4999 61.3073 11.5575 61.739 11.663C62.1707 11.7589 62.4921 11.9412 62.7031 12.2098C62.9238 12.4688 63.0341 12.8573 63.0341 13.3753V15.5914H61.1203V13.5049C61.1203 13.1499 61.0579 12.8765 60.9332 12.6846C60.8085 12.4832 60.5831 12.3441 60.2569 12.2673C59.9403 12.1906 59.4798 12.1522 58.8755 12.1522H55.2637V15.5914H53.3499ZM55.2637 10.6557H59.6669C60.2041 10.6557 60.6118 10.5262 60.89 10.2672C61.1778 10.0082 61.3217 9.65802 61.3217 9.21674C61.3217 8.79464 61.1778 8.47327 60.89 8.25263C60.6118 8.03199 60.2041 7.92167 59.6669 7.92167H55.2637V10.6557Z" fill="white"/>
  <path d="M44.7788 14.6416H43.8722L49.2252 6.28125H51.139V15.5914H49.2252V8.82822L49.6856 8.95772L45.4119 15.5914H43.2679L38.9941 8.9865L39.4546 8.857V15.5914H37.5408V6.28125H39.4546L44.7788 14.6416Z" fill="white"/>
  <path d="M26.6169 6.28125H36.4307V7.8785H26.6169V6.28125ZM30.5741 7.67705H32.4879V15.5914H30.5741V7.67705Z" fill="white"/>
</svg>