<svg xmlns="http://www.w3.org/2000/svg" width="36" height="36" viewBox="0 0 36 36" fill="none">
  <path d="M33 18C33 26.2843 26.2843 33 18 33C9.71573 33 3 26.2843 3 18C3 9.71573 9.71573 3 18 3C26.2843 3 33 9.71573 33 18ZM16.227 23.4273C16.5112 23.4352 16.7979 23.3308 17.0147 23.1139L25.803 14.3256C25.9704 14.1582 25.9704 13.8869 25.803 13.7195L24.5151 12.4316C24.3477 12.2642 24.0764 12.2642 23.909 12.4316L16.256 20.0846L12.0911 15.9197C11.9237 15.7523 11.6524 15.7523 11.485 15.9197L10.1971 17.2077C10.0297 17.375 10.0297 17.6464 10.1971 17.8137L15.4972 23.1139C15.6993 23.316 15.9622 23.4205 16.227 23.4273Z" fill="#5D49F6"/>
</svg>