<svg xmlns="http://www.w3.org/2000/svg" width="16" height="16" viewBox="0 0 16 16" fill="none">
  <path d="M3.17664 7.90582C3.17664 5.29393 5.29399 3.17658 7.90588 3.17658C9.56141 3.17658 11.0192 4.02721 11.8644 5.31706H10.9179C10.8139 5.31706 10.7296 5.40134 10.7296 5.50531V6.30538C10.7296 6.40935 10.8139 6.49363 10.9179 6.49363L13.5534 6.49398C13.8133 6.49398 14.024 6.28327 14.024 6.02335V3.38781C14.024 3.28384 13.9397 3.19956 13.8358 3.19956H13.0357C12.9317 3.19956 12.8475 3.28384 12.8475 3.38781V4.67067C11.7929 3.06302 9.97395 2 7.90588 2C4.64418 2 2.00006 4.64412 2.00006 7.90582C2.00006 11.1675 4.64418 13.8116 7.90588 13.8116C10.5631 13.8116 12.8091 12.0572 13.5514 9.64452C13.582 9.54515 13.5226 9.44144 13.4223 9.41407L12.6504 9.20349C12.5501 9.17613 12.447 9.23542 12.4156 9.33454C11.81 11.2485 10.0191 12.6351 7.90588 12.6351C5.29399 12.6351 3.17664 10.5177 3.17664 7.90582Z" fill="white"/>
</svg>