<svg xmlns="http://www.w3.org/2000/svg" width="13" height="13" viewBox="0 0 13 13" fill="none">
  <path fill-rule="evenodd" clip-rule="evenodd" d="M8.49979 2.54146C9.05507 1.98618 9.95535 1.98618 10.5106 2.54146L11.1452 3.17606C11.7005 3.73134 11.7005 4.63162 11.1452 5.18689L5.18689 11.1452C4.92024 11.4119 4.55858 11.5617 4.18148 11.5617H2.125L2.125 9.50521C2.125 9.1281 2.2748 8.76644 2.54146 8.49979L8.49979 2.54146ZM10.0319 3.02023C9.741 2.72937 9.26942 2.72937 8.97856 3.02023L8.35898 3.63981L10.0469 5.32771L10.6665 4.70812C10.9573 4.41726 10.9573 3.94569 10.6665 3.65483L10.0319 3.02023ZM9.56811 5.80648L7.88021 4.11858L3.02023 8.97856C2.88055 9.11824 2.80208 9.30768 2.80208 9.50521L2.80208 10.8846H4.18148C4.37901 10.8846 4.56845 10.8061 4.70812 10.6665L9.56811 5.80648Z" fill="#989DA0"/>
</svg>