<svg width="1em" height="1em" viewBox="0 0 18 18" fill="currentColor" xmlns="http://www.w3.org/2000/svg">
<path fill-rule="evenodd" clip-rule="evenodd" d="M2.53142 8.13586C6.55794 6.38157 9.24292 5.22503 10.5864 4.66625C14.4221 3.07082 15.2192 2.79367 15.7387 2.78452C15.8529 2.78251 16.1084 2.81083 16.2739 2.94511C16.4136 3.05849 16.4521 3.21166 16.4705 3.31916C16.4889 3.42666 16.5118 3.67155 16.4936 3.86289C16.2857 6.04692 15.3863 11.347 14.9287 13.7931C14.7351 14.8282 14.3539 15.1752 13.9848 15.2092C13.1827 15.283 12.5736 14.6791 11.7967 14.1699C10.5811 13.373 9.89433 12.8769 8.71434 12.0993C7.35064 11.2007 8.23467 10.7068 9.01183 9.89957C9.21522 9.68832 12.7493 6.47382 12.8177 6.18222C12.8262 6.14575 12.8342 6.00981 12.7534 5.93802C12.6727 5.86624 12.5535 5.89079 12.4674 5.91031C12.3455 5.93798 10.4035 7.22158 6.64139 9.76111C6.09016 10.1396 5.59087 10.3241 5.14352 10.3144C4.65035 10.3037 3.7017 10.0355 2.99648 9.8063C2.13149 9.52513 1.44401 9.37647 1.50388 8.89895C1.53506 8.65023 1.87757 8.39587 2.53142 8.13586Z" fill="white"/>
</svg>
